%
M48
M72
T01C0.02362
T02C0.02400
T03C0.03937
T04C0.05100
T05C0.06000
T06C0.08200
T07C0.10600
%
T01
X108800Y198800
X111800Y206800
X111800Y214800
X116800Y237800
X106200Y277700
X90800Y278600
T02
X83800Y214800
X83800Y206800
X86800Y198800
T03
X184800Y200800
X184800Y210800
X184800Y220800
X184800Y230800
X184800Y240800
X184800Y250800
X184800Y260800
X184800Y270800
X194800Y270800
X194800Y260800
X194800Y250800
X194800Y240800
X194800Y230800
X194800Y220800
X194800Y210800
X194800Y200800
X194800Y190800
X194800Y180800
X194800Y170800
X194800Y160800
X194800Y150800
X194800Y140800
X194800Y130800
X194800Y120800
X194800Y110800
X194800Y100800
X194800Y90800
X194800Y80800
X194800Y70800
X194800Y60800
X194800Y50800
X194800Y40800
X194800Y30800
X184800Y30800
X184800Y40800
X184800Y50800
X184800Y60800
X184800Y70800
X184800Y80800
X184800Y90800
X184800Y100800
X184800Y110800
X184800Y120800
X184800Y130800
X184800Y140800
X184800Y150800
X184800Y160800
X184800Y170800
X184800Y180800
X184800Y190800
X184800Y290800
X184800Y300800
X194800Y300800
X194800Y290800
T04
X114548Y257737
X114548Y249863
X106674Y249863
X106674Y257737
X98800Y257737
X98800Y249863
X90926Y249863
X90926Y257737
X83052Y257737
X83052Y249863
T05
X68800Y53800
X98800Y53800
X128800Y53800
T06
X128800Y253800
X68800Y253800
T07
X41800Y20800
X140800Y20800
X140800Y294800
X41800Y294800
M30
