G75*
%MOIN*%
%OFA0B0*%
%FSLAX25Y25*%
%IPPOS*%
%LPD*%
%AMOC8*
5,1,8,0,0,1.08239X$1,22.5*
%
%ADD10C,0.00000*%
%ADD11R,0.03937X0.04331*%
%ADD12R,0.06299X0.07087*%
%ADD13R,0.04331X0.03937*%
%ADD14R,0.19000X0.08000*%
%ADD15C,0.01181*%
%ADD16R,0.03150X0.03150*%
%ADD17C,0.10000*%
%ADD18C,0.12000*%
%ADD19C,0.07000*%
%ADD20C,0.05137*%
%ADD21C,0.01600*%
%ADD22C,0.02962*%
%ADD23C,0.04000*%
%ADD24C,0.04000*%
D10*
X0001800Y0006800D02*
X0001800Y0306800D01*
X0201800Y0306800D01*
X0201800Y0006800D01*
X0001800Y0006800D01*
X0036500Y0020800D02*
X0036502Y0020945D01*
X0036508Y0021091D01*
X0036518Y0021236D01*
X0036532Y0021381D01*
X0036550Y0021525D01*
X0036572Y0021669D01*
X0036597Y0021812D01*
X0036627Y0021954D01*
X0036661Y0022096D01*
X0036698Y0022236D01*
X0036740Y0022375D01*
X0036785Y0022514D01*
X0036834Y0022651D01*
X0036886Y0022786D01*
X0036943Y0022920D01*
X0037003Y0023053D01*
X0037066Y0023183D01*
X0037133Y0023312D01*
X0037204Y0023439D01*
X0037278Y0023565D01*
X0037356Y0023688D01*
X0037437Y0023808D01*
X0037521Y0023927D01*
X0037608Y0024043D01*
X0037699Y0024157D01*
X0037792Y0024268D01*
X0037889Y0024377D01*
X0037989Y0024483D01*
X0038091Y0024586D01*
X0038196Y0024686D01*
X0038304Y0024784D01*
X0038415Y0024878D01*
X0038528Y0024969D01*
X0038644Y0025058D01*
X0038762Y0025143D01*
X0038882Y0025224D01*
X0039004Y0025303D01*
X0039129Y0025378D01*
X0039256Y0025449D01*
X0039384Y0025517D01*
X0039514Y0025582D01*
X0039647Y0025643D01*
X0039780Y0025700D01*
X0039915Y0025754D01*
X0040052Y0025803D01*
X0040190Y0025850D01*
X0040329Y0025892D01*
X0040469Y0025930D01*
X0040611Y0025965D01*
X0040753Y0025995D01*
X0040896Y0026022D01*
X0041039Y0026045D01*
X0041183Y0026064D01*
X0041328Y0026079D01*
X0041473Y0026090D01*
X0041618Y0026097D01*
X0041764Y0026100D01*
X0041909Y0026099D01*
X0042054Y0026094D01*
X0042200Y0026085D01*
X0042344Y0026072D01*
X0042489Y0026055D01*
X0042633Y0026034D01*
X0042776Y0026009D01*
X0042919Y0025981D01*
X0043060Y0025948D01*
X0043201Y0025911D01*
X0043341Y0025871D01*
X0043479Y0025827D01*
X0043617Y0025779D01*
X0043752Y0025727D01*
X0043887Y0025672D01*
X0044020Y0025613D01*
X0044151Y0025550D01*
X0044280Y0025484D01*
X0044408Y0025414D01*
X0044534Y0025341D01*
X0044657Y0025264D01*
X0044778Y0025184D01*
X0044898Y0025101D01*
X0045014Y0025014D01*
X0045129Y0024924D01*
X0045241Y0024831D01*
X0045350Y0024735D01*
X0045457Y0024637D01*
X0045560Y0024535D01*
X0045662Y0024430D01*
X0045760Y0024323D01*
X0045855Y0024213D01*
X0045947Y0024100D01*
X0046036Y0023985D01*
X0046122Y0023868D01*
X0046204Y0023748D01*
X0046283Y0023626D01*
X0046359Y0023502D01*
X0046432Y0023376D01*
X0046501Y0023248D01*
X0046566Y0023118D01*
X0046628Y0022987D01*
X0046686Y0022853D01*
X0046741Y0022719D01*
X0046791Y0022582D01*
X0046838Y0022445D01*
X0046882Y0022306D01*
X0046921Y0022166D01*
X0046957Y0022025D01*
X0046988Y0021883D01*
X0047016Y0021740D01*
X0047040Y0021597D01*
X0047060Y0021453D01*
X0047076Y0021308D01*
X0047088Y0021163D01*
X0047096Y0021018D01*
X0047100Y0020873D01*
X0047100Y0020727D01*
X0047096Y0020582D01*
X0047088Y0020437D01*
X0047076Y0020292D01*
X0047060Y0020147D01*
X0047040Y0020003D01*
X0047016Y0019860D01*
X0046988Y0019717D01*
X0046957Y0019575D01*
X0046921Y0019434D01*
X0046882Y0019294D01*
X0046838Y0019155D01*
X0046791Y0019018D01*
X0046741Y0018881D01*
X0046686Y0018747D01*
X0046628Y0018613D01*
X0046566Y0018482D01*
X0046501Y0018352D01*
X0046432Y0018224D01*
X0046359Y0018098D01*
X0046283Y0017974D01*
X0046204Y0017852D01*
X0046122Y0017732D01*
X0046036Y0017615D01*
X0045947Y0017500D01*
X0045855Y0017387D01*
X0045760Y0017277D01*
X0045662Y0017170D01*
X0045560Y0017065D01*
X0045457Y0016963D01*
X0045350Y0016865D01*
X0045241Y0016769D01*
X0045129Y0016676D01*
X0045014Y0016586D01*
X0044898Y0016499D01*
X0044778Y0016416D01*
X0044657Y0016336D01*
X0044534Y0016259D01*
X0044408Y0016186D01*
X0044280Y0016116D01*
X0044151Y0016050D01*
X0044020Y0015987D01*
X0043887Y0015928D01*
X0043752Y0015873D01*
X0043617Y0015821D01*
X0043479Y0015773D01*
X0043341Y0015729D01*
X0043201Y0015689D01*
X0043060Y0015652D01*
X0042919Y0015619D01*
X0042776Y0015591D01*
X0042633Y0015566D01*
X0042489Y0015545D01*
X0042344Y0015528D01*
X0042200Y0015515D01*
X0042054Y0015506D01*
X0041909Y0015501D01*
X0041764Y0015500D01*
X0041618Y0015503D01*
X0041473Y0015510D01*
X0041328Y0015521D01*
X0041183Y0015536D01*
X0041039Y0015555D01*
X0040896Y0015578D01*
X0040753Y0015605D01*
X0040611Y0015635D01*
X0040469Y0015670D01*
X0040329Y0015708D01*
X0040190Y0015750D01*
X0040052Y0015797D01*
X0039915Y0015846D01*
X0039780Y0015900D01*
X0039647Y0015957D01*
X0039514Y0016018D01*
X0039384Y0016083D01*
X0039256Y0016151D01*
X0039129Y0016222D01*
X0039004Y0016297D01*
X0038882Y0016376D01*
X0038762Y0016457D01*
X0038644Y0016542D01*
X0038528Y0016631D01*
X0038415Y0016722D01*
X0038304Y0016816D01*
X0038196Y0016914D01*
X0038091Y0017014D01*
X0037989Y0017117D01*
X0037889Y0017223D01*
X0037792Y0017332D01*
X0037699Y0017443D01*
X0037608Y0017557D01*
X0037521Y0017673D01*
X0037437Y0017792D01*
X0037356Y0017912D01*
X0037278Y0018035D01*
X0037204Y0018161D01*
X0037133Y0018288D01*
X0037066Y0018417D01*
X0037003Y0018547D01*
X0036943Y0018680D01*
X0036886Y0018814D01*
X0036834Y0018949D01*
X0036785Y0019086D01*
X0036740Y0019225D01*
X0036698Y0019364D01*
X0036661Y0019504D01*
X0036627Y0019646D01*
X0036597Y0019788D01*
X0036572Y0019931D01*
X0036550Y0020075D01*
X0036532Y0020219D01*
X0036518Y0020364D01*
X0036508Y0020509D01*
X0036502Y0020655D01*
X0036500Y0020800D01*
X0135500Y0020800D02*
X0135502Y0020945D01*
X0135508Y0021091D01*
X0135518Y0021236D01*
X0135532Y0021381D01*
X0135550Y0021525D01*
X0135572Y0021669D01*
X0135597Y0021812D01*
X0135627Y0021954D01*
X0135661Y0022096D01*
X0135698Y0022236D01*
X0135740Y0022375D01*
X0135785Y0022514D01*
X0135834Y0022651D01*
X0135886Y0022786D01*
X0135943Y0022920D01*
X0136003Y0023053D01*
X0136066Y0023183D01*
X0136133Y0023312D01*
X0136204Y0023439D01*
X0136278Y0023565D01*
X0136356Y0023688D01*
X0136437Y0023808D01*
X0136521Y0023927D01*
X0136608Y0024043D01*
X0136699Y0024157D01*
X0136792Y0024268D01*
X0136889Y0024377D01*
X0136989Y0024483D01*
X0137091Y0024586D01*
X0137196Y0024686D01*
X0137304Y0024784D01*
X0137415Y0024878D01*
X0137528Y0024969D01*
X0137644Y0025058D01*
X0137762Y0025143D01*
X0137882Y0025224D01*
X0138004Y0025303D01*
X0138129Y0025378D01*
X0138256Y0025449D01*
X0138384Y0025517D01*
X0138514Y0025582D01*
X0138647Y0025643D01*
X0138780Y0025700D01*
X0138915Y0025754D01*
X0139052Y0025803D01*
X0139190Y0025850D01*
X0139329Y0025892D01*
X0139469Y0025930D01*
X0139611Y0025965D01*
X0139753Y0025995D01*
X0139896Y0026022D01*
X0140039Y0026045D01*
X0140183Y0026064D01*
X0140328Y0026079D01*
X0140473Y0026090D01*
X0140618Y0026097D01*
X0140764Y0026100D01*
X0140909Y0026099D01*
X0141054Y0026094D01*
X0141200Y0026085D01*
X0141344Y0026072D01*
X0141489Y0026055D01*
X0141633Y0026034D01*
X0141776Y0026009D01*
X0141919Y0025981D01*
X0142060Y0025948D01*
X0142201Y0025911D01*
X0142341Y0025871D01*
X0142479Y0025827D01*
X0142617Y0025779D01*
X0142752Y0025727D01*
X0142887Y0025672D01*
X0143020Y0025613D01*
X0143151Y0025550D01*
X0143280Y0025484D01*
X0143408Y0025414D01*
X0143534Y0025341D01*
X0143657Y0025264D01*
X0143778Y0025184D01*
X0143898Y0025101D01*
X0144014Y0025014D01*
X0144129Y0024924D01*
X0144241Y0024831D01*
X0144350Y0024735D01*
X0144457Y0024637D01*
X0144560Y0024535D01*
X0144662Y0024430D01*
X0144760Y0024323D01*
X0144855Y0024213D01*
X0144947Y0024100D01*
X0145036Y0023985D01*
X0145122Y0023868D01*
X0145204Y0023748D01*
X0145283Y0023626D01*
X0145359Y0023502D01*
X0145432Y0023376D01*
X0145501Y0023248D01*
X0145566Y0023118D01*
X0145628Y0022987D01*
X0145686Y0022853D01*
X0145741Y0022719D01*
X0145791Y0022582D01*
X0145838Y0022445D01*
X0145882Y0022306D01*
X0145921Y0022166D01*
X0145957Y0022025D01*
X0145988Y0021883D01*
X0146016Y0021740D01*
X0146040Y0021597D01*
X0146060Y0021453D01*
X0146076Y0021308D01*
X0146088Y0021163D01*
X0146096Y0021018D01*
X0146100Y0020873D01*
X0146100Y0020727D01*
X0146096Y0020582D01*
X0146088Y0020437D01*
X0146076Y0020292D01*
X0146060Y0020147D01*
X0146040Y0020003D01*
X0146016Y0019860D01*
X0145988Y0019717D01*
X0145957Y0019575D01*
X0145921Y0019434D01*
X0145882Y0019294D01*
X0145838Y0019155D01*
X0145791Y0019018D01*
X0145741Y0018881D01*
X0145686Y0018747D01*
X0145628Y0018613D01*
X0145566Y0018482D01*
X0145501Y0018352D01*
X0145432Y0018224D01*
X0145359Y0018098D01*
X0145283Y0017974D01*
X0145204Y0017852D01*
X0145122Y0017732D01*
X0145036Y0017615D01*
X0144947Y0017500D01*
X0144855Y0017387D01*
X0144760Y0017277D01*
X0144662Y0017170D01*
X0144560Y0017065D01*
X0144457Y0016963D01*
X0144350Y0016865D01*
X0144241Y0016769D01*
X0144129Y0016676D01*
X0144014Y0016586D01*
X0143898Y0016499D01*
X0143778Y0016416D01*
X0143657Y0016336D01*
X0143534Y0016259D01*
X0143408Y0016186D01*
X0143280Y0016116D01*
X0143151Y0016050D01*
X0143020Y0015987D01*
X0142887Y0015928D01*
X0142752Y0015873D01*
X0142617Y0015821D01*
X0142479Y0015773D01*
X0142341Y0015729D01*
X0142201Y0015689D01*
X0142060Y0015652D01*
X0141919Y0015619D01*
X0141776Y0015591D01*
X0141633Y0015566D01*
X0141489Y0015545D01*
X0141344Y0015528D01*
X0141200Y0015515D01*
X0141054Y0015506D01*
X0140909Y0015501D01*
X0140764Y0015500D01*
X0140618Y0015503D01*
X0140473Y0015510D01*
X0140328Y0015521D01*
X0140183Y0015536D01*
X0140039Y0015555D01*
X0139896Y0015578D01*
X0139753Y0015605D01*
X0139611Y0015635D01*
X0139469Y0015670D01*
X0139329Y0015708D01*
X0139190Y0015750D01*
X0139052Y0015797D01*
X0138915Y0015846D01*
X0138780Y0015900D01*
X0138647Y0015957D01*
X0138514Y0016018D01*
X0138384Y0016083D01*
X0138256Y0016151D01*
X0138129Y0016222D01*
X0138004Y0016297D01*
X0137882Y0016376D01*
X0137762Y0016457D01*
X0137644Y0016542D01*
X0137528Y0016631D01*
X0137415Y0016722D01*
X0137304Y0016816D01*
X0137196Y0016914D01*
X0137091Y0017014D01*
X0136989Y0017117D01*
X0136889Y0017223D01*
X0136792Y0017332D01*
X0136699Y0017443D01*
X0136608Y0017557D01*
X0136521Y0017673D01*
X0136437Y0017792D01*
X0136356Y0017912D01*
X0136278Y0018035D01*
X0136204Y0018161D01*
X0136133Y0018288D01*
X0136066Y0018417D01*
X0136003Y0018547D01*
X0135943Y0018680D01*
X0135886Y0018814D01*
X0135834Y0018949D01*
X0135785Y0019086D01*
X0135740Y0019225D01*
X0135698Y0019364D01*
X0135661Y0019504D01*
X0135627Y0019646D01*
X0135597Y0019788D01*
X0135572Y0019931D01*
X0135550Y0020075D01*
X0135532Y0020219D01*
X0135518Y0020364D01*
X0135508Y0020509D01*
X0135502Y0020655D01*
X0135500Y0020800D01*
X0135500Y0294800D02*
X0135502Y0294945D01*
X0135508Y0295091D01*
X0135518Y0295236D01*
X0135532Y0295381D01*
X0135550Y0295525D01*
X0135572Y0295669D01*
X0135597Y0295812D01*
X0135627Y0295954D01*
X0135661Y0296096D01*
X0135698Y0296236D01*
X0135740Y0296375D01*
X0135785Y0296514D01*
X0135834Y0296651D01*
X0135886Y0296786D01*
X0135943Y0296920D01*
X0136003Y0297053D01*
X0136066Y0297183D01*
X0136133Y0297312D01*
X0136204Y0297439D01*
X0136278Y0297565D01*
X0136356Y0297688D01*
X0136437Y0297808D01*
X0136521Y0297927D01*
X0136608Y0298043D01*
X0136699Y0298157D01*
X0136792Y0298268D01*
X0136889Y0298377D01*
X0136989Y0298483D01*
X0137091Y0298586D01*
X0137196Y0298686D01*
X0137304Y0298784D01*
X0137415Y0298878D01*
X0137528Y0298969D01*
X0137644Y0299058D01*
X0137762Y0299143D01*
X0137882Y0299224D01*
X0138004Y0299303D01*
X0138129Y0299378D01*
X0138256Y0299449D01*
X0138384Y0299517D01*
X0138514Y0299582D01*
X0138647Y0299643D01*
X0138780Y0299700D01*
X0138915Y0299754D01*
X0139052Y0299803D01*
X0139190Y0299850D01*
X0139329Y0299892D01*
X0139469Y0299930D01*
X0139611Y0299965D01*
X0139753Y0299995D01*
X0139896Y0300022D01*
X0140039Y0300045D01*
X0140183Y0300064D01*
X0140328Y0300079D01*
X0140473Y0300090D01*
X0140618Y0300097D01*
X0140764Y0300100D01*
X0140909Y0300099D01*
X0141054Y0300094D01*
X0141200Y0300085D01*
X0141344Y0300072D01*
X0141489Y0300055D01*
X0141633Y0300034D01*
X0141776Y0300009D01*
X0141919Y0299981D01*
X0142060Y0299948D01*
X0142201Y0299911D01*
X0142341Y0299871D01*
X0142479Y0299827D01*
X0142617Y0299779D01*
X0142752Y0299727D01*
X0142887Y0299672D01*
X0143020Y0299613D01*
X0143151Y0299550D01*
X0143280Y0299484D01*
X0143408Y0299414D01*
X0143534Y0299341D01*
X0143657Y0299264D01*
X0143778Y0299184D01*
X0143898Y0299101D01*
X0144014Y0299014D01*
X0144129Y0298924D01*
X0144241Y0298831D01*
X0144350Y0298735D01*
X0144457Y0298637D01*
X0144560Y0298535D01*
X0144662Y0298430D01*
X0144760Y0298323D01*
X0144855Y0298213D01*
X0144947Y0298100D01*
X0145036Y0297985D01*
X0145122Y0297868D01*
X0145204Y0297748D01*
X0145283Y0297626D01*
X0145359Y0297502D01*
X0145432Y0297376D01*
X0145501Y0297248D01*
X0145566Y0297118D01*
X0145628Y0296987D01*
X0145686Y0296853D01*
X0145741Y0296719D01*
X0145791Y0296582D01*
X0145838Y0296445D01*
X0145882Y0296306D01*
X0145921Y0296166D01*
X0145957Y0296025D01*
X0145988Y0295883D01*
X0146016Y0295740D01*
X0146040Y0295597D01*
X0146060Y0295453D01*
X0146076Y0295308D01*
X0146088Y0295163D01*
X0146096Y0295018D01*
X0146100Y0294873D01*
X0146100Y0294727D01*
X0146096Y0294582D01*
X0146088Y0294437D01*
X0146076Y0294292D01*
X0146060Y0294147D01*
X0146040Y0294003D01*
X0146016Y0293860D01*
X0145988Y0293717D01*
X0145957Y0293575D01*
X0145921Y0293434D01*
X0145882Y0293294D01*
X0145838Y0293155D01*
X0145791Y0293018D01*
X0145741Y0292881D01*
X0145686Y0292747D01*
X0145628Y0292613D01*
X0145566Y0292482D01*
X0145501Y0292352D01*
X0145432Y0292224D01*
X0145359Y0292098D01*
X0145283Y0291974D01*
X0145204Y0291852D01*
X0145122Y0291732D01*
X0145036Y0291615D01*
X0144947Y0291500D01*
X0144855Y0291387D01*
X0144760Y0291277D01*
X0144662Y0291170D01*
X0144560Y0291065D01*
X0144457Y0290963D01*
X0144350Y0290865D01*
X0144241Y0290769D01*
X0144129Y0290676D01*
X0144014Y0290586D01*
X0143898Y0290499D01*
X0143778Y0290416D01*
X0143657Y0290336D01*
X0143534Y0290259D01*
X0143408Y0290186D01*
X0143280Y0290116D01*
X0143151Y0290050D01*
X0143020Y0289987D01*
X0142887Y0289928D01*
X0142752Y0289873D01*
X0142617Y0289821D01*
X0142479Y0289773D01*
X0142341Y0289729D01*
X0142201Y0289689D01*
X0142060Y0289652D01*
X0141919Y0289619D01*
X0141776Y0289591D01*
X0141633Y0289566D01*
X0141489Y0289545D01*
X0141344Y0289528D01*
X0141200Y0289515D01*
X0141054Y0289506D01*
X0140909Y0289501D01*
X0140764Y0289500D01*
X0140618Y0289503D01*
X0140473Y0289510D01*
X0140328Y0289521D01*
X0140183Y0289536D01*
X0140039Y0289555D01*
X0139896Y0289578D01*
X0139753Y0289605D01*
X0139611Y0289635D01*
X0139469Y0289670D01*
X0139329Y0289708D01*
X0139190Y0289750D01*
X0139052Y0289797D01*
X0138915Y0289846D01*
X0138780Y0289900D01*
X0138647Y0289957D01*
X0138514Y0290018D01*
X0138384Y0290083D01*
X0138256Y0290151D01*
X0138129Y0290222D01*
X0138004Y0290297D01*
X0137882Y0290376D01*
X0137762Y0290457D01*
X0137644Y0290542D01*
X0137528Y0290631D01*
X0137415Y0290722D01*
X0137304Y0290816D01*
X0137196Y0290914D01*
X0137091Y0291014D01*
X0136989Y0291117D01*
X0136889Y0291223D01*
X0136792Y0291332D01*
X0136699Y0291443D01*
X0136608Y0291557D01*
X0136521Y0291673D01*
X0136437Y0291792D01*
X0136356Y0291912D01*
X0136278Y0292035D01*
X0136204Y0292161D01*
X0136133Y0292288D01*
X0136066Y0292417D01*
X0136003Y0292547D01*
X0135943Y0292680D01*
X0135886Y0292814D01*
X0135834Y0292949D01*
X0135785Y0293086D01*
X0135740Y0293225D01*
X0135698Y0293364D01*
X0135661Y0293504D01*
X0135627Y0293646D01*
X0135597Y0293788D01*
X0135572Y0293931D01*
X0135550Y0294075D01*
X0135532Y0294219D01*
X0135518Y0294364D01*
X0135508Y0294509D01*
X0135502Y0294655D01*
X0135500Y0294800D01*
X0036500Y0294800D02*
X0036502Y0294945D01*
X0036508Y0295091D01*
X0036518Y0295236D01*
X0036532Y0295381D01*
X0036550Y0295525D01*
X0036572Y0295669D01*
X0036597Y0295812D01*
X0036627Y0295954D01*
X0036661Y0296096D01*
X0036698Y0296236D01*
X0036740Y0296375D01*
X0036785Y0296514D01*
X0036834Y0296651D01*
X0036886Y0296786D01*
X0036943Y0296920D01*
X0037003Y0297053D01*
X0037066Y0297183D01*
X0037133Y0297312D01*
X0037204Y0297439D01*
X0037278Y0297565D01*
X0037356Y0297688D01*
X0037437Y0297808D01*
X0037521Y0297927D01*
X0037608Y0298043D01*
X0037699Y0298157D01*
X0037792Y0298268D01*
X0037889Y0298377D01*
X0037989Y0298483D01*
X0038091Y0298586D01*
X0038196Y0298686D01*
X0038304Y0298784D01*
X0038415Y0298878D01*
X0038528Y0298969D01*
X0038644Y0299058D01*
X0038762Y0299143D01*
X0038882Y0299224D01*
X0039004Y0299303D01*
X0039129Y0299378D01*
X0039256Y0299449D01*
X0039384Y0299517D01*
X0039514Y0299582D01*
X0039647Y0299643D01*
X0039780Y0299700D01*
X0039915Y0299754D01*
X0040052Y0299803D01*
X0040190Y0299850D01*
X0040329Y0299892D01*
X0040469Y0299930D01*
X0040611Y0299965D01*
X0040753Y0299995D01*
X0040896Y0300022D01*
X0041039Y0300045D01*
X0041183Y0300064D01*
X0041328Y0300079D01*
X0041473Y0300090D01*
X0041618Y0300097D01*
X0041764Y0300100D01*
X0041909Y0300099D01*
X0042054Y0300094D01*
X0042200Y0300085D01*
X0042344Y0300072D01*
X0042489Y0300055D01*
X0042633Y0300034D01*
X0042776Y0300009D01*
X0042919Y0299981D01*
X0043060Y0299948D01*
X0043201Y0299911D01*
X0043341Y0299871D01*
X0043479Y0299827D01*
X0043617Y0299779D01*
X0043752Y0299727D01*
X0043887Y0299672D01*
X0044020Y0299613D01*
X0044151Y0299550D01*
X0044280Y0299484D01*
X0044408Y0299414D01*
X0044534Y0299341D01*
X0044657Y0299264D01*
X0044778Y0299184D01*
X0044898Y0299101D01*
X0045014Y0299014D01*
X0045129Y0298924D01*
X0045241Y0298831D01*
X0045350Y0298735D01*
X0045457Y0298637D01*
X0045560Y0298535D01*
X0045662Y0298430D01*
X0045760Y0298323D01*
X0045855Y0298213D01*
X0045947Y0298100D01*
X0046036Y0297985D01*
X0046122Y0297868D01*
X0046204Y0297748D01*
X0046283Y0297626D01*
X0046359Y0297502D01*
X0046432Y0297376D01*
X0046501Y0297248D01*
X0046566Y0297118D01*
X0046628Y0296987D01*
X0046686Y0296853D01*
X0046741Y0296719D01*
X0046791Y0296582D01*
X0046838Y0296445D01*
X0046882Y0296306D01*
X0046921Y0296166D01*
X0046957Y0296025D01*
X0046988Y0295883D01*
X0047016Y0295740D01*
X0047040Y0295597D01*
X0047060Y0295453D01*
X0047076Y0295308D01*
X0047088Y0295163D01*
X0047096Y0295018D01*
X0047100Y0294873D01*
X0047100Y0294727D01*
X0047096Y0294582D01*
X0047088Y0294437D01*
X0047076Y0294292D01*
X0047060Y0294147D01*
X0047040Y0294003D01*
X0047016Y0293860D01*
X0046988Y0293717D01*
X0046957Y0293575D01*
X0046921Y0293434D01*
X0046882Y0293294D01*
X0046838Y0293155D01*
X0046791Y0293018D01*
X0046741Y0292881D01*
X0046686Y0292747D01*
X0046628Y0292613D01*
X0046566Y0292482D01*
X0046501Y0292352D01*
X0046432Y0292224D01*
X0046359Y0292098D01*
X0046283Y0291974D01*
X0046204Y0291852D01*
X0046122Y0291732D01*
X0046036Y0291615D01*
X0045947Y0291500D01*
X0045855Y0291387D01*
X0045760Y0291277D01*
X0045662Y0291170D01*
X0045560Y0291065D01*
X0045457Y0290963D01*
X0045350Y0290865D01*
X0045241Y0290769D01*
X0045129Y0290676D01*
X0045014Y0290586D01*
X0044898Y0290499D01*
X0044778Y0290416D01*
X0044657Y0290336D01*
X0044534Y0290259D01*
X0044408Y0290186D01*
X0044280Y0290116D01*
X0044151Y0290050D01*
X0044020Y0289987D01*
X0043887Y0289928D01*
X0043752Y0289873D01*
X0043617Y0289821D01*
X0043479Y0289773D01*
X0043341Y0289729D01*
X0043201Y0289689D01*
X0043060Y0289652D01*
X0042919Y0289619D01*
X0042776Y0289591D01*
X0042633Y0289566D01*
X0042489Y0289545D01*
X0042344Y0289528D01*
X0042200Y0289515D01*
X0042054Y0289506D01*
X0041909Y0289501D01*
X0041764Y0289500D01*
X0041618Y0289503D01*
X0041473Y0289510D01*
X0041328Y0289521D01*
X0041183Y0289536D01*
X0041039Y0289555D01*
X0040896Y0289578D01*
X0040753Y0289605D01*
X0040611Y0289635D01*
X0040469Y0289670D01*
X0040329Y0289708D01*
X0040190Y0289750D01*
X0040052Y0289797D01*
X0039915Y0289846D01*
X0039780Y0289900D01*
X0039647Y0289957D01*
X0039514Y0290018D01*
X0039384Y0290083D01*
X0039256Y0290151D01*
X0039129Y0290222D01*
X0039004Y0290297D01*
X0038882Y0290376D01*
X0038762Y0290457D01*
X0038644Y0290542D01*
X0038528Y0290631D01*
X0038415Y0290722D01*
X0038304Y0290816D01*
X0038196Y0290914D01*
X0038091Y0291014D01*
X0037989Y0291117D01*
X0037889Y0291223D01*
X0037792Y0291332D01*
X0037699Y0291443D01*
X0037608Y0291557D01*
X0037521Y0291673D01*
X0037437Y0291792D01*
X0037356Y0291912D01*
X0037278Y0292035D01*
X0037204Y0292161D01*
X0037133Y0292288D01*
X0037066Y0292417D01*
X0037003Y0292547D01*
X0036943Y0292680D01*
X0036886Y0292814D01*
X0036834Y0292949D01*
X0036785Y0293086D01*
X0036740Y0293225D01*
X0036698Y0293364D01*
X0036661Y0293504D01*
X0036627Y0293646D01*
X0036597Y0293788D01*
X0036572Y0293931D01*
X0036550Y0294075D01*
X0036532Y0294219D01*
X0036518Y0294364D01*
X0036508Y0294509D01*
X0036502Y0294655D01*
X0036500Y0294800D01*
D11*
X0082800Y0240146D03*
X0082800Y0233454D03*
X0090800Y0233454D03*
X0090800Y0240146D03*
X0090800Y0265454D03*
X0090800Y0272146D03*
X0106800Y0272146D03*
X0106800Y0265454D03*
X0135800Y0156146D03*
X0135800Y0149454D03*
X0144800Y0149454D03*
X0144800Y0156146D03*
X0153800Y0156146D03*
X0153800Y0149454D03*
D12*
X0103312Y0206800D03*
X0103312Y0214800D03*
X0092288Y0214800D03*
X0092288Y0206800D03*
D13*
X0094454Y0198800D03*
X0101146Y0198800D03*
X0103454Y0237800D03*
X0110146Y0237800D03*
X0034446Y0254900D03*
X0027754Y0254900D03*
D14*
X0082800Y0149800D03*
X0082800Y0114800D03*
X0082800Y0079800D03*
X0116800Y0079800D03*
X0116800Y0114800D03*
X0116800Y0149800D03*
D15*
X0098875Y0220422D02*
X0098875Y0223178D01*
X0101631Y0223178D01*
X0101631Y0220422D01*
X0098875Y0220422D01*
X0098875Y0221602D02*
X0101631Y0221602D01*
X0101631Y0222782D02*
X0098875Y0222782D01*
X0098875Y0225422D02*
X0098875Y0228178D01*
X0101631Y0228178D01*
X0101631Y0225422D01*
X0098875Y0225422D01*
X0098875Y0226602D02*
X0101631Y0226602D01*
X0101631Y0227782D02*
X0098875Y0227782D01*
X0091969Y0228178D02*
X0091969Y0225422D01*
X0091969Y0228178D02*
X0094725Y0228178D01*
X0094725Y0225422D01*
X0091969Y0225422D01*
X0091969Y0226602D02*
X0094725Y0226602D01*
X0094725Y0227782D02*
X0091969Y0227782D01*
X0091969Y0223178D02*
X0091969Y0220422D01*
X0091969Y0223178D02*
X0094725Y0223178D01*
X0094725Y0220422D01*
X0091969Y0220422D01*
X0091969Y0221602D02*
X0094725Y0221602D01*
X0094725Y0222782D02*
X0091969Y0222782D01*
D16*
X0027300Y0263547D03*
X0027300Y0269453D03*
D17*
X0068800Y0053800D03*
X0098800Y0053800D03*
X0128800Y0053800D03*
D18*
X0128800Y0253800D03*
X0068800Y0253800D03*
D19*
X0083052Y0249863D03*
X0083052Y0257737D03*
X0090926Y0257737D03*
X0090926Y0249863D03*
X0098800Y0249863D03*
X0098800Y0257737D03*
X0106674Y0257737D03*
X0106674Y0249863D03*
X0114548Y0249863D03*
X0114548Y0257737D03*
D20*
X0184800Y0260800D03*
X0184800Y0250800D03*
X0184800Y0240800D03*
X0184800Y0230800D03*
X0184800Y0220800D03*
X0184800Y0210800D03*
X0184800Y0200800D03*
X0184800Y0190800D03*
X0184800Y0180800D03*
X0184800Y0170800D03*
X0184800Y0160800D03*
X0184800Y0150800D03*
X0184800Y0140800D03*
X0184800Y0130800D03*
X0184800Y0120800D03*
X0184800Y0110800D03*
X0184800Y0100800D03*
X0184800Y0090800D03*
X0184800Y0080800D03*
X0184800Y0070800D03*
X0184800Y0060800D03*
X0184800Y0050800D03*
X0184800Y0040800D03*
X0184800Y0030800D03*
X0194800Y0030800D03*
X0194800Y0040800D03*
X0194800Y0050800D03*
X0194800Y0060800D03*
X0194800Y0070800D03*
X0194800Y0080800D03*
X0194800Y0090800D03*
X0194800Y0100800D03*
X0194800Y0110800D03*
X0194800Y0120800D03*
X0194800Y0130800D03*
X0194800Y0140800D03*
X0194800Y0150800D03*
X0194800Y0160800D03*
X0194800Y0170800D03*
X0194800Y0180800D03*
X0194800Y0190800D03*
X0194800Y0200800D03*
X0194800Y0210800D03*
X0194800Y0220800D03*
X0194800Y0230800D03*
X0194800Y0240800D03*
X0194800Y0250800D03*
X0194800Y0260800D03*
X0194800Y0270800D03*
X0184800Y0270800D03*
X0184800Y0290800D03*
X0184800Y0300800D03*
X0194800Y0300800D03*
X0194800Y0290800D03*
D21*
X0189800Y0295800D02*
X0194800Y0300800D01*
X0189800Y0295800D02*
X0182800Y0295800D01*
X0167800Y0280800D01*
X0167800Y0274800D01*
X0123800Y0230800D01*
X0101800Y0230800D01*
X0098800Y0233800D01*
X0098800Y0249863D01*
X0098800Y0257737D02*
X0098800Y0279800D01*
X0103800Y0284800D01*
X0164800Y0284800D01*
X0180800Y0300800D01*
X0184800Y0300800D01*
X0184800Y0290800D02*
X0171800Y0277800D01*
X0171800Y0205800D01*
X0154800Y0188800D01*
X0033800Y0188800D01*
X0029800Y0184800D01*
X0029800Y0038800D01*
X0034800Y0033800D01*
X0076800Y0033800D01*
X0096800Y0053800D01*
X0098800Y0053800D01*
X0103699Y0057952D02*
X0124043Y0057952D01*
X0123995Y0057904D02*
X0123412Y0057102D01*
X0122962Y0056218D01*
X0122655Y0055275D01*
X0122532Y0054500D01*
X0128100Y0054500D01*
X0128100Y0060068D01*
X0127325Y0059945D01*
X0126382Y0059638D01*
X0125498Y0059188D01*
X0124696Y0058605D01*
X0123995Y0057904D01*
X0123031Y0056354D02*
X0104669Y0056354D01*
X0104226Y0057425D02*
X0102425Y0059226D01*
X0101800Y0059485D01*
X0101800Y0149800D01*
X0116000Y0149800D01*
X0116000Y0149000D01*
X0106000Y0149000D01*
X0106000Y0145629D01*
X0106089Y0145298D01*
X0106260Y0145002D01*
X0106502Y0144760D01*
X0106798Y0144589D01*
X0107129Y0144500D01*
X0116000Y0144500D01*
X0116000Y0149000D01*
X0117600Y0149000D01*
X0117600Y0149800D01*
X0132531Y0149800D01*
X0132531Y0149638D01*
X0135616Y0149638D01*
X0135616Y0149269D01*
X0135984Y0149269D01*
X0135984Y0145988D01*
X0137940Y0145988D01*
X0138270Y0146077D01*
X0138567Y0146248D01*
X0138809Y0146490D01*
X0138980Y0146786D01*
X0139068Y0147117D01*
X0139068Y0149269D01*
X0135984Y0149269D01*
X0135984Y0149638D01*
X0139068Y0149638D01*
X0139068Y0149800D01*
X0141531Y0149800D01*
X0141531Y0149638D01*
X0144616Y0149638D01*
X0144616Y0149269D01*
X0144984Y0149269D01*
X0144984Y0145988D01*
X0146940Y0145988D01*
X0147270Y0146077D01*
X0147567Y0146248D01*
X0147809Y0146490D01*
X0147980Y0146786D01*
X0148068Y0147117D01*
X0148068Y0149269D01*
X0144984Y0149269D01*
X0144984Y0149638D01*
X0148068Y0149638D01*
X0148068Y0149800D01*
X0150531Y0149800D01*
X0150531Y0149638D01*
X0153616Y0149638D01*
X0153616Y0149269D01*
X0153984Y0149269D01*
X0153984Y0145988D01*
X0155940Y0145988D01*
X0156270Y0146077D01*
X0156567Y0146248D01*
X0156809Y0146490D01*
X0156980Y0146786D01*
X0157068Y0147117D01*
X0157068Y0149269D01*
X0153984Y0149269D01*
X0153984Y0149638D01*
X0157068Y0149638D01*
X0157068Y0149800D01*
X0181055Y0149800D01*
X0181080Y0149672D01*
X0181372Y0148968D01*
X0181795Y0148334D01*
X0182334Y0147795D01*
X0182968Y0147372D01*
X0183672Y0147080D01*
X0184419Y0146931D01*
X0184616Y0146931D01*
X0184616Y0149800D01*
X0184984Y0149800D01*
X0184984Y0146931D01*
X0185181Y0146931D01*
X0185928Y0147080D01*
X0186632Y0147372D01*
X0187266Y0147795D01*
X0187402Y0147931D01*
X0187475Y0147821D01*
X0187715Y0147773D01*
X0187889Y0147600D01*
X0187900Y0147600D01*
X0188800Y0145800D01*
X0197582Y0145800D01*
X0197715Y0145773D01*
X0197889Y0145600D01*
X0198582Y0145600D01*
X0198800Y0145556D01*
X0198800Y0122800D01*
X0198267Y0122800D01*
X0198164Y0123048D01*
X0197048Y0124164D01*
X0195589Y0124768D01*
X0194011Y0124768D01*
X0192552Y0124164D01*
X0191436Y0123048D01*
X0191333Y0122800D01*
X0188267Y0122800D01*
X0188164Y0123048D01*
X0187048Y0124164D01*
X0185589Y0124768D01*
X0184011Y0124768D01*
X0182552Y0124164D01*
X0181436Y0123048D01*
X0181333Y0122800D01*
X0178800Y0122800D01*
X0178800Y0037800D01*
X0101800Y0037800D01*
X0101800Y0048115D01*
X0102425Y0048374D01*
X0104226Y0050175D01*
X0105200Y0052527D01*
X0105200Y0055073D01*
X0104226Y0057425D01*
X0105200Y0054755D02*
X0122573Y0054755D01*
X0122532Y0053100D02*
X0122655Y0052325D01*
X0122962Y0051382D01*
X0123412Y0050498D01*
X0123995Y0049696D01*
X0124696Y0048995D01*
X0125498Y0048412D01*
X0126382Y0047962D01*
X0127325Y0047655D01*
X0128100Y0047532D01*
X0128100Y0053100D01*
X0122532Y0053100D01*
X0122904Y0051558D02*
X0104799Y0051558D01*
X0105200Y0053157D02*
X0128100Y0053157D01*
X0128100Y0053100D02*
X0128100Y0054500D01*
X0129500Y0054500D01*
X0129500Y0060068D01*
X0130275Y0059945D01*
X0131218Y0059638D01*
X0132102Y0059188D01*
X0132904Y0058605D01*
X0133605Y0057904D01*
X0134188Y0057102D01*
X0134638Y0056218D01*
X0134945Y0055275D01*
X0135068Y0054500D01*
X0129500Y0054500D01*
X0129500Y0053100D01*
X0135068Y0053100D01*
X0134945Y0052325D01*
X0134638Y0051382D01*
X0134188Y0050498D01*
X0133605Y0049696D01*
X0132904Y0048995D01*
X0132102Y0048412D01*
X0131218Y0047962D01*
X0130275Y0047655D01*
X0129500Y0047532D01*
X0129500Y0053100D01*
X0128100Y0053100D01*
X0128800Y0053800D02*
X0117800Y0064800D01*
X0117600Y0074500D02*
X0126471Y0074500D01*
X0126802Y0074589D01*
X0127098Y0074760D01*
X0127340Y0075002D01*
X0127511Y0075298D01*
X0127600Y0075629D01*
X0127600Y0079000D01*
X0117600Y0079000D01*
X0117600Y0080600D01*
X0116000Y0080600D01*
X0116000Y0085100D01*
X0107129Y0085100D01*
X0106798Y0085011D01*
X0106502Y0084840D01*
X0106260Y0084598D01*
X0106089Y0084302D01*
X0106000Y0083971D01*
X0106000Y0080600D01*
X0116000Y0080600D01*
X0116000Y0079000D01*
X0106000Y0079000D01*
X0106000Y0075629D01*
X0106089Y0075298D01*
X0106260Y0075002D01*
X0106502Y0074760D01*
X0106798Y0074589D01*
X0107129Y0074500D01*
X0116000Y0074500D01*
X0116000Y0079000D01*
X0117600Y0079000D01*
X0117600Y0074500D01*
X0117600Y0075536D02*
X0116000Y0075536D01*
X0116000Y0077134D02*
X0117600Y0077134D01*
X0117600Y0078733D02*
X0116000Y0078733D01*
X0116000Y0080332D02*
X0101800Y0080332D01*
X0101800Y0081930D02*
X0106000Y0081930D01*
X0106000Y0083529D02*
X0101800Y0083529D01*
X0101800Y0085127D02*
X0178800Y0085127D01*
X0178800Y0083529D02*
X0127600Y0083529D01*
X0127600Y0083971D02*
X0127511Y0084302D01*
X0127340Y0084598D01*
X0127098Y0084840D01*
X0126802Y0085011D01*
X0126471Y0085100D01*
X0117600Y0085100D01*
X0117600Y0080600D01*
X0127600Y0080600D01*
X0127600Y0083971D01*
X0127600Y0081930D02*
X0178800Y0081930D01*
X0178800Y0080332D02*
X0117600Y0080332D01*
X0117600Y0081930D02*
X0116000Y0081930D01*
X0116000Y0083529D02*
X0117600Y0083529D01*
X0127600Y0078733D02*
X0178800Y0078733D01*
X0178800Y0077134D02*
X0127600Y0077134D01*
X0127575Y0075536D02*
X0178800Y0075536D01*
X0178800Y0073937D02*
X0101800Y0073937D01*
X0101800Y0072339D02*
X0178800Y0072339D01*
X0178800Y0070740D02*
X0101800Y0070740D01*
X0101800Y0069142D02*
X0178800Y0069142D01*
X0178800Y0067543D02*
X0101800Y0067543D01*
X0101800Y0065945D02*
X0178800Y0065945D01*
X0178800Y0064346D02*
X0101800Y0064346D01*
X0101800Y0062748D02*
X0178800Y0062748D01*
X0178800Y0061149D02*
X0101800Y0061149D01*
X0101800Y0059551D02*
X0126210Y0059551D01*
X0128100Y0059551D02*
X0129500Y0059551D01*
X0129500Y0057952D02*
X0128100Y0057952D01*
X0128100Y0056354D02*
X0129500Y0056354D01*
X0129500Y0054755D02*
X0128100Y0054755D01*
X0129500Y0053157D02*
X0178800Y0053157D01*
X0178800Y0054755D02*
X0135027Y0054755D01*
X0134569Y0056354D02*
X0178800Y0056354D01*
X0178800Y0057952D02*
X0133557Y0057952D01*
X0131390Y0059551D02*
X0178800Y0059551D01*
X0178800Y0051558D02*
X0134696Y0051558D01*
X0133797Y0049960D02*
X0178800Y0049960D01*
X0178800Y0048361D02*
X0132003Y0048361D01*
X0129500Y0048361D02*
X0128100Y0048361D01*
X0128100Y0049960D02*
X0129500Y0049960D01*
X0129500Y0051558D02*
X0128100Y0051558D01*
X0125597Y0048361D02*
X0102394Y0048361D01*
X0101800Y0046763D02*
X0178800Y0046763D01*
X0178800Y0045164D02*
X0101800Y0045164D01*
X0101800Y0043566D02*
X0178800Y0043566D01*
X0178800Y0041967D02*
X0101800Y0041967D01*
X0101800Y0040369D02*
X0178800Y0040369D01*
X0178800Y0038770D02*
X0101800Y0038770D01*
X0104011Y0049960D02*
X0123803Y0049960D01*
X0106025Y0075536D02*
X0101800Y0075536D01*
X0101800Y0077134D02*
X0106000Y0077134D01*
X0106000Y0078733D02*
X0101800Y0078733D01*
X0101800Y0086726D02*
X0178800Y0086726D01*
X0178800Y0088324D02*
X0101800Y0088324D01*
X0101800Y0089923D02*
X0178800Y0089923D01*
X0178800Y0091521D02*
X0101800Y0091521D01*
X0101800Y0093120D02*
X0178800Y0093120D01*
X0178800Y0094718D02*
X0101800Y0094718D01*
X0101800Y0096317D02*
X0178800Y0096317D01*
X0178800Y0097915D02*
X0101800Y0097915D01*
X0101800Y0099514D02*
X0178800Y0099514D01*
X0178800Y0101112D02*
X0101800Y0101112D01*
X0101800Y0102711D02*
X0178800Y0102711D01*
X0178800Y0104309D02*
X0101800Y0104309D01*
X0101800Y0105908D02*
X0178800Y0105908D01*
X0178800Y0107506D02*
X0101800Y0107506D01*
X0101800Y0109105D02*
X0178800Y0109105D01*
X0178800Y0110703D02*
X0127600Y0110703D01*
X0127600Y0110629D02*
X0127600Y0114000D01*
X0117600Y0114000D01*
X0117600Y0115600D01*
X0116000Y0115600D01*
X0116000Y0120100D01*
X0107129Y0120100D01*
X0106798Y0120011D01*
X0106502Y0119840D01*
X0106260Y0119598D01*
X0106089Y0119302D01*
X0106000Y0118971D01*
X0106000Y0115600D01*
X0116000Y0115600D01*
X0116000Y0114000D01*
X0106000Y0114000D01*
X0106000Y0110629D01*
X0106089Y0110298D01*
X0106260Y0110002D01*
X0106502Y0109760D01*
X0106798Y0109589D01*
X0107129Y0109500D01*
X0116000Y0109500D01*
X0116000Y0114000D01*
X0117600Y0114000D01*
X0117600Y0109500D01*
X0126471Y0109500D01*
X0126802Y0109589D01*
X0127098Y0109760D01*
X0127340Y0110002D01*
X0127511Y0110298D01*
X0127600Y0110629D01*
X0127600Y0112302D02*
X0178800Y0112302D01*
X0178800Y0113900D02*
X0127600Y0113900D01*
X0127600Y0115600D02*
X0127600Y0118971D01*
X0127511Y0119302D01*
X0127340Y0119598D01*
X0127098Y0119840D01*
X0126802Y0120011D01*
X0126471Y0120100D01*
X0117600Y0120100D01*
X0117600Y0115600D01*
X0127600Y0115600D01*
X0127600Y0117097D02*
X0178800Y0117097D01*
X0178800Y0115499D02*
X0117600Y0115499D01*
X0117600Y0117097D02*
X0116000Y0117097D01*
X0116000Y0115499D02*
X0101800Y0115499D01*
X0101800Y0117097D02*
X0106000Y0117097D01*
X0106000Y0118696D02*
X0101800Y0118696D01*
X0101800Y0120294D02*
X0178800Y0120294D01*
X0178800Y0118696D02*
X0127600Y0118696D01*
X0117600Y0118696D02*
X0116000Y0118696D01*
X0116000Y0113900D02*
X0117600Y0113900D01*
X0117600Y0112302D02*
X0116000Y0112302D01*
X0116000Y0110703D02*
X0117600Y0110703D01*
X0106000Y0110703D02*
X0101800Y0110703D01*
X0101800Y0112302D02*
X0106000Y0112302D01*
X0106000Y0113900D02*
X0101800Y0113900D01*
X0101800Y0121893D02*
X0178800Y0121893D01*
X0181879Y0123491D02*
X0101800Y0123491D01*
X0101800Y0125090D02*
X0198800Y0125090D01*
X0198800Y0126688D02*
X0101800Y0126688D01*
X0101800Y0128287D02*
X0181842Y0128287D01*
X0181795Y0128334D02*
X0182334Y0127795D01*
X0182968Y0127372D01*
X0183672Y0127080D01*
X0184419Y0126931D01*
X0184616Y0126931D01*
X0184616Y0130616D01*
X0184984Y0130616D01*
X0184984Y0126931D01*
X0185181Y0126931D01*
X0185928Y0127080D01*
X0186632Y0127372D01*
X0187266Y0127795D01*
X0187805Y0128334D01*
X0188228Y0128968D01*
X0188520Y0129672D01*
X0188668Y0130419D01*
X0188668Y0130616D01*
X0184984Y0130616D01*
X0184984Y0130984D01*
X0188668Y0130984D01*
X0188668Y0131181D01*
X0188520Y0131928D01*
X0188228Y0132632D01*
X0187805Y0133266D01*
X0187266Y0133805D01*
X0186632Y0134228D01*
X0185928Y0134520D01*
X0185181Y0134668D01*
X0184984Y0134668D01*
X0184984Y0130984D01*
X0184616Y0130984D01*
X0184616Y0130616D01*
X0180931Y0130616D01*
X0180931Y0130419D01*
X0181080Y0129672D01*
X0181372Y0128968D01*
X0181795Y0128334D01*
X0181038Y0129885D02*
X0101800Y0129885D01*
X0101800Y0131484D02*
X0180992Y0131484D01*
X0180931Y0131181D02*
X0180931Y0130984D01*
X0184616Y0130984D01*
X0184616Y0134668D01*
X0184419Y0134668D01*
X0183672Y0134520D01*
X0182968Y0134228D01*
X0182334Y0133805D01*
X0181795Y0133266D01*
X0181372Y0132632D01*
X0181080Y0131928D01*
X0180931Y0131181D01*
X0181672Y0133082D02*
X0101800Y0133082D01*
X0101800Y0134681D02*
X0198800Y0134681D01*
X0198800Y0136279D02*
X0101800Y0136279D01*
X0101800Y0137878D02*
X0182251Y0137878D01*
X0182334Y0137795D02*
X0182968Y0137372D01*
X0183672Y0137080D01*
X0184419Y0136931D01*
X0184616Y0136931D01*
X0184616Y0140616D01*
X0184984Y0140616D01*
X0184984Y0136931D01*
X0185181Y0136931D01*
X0185928Y0137080D01*
X0186632Y0137372D01*
X0187266Y0137795D01*
X0187805Y0138334D01*
X0188228Y0138968D01*
X0188520Y0139672D01*
X0188668Y0140419D01*
X0188668Y0140616D01*
X0184984Y0140616D01*
X0184984Y0140984D01*
X0188668Y0140984D01*
X0188668Y0141181D01*
X0188520Y0141928D01*
X0188228Y0142632D01*
X0187805Y0143266D01*
X0187266Y0143805D01*
X0186632Y0144228D01*
X0185928Y0144520D01*
X0185181Y0144668D01*
X0184984Y0144668D01*
X0184984Y0140984D01*
X0184616Y0140984D01*
X0184616Y0140616D01*
X0180931Y0140616D01*
X0180931Y0140419D01*
X0181080Y0139672D01*
X0181372Y0138968D01*
X0181795Y0138334D01*
X0182334Y0137795D01*
X0181161Y0139476D02*
X0101800Y0139476D01*
X0101800Y0141075D02*
X0180931Y0141075D01*
X0180931Y0140984D02*
X0184616Y0140984D01*
X0184616Y0144668D01*
X0184419Y0144668D01*
X0183672Y0144520D01*
X0182968Y0144228D01*
X0182334Y0143805D01*
X0181795Y0143266D01*
X0181372Y0142632D01*
X0181080Y0141928D01*
X0180931Y0141181D01*
X0180931Y0140984D01*
X0181399Y0142673D02*
X0101800Y0142673D01*
X0101800Y0144272D02*
X0183073Y0144272D01*
X0184616Y0144272D02*
X0184984Y0144272D01*
X0186527Y0144272D02*
X0193073Y0144272D01*
X0192968Y0144228D02*
X0193672Y0144520D01*
X0194419Y0144668D01*
X0194616Y0144668D01*
X0194616Y0140984D01*
X0194616Y0140616D01*
X0194984Y0140616D01*
X0194984Y0136931D01*
X0195181Y0136931D01*
X0195928Y0137080D01*
X0196632Y0137372D01*
X0197266Y0137795D01*
X0197805Y0138334D01*
X0198228Y0138968D01*
X0198520Y0139672D01*
X0198668Y0140419D01*
X0198668Y0140616D01*
X0194984Y0140616D01*
X0194984Y0140984D01*
X0198668Y0140984D01*
X0198668Y0141181D01*
X0198520Y0141928D01*
X0198228Y0142632D01*
X0197805Y0143266D01*
X0197266Y0143805D01*
X0196632Y0144228D01*
X0195928Y0144520D01*
X0195181Y0144668D01*
X0194984Y0144668D01*
X0194984Y0140984D01*
X0194616Y0140984D01*
X0190931Y0140984D01*
X0190931Y0141181D01*
X0191080Y0141928D01*
X0191372Y0142632D01*
X0191795Y0143266D01*
X0192334Y0143805D01*
X0192968Y0144228D01*
X0194616Y0144272D02*
X0194984Y0144272D01*
X0196527Y0144272D02*
X0198800Y0144272D01*
X0198800Y0142673D02*
X0198201Y0142673D01*
X0198668Y0141075D02*
X0198800Y0141075D01*
X0198800Y0139476D02*
X0198439Y0139476D01*
X0198800Y0137878D02*
X0197349Y0137878D01*
X0195928Y0134520D02*
X0195181Y0134668D01*
X0194984Y0134668D01*
X0194984Y0130984D01*
X0198668Y0130984D01*
X0198668Y0131181D01*
X0198520Y0131928D01*
X0198228Y0132632D01*
X0197805Y0133266D01*
X0197266Y0133805D01*
X0196632Y0134228D01*
X0195928Y0134520D01*
X0194616Y0134668D02*
X0194616Y0130984D01*
X0194616Y0130616D01*
X0194984Y0130616D01*
X0194984Y0126931D01*
X0195181Y0126931D01*
X0195928Y0127080D01*
X0196632Y0127372D01*
X0197266Y0127795D01*
X0197805Y0128334D01*
X0198228Y0128968D01*
X0198520Y0129672D01*
X0198668Y0130419D01*
X0198668Y0130616D01*
X0194984Y0130616D01*
X0194984Y0130984D01*
X0194616Y0130984D01*
X0190931Y0130984D01*
X0190931Y0131181D01*
X0191080Y0131928D01*
X0191372Y0132632D01*
X0191795Y0133266D01*
X0192334Y0133805D01*
X0192968Y0134228D01*
X0193672Y0134520D01*
X0194419Y0134668D01*
X0194616Y0134668D01*
X0194616Y0133082D02*
X0194984Y0133082D01*
X0194984Y0131484D02*
X0194616Y0131484D01*
X0194616Y0130616D02*
X0190931Y0130616D01*
X0190931Y0130419D01*
X0191080Y0129672D01*
X0191372Y0128968D01*
X0191795Y0128334D01*
X0192334Y0127795D01*
X0192968Y0127372D01*
X0193672Y0127080D01*
X0194419Y0126931D01*
X0194616Y0126931D01*
X0194616Y0130616D01*
X0194616Y0129885D02*
X0194984Y0129885D01*
X0194984Y0128287D02*
X0194616Y0128287D01*
X0191842Y0128287D02*
X0187758Y0128287D01*
X0188562Y0129885D02*
X0191038Y0129885D01*
X0190992Y0131484D02*
X0188608Y0131484D01*
X0187928Y0133082D02*
X0191672Y0133082D01*
X0193672Y0137080D02*
X0192968Y0137372D01*
X0192334Y0137795D01*
X0191795Y0138334D01*
X0191372Y0138968D01*
X0191080Y0139672D01*
X0190931Y0140419D01*
X0190931Y0140616D01*
X0194616Y0140616D01*
X0194616Y0136931D01*
X0194419Y0136931D01*
X0193672Y0137080D01*
X0194616Y0137878D02*
X0194984Y0137878D01*
X0194984Y0139476D02*
X0194616Y0139476D01*
X0194616Y0141075D02*
X0194984Y0141075D01*
X0194984Y0142673D02*
X0194616Y0142673D01*
X0191399Y0142673D02*
X0188201Y0142673D01*
X0188668Y0141075D02*
X0190931Y0141075D01*
X0191161Y0139476D02*
X0188439Y0139476D01*
X0187349Y0137878D02*
X0192251Y0137878D01*
X0184984Y0137878D02*
X0184616Y0137878D01*
X0184616Y0139476D02*
X0184984Y0139476D01*
X0184984Y0141075D02*
X0184616Y0141075D01*
X0184616Y0142673D02*
X0184984Y0142673D01*
X0184984Y0147469D02*
X0184616Y0147469D01*
X0184616Y0149068D02*
X0184984Y0149068D01*
X0186778Y0147469D02*
X0187965Y0147469D01*
X0188765Y0145870D02*
X0127600Y0145870D01*
X0127600Y0145629D02*
X0127600Y0149000D01*
X0117600Y0149000D01*
X0117600Y0144500D01*
X0126471Y0144500D01*
X0126802Y0144589D01*
X0127098Y0144760D01*
X0127340Y0145002D01*
X0127511Y0145298D01*
X0127600Y0145629D01*
X0127600Y0147469D02*
X0132531Y0147469D01*
X0132531Y0147117D02*
X0132620Y0146786D01*
X0132791Y0146490D01*
X0133033Y0146248D01*
X0133330Y0146077D01*
X0133660Y0145988D01*
X0135616Y0145988D01*
X0135616Y0149269D01*
X0132531Y0149269D01*
X0132531Y0147117D01*
X0132531Y0149068D02*
X0117600Y0149068D01*
X0117600Y0147469D02*
X0116000Y0147469D01*
X0116000Y0145870D02*
X0117600Y0145870D01*
X0116000Y0149068D02*
X0101800Y0149068D01*
X0101800Y0147469D02*
X0106000Y0147469D01*
X0106000Y0145870D02*
X0101800Y0145870D01*
X0094414Y0145870D02*
X0093600Y0145870D01*
X0093600Y0145629D02*
X0093600Y0149000D01*
X0083600Y0149000D01*
X0083600Y0150600D01*
X0082000Y0150600D01*
X0082000Y0155100D01*
X0073129Y0155100D01*
X0072798Y0155011D01*
X0072502Y0154840D01*
X0072260Y0154598D01*
X0072089Y0154302D01*
X0072000Y0153971D01*
X0072000Y0150600D01*
X0082000Y0150600D01*
X0082000Y0149000D01*
X0072000Y0149000D01*
X0072000Y0145629D01*
X0072089Y0145298D01*
X0072260Y0145002D01*
X0072502Y0144760D01*
X0072798Y0144589D01*
X0073129Y0144500D01*
X0082000Y0144500D01*
X0082000Y0149000D01*
X0083600Y0149000D01*
X0083600Y0144500D01*
X0092471Y0144500D01*
X0092802Y0144589D01*
X0093098Y0144760D01*
X0093340Y0145002D01*
X0093511Y0145298D01*
X0093600Y0145629D01*
X0094420Y0144272D02*
X0033572Y0144272D01*
X0033568Y0145870D02*
X0072000Y0145870D01*
X0072000Y0147469D02*
X0033565Y0147469D01*
X0033562Y0149068D02*
X0082000Y0149068D01*
X0082000Y0150666D02*
X0083600Y0150666D01*
X0083600Y0150600D02*
X0083600Y0155100D01*
X0092471Y0155100D01*
X0092802Y0155011D01*
X0093098Y0154840D01*
X0093340Y0154598D01*
X0093511Y0154302D01*
X0093600Y0153971D01*
X0093600Y0150600D01*
X0083600Y0150600D01*
X0083600Y0149068D02*
X0094403Y0149068D01*
X0094397Y0150666D02*
X0093600Y0150666D01*
X0093600Y0152265D02*
X0094391Y0152265D01*
X0094385Y0153863D02*
X0093600Y0153863D01*
X0094380Y0155462D02*
X0033548Y0155462D01*
X0033500Y0155462D02*
X0052983Y0155462D01*
X0072000Y0153863D02*
X0033551Y0153863D01*
X0033500Y0155300D02*
X0033500Y0182800D01*
X0178000Y0182800D01*
X0178000Y0177469D01*
X0178469Y0177000D01*
X0183604Y0177000D01*
X0184011Y0176831D01*
X0185589Y0176831D01*
X0185996Y0177000D01*
X0193604Y0177000D01*
X0194011Y0176831D01*
X0195589Y0176831D01*
X0195996Y0177000D01*
X0198800Y0177000D01*
X0198800Y0147800D01*
X0197526Y0148055D01*
X0197805Y0148334D01*
X0198228Y0148968D01*
X0198520Y0149672D01*
X0198668Y0150419D01*
X0198668Y0150616D01*
X0194984Y0150616D01*
X0194984Y0150984D01*
X0198668Y0150984D01*
X0198668Y0151181D01*
X0198520Y0151928D01*
X0198228Y0152632D01*
X0197805Y0153266D01*
X0197266Y0153805D01*
X0196632Y0154228D01*
X0195928Y0154520D01*
X0195181Y0154668D01*
X0194984Y0154668D01*
X0194984Y0150984D01*
X0194616Y0150984D01*
X0194616Y0150616D01*
X0190931Y0150616D01*
X0190931Y0150419D01*
X0191080Y0149672D01*
X0191228Y0149314D01*
X0188800Y0149800D01*
X0188800Y0155800D01*
X0157068Y0155800D01*
X0157068Y0155962D01*
X0153984Y0155962D01*
X0153984Y0156331D01*
X0153616Y0156331D01*
X0153616Y0159612D01*
X0151660Y0159612D01*
X0151330Y0159523D01*
X0151033Y0159352D01*
X0150791Y0159110D01*
X0150620Y0158814D01*
X0150531Y0158483D01*
X0150531Y0156331D01*
X0153616Y0156331D01*
X0153616Y0155962D01*
X0150531Y0155962D01*
X0150531Y0155800D01*
X0148068Y0155800D01*
X0148068Y0155962D01*
X0144984Y0155962D01*
X0144984Y0156331D01*
X0144616Y0156331D01*
X0144616Y0159612D01*
X0142660Y0159612D01*
X0142330Y0159523D01*
X0142033Y0159352D01*
X0141791Y0159110D01*
X0141620Y0158814D01*
X0141531Y0158483D01*
X0141531Y0156331D01*
X0144616Y0156331D01*
X0144616Y0155962D01*
X0141531Y0155962D01*
X0141531Y0155800D01*
X0139068Y0155800D01*
X0139068Y0155962D01*
X0135984Y0155962D01*
X0135984Y0156331D01*
X0135616Y0156331D01*
X0135616Y0159612D01*
X0133660Y0159612D01*
X0133330Y0159523D01*
X0133033Y0159352D01*
X0132791Y0159110D01*
X0132620Y0158814D01*
X0132531Y0158483D01*
X0132531Y0156331D01*
X0135616Y0156331D01*
X0135616Y0155962D01*
X0132531Y0155962D01*
X0132531Y0155800D01*
X0093800Y0155800D01*
X0033500Y0155300D01*
X0033500Y0157060D02*
X0132531Y0157060D01*
X0132579Y0158659D02*
X0033500Y0158659D01*
X0033541Y0158659D02*
X0094368Y0158659D01*
X0094363Y0160257D02*
X0033538Y0160257D01*
X0033500Y0160257D02*
X0180964Y0160257D01*
X0180931Y0160419D02*
X0181080Y0159672D01*
X0181372Y0158968D01*
X0181795Y0158334D01*
X0182334Y0157795D01*
X0182968Y0157372D01*
X0183672Y0157080D01*
X0184419Y0156931D01*
X0184616Y0156931D01*
X0184616Y0160616D01*
X0184984Y0160616D01*
X0184984Y0156931D01*
X0185181Y0156931D01*
X0185928Y0157080D01*
X0186632Y0157372D01*
X0187266Y0157795D01*
X0187805Y0158334D01*
X0188228Y0158968D01*
X0188520Y0159672D01*
X0188668Y0160419D01*
X0188668Y0160616D01*
X0184984Y0160616D01*
X0184984Y0160984D01*
X0188668Y0160984D01*
X0188668Y0161181D01*
X0188520Y0161928D01*
X0188228Y0162632D01*
X0187805Y0163266D01*
X0187266Y0163805D01*
X0186632Y0164228D01*
X0185928Y0164520D01*
X0185181Y0164668D01*
X0184984Y0164668D01*
X0184984Y0160984D01*
X0184616Y0160984D01*
X0184616Y0160616D01*
X0180931Y0160616D01*
X0180931Y0160419D01*
X0180931Y0160984D02*
X0184616Y0160984D01*
X0184616Y0164668D01*
X0184419Y0164668D01*
X0183672Y0164520D01*
X0182968Y0164228D01*
X0182334Y0163805D01*
X0181795Y0163266D01*
X0181372Y0162632D01*
X0181080Y0161928D01*
X0180931Y0161181D01*
X0180931Y0160984D01*
X0181066Y0161856D02*
X0033500Y0161856D01*
X0033534Y0161856D02*
X0094357Y0161856D01*
X0094351Y0163454D02*
X0033531Y0163454D01*
X0033500Y0163454D02*
X0181983Y0163454D01*
X0184616Y0163454D02*
X0184984Y0163454D01*
X0184984Y0161856D02*
X0184616Y0161856D01*
X0184616Y0160257D02*
X0184984Y0160257D01*
X0184984Y0158659D02*
X0184616Y0158659D01*
X0184616Y0157060D02*
X0184984Y0157060D01*
X0185827Y0157060D02*
X0193773Y0157060D01*
X0193672Y0157080D02*
X0194419Y0156931D01*
X0194616Y0156931D01*
X0194616Y0160616D01*
X0194984Y0160616D01*
X0194984Y0156931D01*
X0195181Y0156931D01*
X0195928Y0157080D01*
X0196632Y0157372D01*
X0197266Y0157795D01*
X0197805Y0158334D01*
X0198228Y0158968D01*
X0198520Y0159672D01*
X0198668Y0160419D01*
X0198668Y0160616D01*
X0194984Y0160616D01*
X0194984Y0160984D01*
X0198668Y0160984D01*
X0198668Y0161181D01*
X0198520Y0161928D01*
X0198228Y0162632D01*
X0197805Y0163266D01*
X0197266Y0163805D01*
X0196632Y0164228D01*
X0195928Y0164520D01*
X0195181Y0164668D01*
X0194984Y0164668D01*
X0194984Y0160984D01*
X0194616Y0160984D01*
X0194616Y0160616D01*
X0190931Y0160616D01*
X0190931Y0160419D01*
X0191080Y0159672D01*
X0191372Y0158968D01*
X0191795Y0158334D01*
X0192334Y0157795D01*
X0192968Y0157372D01*
X0193672Y0157080D01*
X0194616Y0157060D02*
X0194984Y0157060D01*
X0195827Y0157060D02*
X0198800Y0157060D01*
X0198800Y0155462D02*
X0188800Y0155462D01*
X0188800Y0153863D02*
X0192421Y0153863D01*
X0192334Y0153805D02*
X0191795Y0153266D01*
X0191372Y0152632D01*
X0191080Y0151928D01*
X0190931Y0151181D01*
X0190931Y0150984D01*
X0194616Y0150984D01*
X0194616Y0154668D01*
X0194419Y0154668D01*
X0193672Y0154520D01*
X0192968Y0154228D01*
X0192334Y0153805D01*
X0191219Y0152265D02*
X0188800Y0152265D01*
X0188800Y0150666D02*
X0194616Y0150666D01*
X0194984Y0150666D02*
X0198800Y0150666D01*
X0198800Y0149068D02*
X0198270Y0149068D01*
X0198381Y0152265D02*
X0198800Y0152265D01*
X0198800Y0153863D02*
X0197179Y0153863D01*
X0194984Y0153863D02*
X0194616Y0153863D01*
X0194616Y0152265D02*
X0194984Y0152265D01*
X0194984Y0158659D02*
X0194616Y0158659D01*
X0194616Y0160257D02*
X0194984Y0160257D01*
X0194616Y0160984D02*
X0190931Y0160984D01*
X0190931Y0161181D01*
X0191080Y0161928D01*
X0191372Y0162632D01*
X0191795Y0163266D01*
X0192334Y0163805D01*
X0192968Y0164228D01*
X0193672Y0164520D01*
X0194419Y0164668D01*
X0194616Y0164668D01*
X0194616Y0160984D01*
X0194616Y0161856D02*
X0194984Y0161856D01*
X0194984Y0163454D02*
X0194616Y0163454D01*
X0191983Y0163454D02*
X0187617Y0163454D01*
X0188534Y0161856D02*
X0191066Y0161856D01*
X0190964Y0160257D02*
X0188636Y0160257D01*
X0188022Y0158659D02*
X0191578Y0158659D01*
X0198022Y0158659D02*
X0198800Y0158659D01*
X0198800Y0160257D02*
X0198636Y0160257D01*
X0198534Y0161856D02*
X0198800Y0161856D01*
X0198800Y0163454D02*
X0197617Y0163454D01*
X0198800Y0165053D02*
X0033500Y0165053D01*
X0033527Y0165053D02*
X0094346Y0165053D01*
X0094340Y0166651D02*
X0033524Y0166651D01*
X0033500Y0166651D02*
X0198800Y0166651D01*
X0198800Y0168250D02*
X0197721Y0168250D01*
X0197805Y0168334D02*
X0198228Y0168968D01*
X0198520Y0169672D01*
X0198668Y0170419D01*
X0198668Y0170616D01*
X0194984Y0170616D01*
X0194984Y0166931D01*
X0195181Y0166931D01*
X0195928Y0167080D01*
X0196632Y0167372D01*
X0197266Y0167795D01*
X0197805Y0168334D01*
X0198555Y0169848D02*
X0198800Y0169848D01*
X0198668Y0170984D02*
X0198668Y0171181D01*
X0198520Y0171928D01*
X0198228Y0172632D01*
X0197805Y0173266D01*
X0197266Y0173805D01*
X0196632Y0174228D01*
X0195928Y0174520D01*
X0195181Y0174668D01*
X0194984Y0174668D01*
X0194984Y0170984D01*
X0198668Y0170984D01*
X0198616Y0171447D02*
X0198800Y0171447D01*
X0198800Y0173045D02*
X0197952Y0173045D01*
X0198800Y0174644D02*
X0195306Y0174644D01*
X0194984Y0174644D02*
X0194616Y0174644D01*
X0194616Y0174668D02*
X0194419Y0174668D01*
X0193672Y0174520D01*
X0192968Y0174228D01*
X0192334Y0173805D01*
X0191795Y0173266D01*
X0191372Y0172632D01*
X0191080Y0171928D01*
X0190931Y0171181D01*
X0190931Y0170984D01*
X0194616Y0170984D01*
X0194616Y0170616D01*
X0194984Y0170616D01*
X0194984Y0170984D01*
X0194616Y0170984D01*
X0194616Y0174668D01*
X0194294Y0174644D02*
X0185306Y0174644D01*
X0185181Y0174668D02*
X0184984Y0174668D01*
X0184984Y0170984D01*
X0188668Y0170984D01*
X0188668Y0171181D01*
X0188520Y0171928D01*
X0188228Y0172632D01*
X0187805Y0173266D01*
X0187266Y0173805D01*
X0186632Y0174228D01*
X0185928Y0174520D01*
X0185181Y0174668D01*
X0184984Y0174644D02*
X0184616Y0174644D01*
X0184616Y0174668D02*
X0184419Y0174668D01*
X0183672Y0174520D01*
X0182968Y0174228D01*
X0182334Y0173805D01*
X0181795Y0173266D01*
X0181372Y0172632D01*
X0181080Y0171928D01*
X0180931Y0171181D01*
X0180931Y0170984D01*
X0184616Y0170984D01*
X0184616Y0170616D01*
X0184984Y0170616D01*
X0184984Y0166931D01*
X0185181Y0166931D01*
X0185928Y0167080D01*
X0186632Y0167372D01*
X0187266Y0167795D01*
X0187805Y0168334D01*
X0188228Y0168968D01*
X0188520Y0169672D01*
X0188668Y0170419D01*
X0188668Y0170616D01*
X0184984Y0170616D01*
X0184984Y0170984D01*
X0184616Y0170984D01*
X0184616Y0174668D01*
X0184294Y0174644D02*
X0033500Y0174644D01*
X0033507Y0174644D02*
X0094311Y0174644D01*
X0094306Y0176242D02*
X0033503Y0176242D01*
X0033500Y0176242D02*
X0198800Y0176242D01*
X0194984Y0173045D02*
X0194616Y0173045D01*
X0194616Y0171447D02*
X0194984Y0171447D01*
X0194616Y0170616D02*
X0190931Y0170616D01*
X0190931Y0170419D01*
X0191080Y0169672D01*
X0191372Y0168968D01*
X0191795Y0168334D01*
X0192334Y0167795D01*
X0192968Y0167372D01*
X0193672Y0167080D01*
X0194419Y0166931D01*
X0194616Y0166931D01*
X0194616Y0170616D01*
X0194616Y0169848D02*
X0194984Y0169848D01*
X0194984Y0168250D02*
X0194616Y0168250D01*
X0191879Y0168250D02*
X0187721Y0168250D01*
X0188555Y0169848D02*
X0191045Y0169848D01*
X0190984Y0171447D02*
X0188616Y0171447D01*
X0187952Y0173045D02*
X0191648Y0173045D01*
X0184984Y0173045D02*
X0184616Y0173045D01*
X0184616Y0171447D02*
X0184984Y0171447D01*
X0184616Y0170616D02*
X0180931Y0170616D01*
X0180931Y0170419D01*
X0181080Y0169672D01*
X0181372Y0168968D01*
X0181795Y0168334D01*
X0182334Y0167795D01*
X0182968Y0167372D01*
X0183672Y0167080D01*
X0184419Y0166931D01*
X0184616Y0166931D01*
X0184616Y0170616D01*
X0184616Y0169848D02*
X0184984Y0169848D01*
X0184984Y0168250D02*
X0184616Y0168250D01*
X0181879Y0168250D02*
X0033500Y0168250D01*
X0033520Y0168250D02*
X0094334Y0168250D01*
X0094328Y0169848D02*
X0033517Y0169848D01*
X0033500Y0169848D02*
X0181045Y0169848D01*
X0180984Y0171447D02*
X0033500Y0171447D01*
X0033514Y0171447D02*
X0094323Y0171447D01*
X0094317Y0173045D02*
X0033510Y0173045D01*
X0033500Y0173045D02*
X0181648Y0173045D01*
X0178000Y0177841D02*
X0033500Y0177841D01*
X0033500Y0177800D02*
X0094300Y0177800D01*
X0094725Y0058776D01*
X0093374Y0057425D01*
X0092400Y0055073D01*
X0092400Y0052527D01*
X0092405Y0052516D01*
X0077689Y0037800D01*
X0033911Y0037800D01*
X0033800Y0037911D01*
X0033500Y0177800D01*
X0033500Y0179439D02*
X0178000Y0179439D01*
X0178000Y0181038D02*
X0033500Y0181038D01*
X0033500Y0182636D02*
X0178000Y0182636D01*
X0181578Y0158659D02*
X0157021Y0158659D01*
X0156980Y0158814D02*
X0156809Y0159110D01*
X0156567Y0159352D01*
X0156270Y0159523D01*
X0155940Y0159612D01*
X0153984Y0159612D01*
X0153984Y0156331D01*
X0157068Y0156331D01*
X0157068Y0158483D01*
X0156980Y0158814D01*
X0157068Y0157060D02*
X0183773Y0157060D01*
X0181330Y0149068D02*
X0157068Y0149068D01*
X0157068Y0147469D02*
X0182822Y0147469D01*
X0184616Y0133082D02*
X0184984Y0133082D01*
X0184984Y0131484D02*
X0184616Y0131484D01*
X0184616Y0129885D02*
X0184984Y0129885D01*
X0184984Y0128287D02*
X0184616Y0128287D01*
X0187721Y0123491D02*
X0191879Y0123491D01*
X0197721Y0123491D02*
X0198800Y0123491D01*
X0198800Y0128287D02*
X0197758Y0128287D01*
X0198562Y0129885D02*
X0198800Y0129885D01*
X0198800Y0131484D02*
X0198608Y0131484D01*
X0198800Y0133082D02*
X0197928Y0133082D01*
X0153984Y0147469D02*
X0153616Y0147469D01*
X0153616Y0145988D02*
X0153616Y0149269D01*
X0150531Y0149269D01*
X0150531Y0147117D01*
X0150620Y0146786D01*
X0150791Y0146490D01*
X0151033Y0146248D01*
X0151330Y0146077D01*
X0151660Y0145988D01*
X0153616Y0145988D01*
X0153616Y0149068D02*
X0153984Y0149068D01*
X0150531Y0149068D02*
X0148068Y0149068D01*
X0148068Y0147469D02*
X0150531Y0147469D01*
X0144984Y0147469D02*
X0144616Y0147469D01*
X0144616Y0145988D02*
X0144616Y0149269D01*
X0141531Y0149269D01*
X0141531Y0147117D01*
X0141620Y0146786D01*
X0141791Y0146490D01*
X0142033Y0146248D01*
X0142330Y0146077D01*
X0142660Y0145988D01*
X0144616Y0145988D01*
X0144616Y0149068D02*
X0144984Y0149068D01*
X0141531Y0149068D02*
X0139068Y0149068D01*
X0139068Y0147469D02*
X0141531Y0147469D01*
X0135984Y0147469D02*
X0135616Y0147469D01*
X0135616Y0149068D02*
X0135984Y0149068D01*
X0135984Y0156331D02*
X0139068Y0156331D01*
X0139068Y0158483D01*
X0138980Y0158814D01*
X0138809Y0159110D01*
X0138567Y0159352D01*
X0138270Y0159523D01*
X0137940Y0159612D01*
X0135984Y0159612D01*
X0135984Y0156331D01*
X0135984Y0157060D02*
X0135616Y0157060D01*
X0135616Y0158659D02*
X0135984Y0158659D01*
X0139021Y0158659D02*
X0141579Y0158659D01*
X0141531Y0157060D02*
X0139068Y0157060D01*
X0144616Y0157060D02*
X0144984Y0157060D01*
X0144984Y0156331D02*
X0144984Y0159612D01*
X0146940Y0159612D01*
X0147270Y0159523D01*
X0147567Y0159352D01*
X0147809Y0159110D01*
X0147980Y0158814D01*
X0148068Y0158483D01*
X0148068Y0156331D01*
X0144984Y0156331D01*
X0144984Y0158659D02*
X0144616Y0158659D01*
X0148021Y0158659D02*
X0150579Y0158659D01*
X0150531Y0157060D02*
X0148068Y0157060D01*
X0153616Y0157060D02*
X0153984Y0157060D01*
X0153984Y0158659D02*
X0153616Y0158659D01*
X0116800Y0237800D02*
X0110146Y0237800D01*
X0103800Y0242800D02*
X0106674Y0245674D01*
X0106674Y0249863D01*
X0106674Y0257737D02*
X0106800Y0257863D01*
X0106800Y0265454D01*
X0106800Y0272146D02*
X0106200Y0272746D01*
X0106200Y0277700D01*
X0090800Y0278600D02*
X0090800Y0272146D01*
X0088106Y0269453D01*
X0027300Y0269453D01*
X0027300Y0263547D02*
X0027754Y0263547D01*
X0027754Y0254900D01*
X0034446Y0254900D02*
X0068800Y0254900D01*
X0068800Y0253800D01*
X0082800Y0249611D02*
X0082800Y0240146D01*
X0082800Y0233454D02*
X0082800Y0227800D01*
X0088800Y0221800D01*
X0093347Y0221800D01*
X0093347Y0226800D02*
X0090800Y0229347D01*
X0090800Y0233454D01*
X0090800Y0240146D02*
X0090800Y0249737D01*
X0090926Y0249863D01*
X0090926Y0257737D02*
X0090926Y0265328D01*
X0090800Y0265454D01*
X0083052Y0249863D02*
X0082800Y0249611D01*
X0103454Y0237800D02*
X0103800Y0238146D01*
X0103800Y0242800D01*
X0094374Y0157060D02*
X0033544Y0157060D01*
X0033555Y0152265D02*
X0072000Y0152265D01*
X0072000Y0150666D02*
X0033558Y0150666D01*
X0033575Y0142673D02*
X0094425Y0142673D01*
X0094431Y0141075D02*
X0033579Y0141075D01*
X0033582Y0139476D02*
X0094437Y0139476D01*
X0094443Y0137878D02*
X0033586Y0137878D01*
X0033589Y0136279D02*
X0094448Y0136279D01*
X0094454Y0134681D02*
X0033592Y0134681D01*
X0033596Y0133082D02*
X0094460Y0133082D01*
X0094465Y0131484D02*
X0033599Y0131484D01*
X0033603Y0129885D02*
X0094471Y0129885D01*
X0094477Y0128287D02*
X0033606Y0128287D01*
X0033610Y0126688D02*
X0094483Y0126688D01*
X0094488Y0125090D02*
X0033613Y0125090D01*
X0033616Y0123491D02*
X0094494Y0123491D01*
X0094500Y0121893D02*
X0033620Y0121893D01*
X0033623Y0120294D02*
X0094505Y0120294D01*
X0093340Y0119598D02*
X0093098Y0119840D01*
X0092802Y0120011D01*
X0092471Y0120100D01*
X0083600Y0120100D01*
X0083600Y0115600D01*
X0082000Y0115600D01*
X0082000Y0120100D01*
X0073129Y0120100D01*
X0072798Y0120011D01*
X0072502Y0119840D01*
X0072260Y0119598D01*
X0072089Y0119302D01*
X0072000Y0118971D01*
X0072000Y0115600D01*
X0082000Y0115600D01*
X0082000Y0114000D01*
X0072000Y0114000D01*
X0072000Y0110629D01*
X0072089Y0110298D01*
X0072260Y0110002D01*
X0072502Y0109760D01*
X0072798Y0109589D01*
X0073129Y0109500D01*
X0082000Y0109500D01*
X0082000Y0114000D01*
X0083600Y0114000D01*
X0083600Y0115600D01*
X0093600Y0115600D01*
X0093600Y0118971D01*
X0093511Y0119302D01*
X0093340Y0119598D01*
X0093600Y0118696D02*
X0094511Y0118696D01*
X0094517Y0117097D02*
X0093600Y0117097D01*
X0094522Y0115499D02*
X0083600Y0115499D01*
X0083600Y0114000D02*
X0093600Y0114000D01*
X0093600Y0110629D01*
X0093511Y0110298D01*
X0093340Y0110002D01*
X0093098Y0109760D01*
X0092802Y0109589D01*
X0092471Y0109500D01*
X0083600Y0109500D01*
X0083600Y0114000D01*
X0083600Y0113900D02*
X0082000Y0113900D01*
X0082000Y0112302D02*
X0083600Y0112302D01*
X0083600Y0110703D02*
X0082000Y0110703D01*
X0082000Y0115499D02*
X0033634Y0115499D01*
X0033630Y0117097D02*
X0072000Y0117097D01*
X0072000Y0118696D02*
X0033627Y0118696D01*
X0033637Y0113900D02*
X0072000Y0113900D01*
X0072000Y0112302D02*
X0033640Y0112302D01*
X0033644Y0110703D02*
X0072000Y0110703D01*
X0082000Y0117097D02*
X0083600Y0117097D01*
X0083600Y0118696D02*
X0082000Y0118696D01*
X0093600Y0113900D02*
X0094528Y0113900D01*
X0094534Y0112302D02*
X0093600Y0112302D01*
X0093600Y0110703D02*
X0094540Y0110703D01*
X0094545Y0109105D02*
X0033647Y0109105D01*
X0033651Y0107506D02*
X0094551Y0107506D01*
X0094557Y0105908D02*
X0033654Y0105908D01*
X0033657Y0104309D02*
X0094562Y0104309D01*
X0094568Y0102711D02*
X0033661Y0102711D01*
X0033664Y0101112D02*
X0094574Y0101112D01*
X0094580Y0099514D02*
X0033668Y0099514D01*
X0033671Y0097915D02*
X0094585Y0097915D01*
X0094591Y0096317D02*
X0033675Y0096317D01*
X0033678Y0094718D02*
X0094597Y0094718D01*
X0094602Y0093120D02*
X0033681Y0093120D01*
X0033685Y0091521D02*
X0094608Y0091521D01*
X0094614Y0089923D02*
X0033688Y0089923D01*
X0033692Y0088324D02*
X0094620Y0088324D01*
X0094625Y0086726D02*
X0033695Y0086726D01*
X0033699Y0085127D02*
X0094631Y0085127D01*
X0093511Y0084302D02*
X0093340Y0084598D01*
X0093098Y0084840D01*
X0092802Y0085011D01*
X0092471Y0085100D01*
X0083600Y0085100D01*
X0083600Y0080600D01*
X0082000Y0080600D01*
X0082000Y0085100D01*
X0073129Y0085100D01*
X0072798Y0085011D01*
X0072502Y0084840D01*
X0072260Y0084598D01*
X0072089Y0084302D01*
X0072000Y0083971D01*
X0072000Y0080600D01*
X0082000Y0080600D01*
X0082000Y0079000D01*
X0072000Y0079000D01*
X0072000Y0075629D01*
X0072089Y0075298D01*
X0072260Y0075002D01*
X0072502Y0074760D01*
X0072798Y0074589D01*
X0073129Y0074500D01*
X0082000Y0074500D01*
X0082000Y0079000D01*
X0083600Y0079000D01*
X0083600Y0080600D01*
X0093600Y0080600D01*
X0093600Y0083971D01*
X0093511Y0084302D01*
X0093600Y0083529D02*
X0094637Y0083529D01*
X0094642Y0081930D02*
X0093600Y0081930D01*
X0094648Y0080332D02*
X0083600Y0080332D01*
X0083600Y0079000D02*
X0093600Y0079000D01*
X0093600Y0075629D01*
X0093511Y0075298D01*
X0093340Y0075002D01*
X0093098Y0074760D01*
X0092802Y0074589D01*
X0092471Y0074500D01*
X0083600Y0074500D01*
X0083600Y0079000D01*
X0083600Y0078733D02*
X0082000Y0078733D01*
X0082000Y0077134D02*
X0083600Y0077134D01*
X0083600Y0075536D02*
X0082000Y0075536D01*
X0082000Y0080332D02*
X0033709Y0080332D01*
X0033705Y0081930D02*
X0072000Y0081930D01*
X0072000Y0083529D02*
X0033702Y0083529D01*
X0033712Y0078733D02*
X0072000Y0078733D01*
X0072000Y0077134D02*
X0033716Y0077134D01*
X0033719Y0075536D02*
X0072025Y0075536D01*
X0082000Y0081930D02*
X0083600Y0081930D01*
X0083600Y0083529D02*
X0082000Y0083529D01*
X0093600Y0078733D02*
X0094654Y0078733D01*
X0094659Y0077134D02*
X0093600Y0077134D01*
X0093575Y0075536D02*
X0094665Y0075536D01*
X0094671Y0073937D02*
X0033723Y0073937D01*
X0033726Y0072339D02*
X0094677Y0072339D01*
X0094682Y0070740D02*
X0033729Y0070740D01*
X0033733Y0069142D02*
X0094688Y0069142D01*
X0094694Y0067543D02*
X0033736Y0067543D01*
X0033740Y0065945D02*
X0094699Y0065945D01*
X0094705Y0064346D02*
X0033743Y0064346D01*
X0033747Y0062748D02*
X0094711Y0062748D01*
X0094717Y0061149D02*
X0033750Y0061149D01*
X0033753Y0059551D02*
X0066210Y0059551D01*
X0066382Y0059638D02*
X0065498Y0059188D01*
X0064696Y0058605D01*
X0063995Y0057904D01*
X0063412Y0057102D01*
X0062962Y0056218D01*
X0062655Y0055275D01*
X0062532Y0054500D01*
X0068100Y0054500D01*
X0068100Y0060068D01*
X0067325Y0059945D01*
X0066382Y0059638D01*
X0068100Y0059551D02*
X0069500Y0059551D01*
X0069500Y0060068D02*
X0069500Y0054500D01*
X0068100Y0054500D01*
X0068100Y0053100D01*
X0062532Y0053100D01*
X0062655Y0052325D01*
X0062962Y0051382D01*
X0063412Y0050498D01*
X0063995Y0049696D01*
X0064696Y0048995D01*
X0065498Y0048412D01*
X0066382Y0047962D01*
X0067325Y0047655D01*
X0068100Y0047532D01*
X0068100Y0053100D01*
X0069500Y0053100D01*
X0069500Y0054500D01*
X0075068Y0054500D01*
X0074945Y0055275D01*
X0074638Y0056218D01*
X0074188Y0057102D01*
X0073605Y0057904D01*
X0072904Y0058605D01*
X0072102Y0059188D01*
X0071218Y0059638D01*
X0070275Y0059945D01*
X0069500Y0060068D01*
X0071390Y0059551D02*
X0094722Y0059551D01*
X0093901Y0057952D02*
X0073557Y0057952D01*
X0074569Y0056354D02*
X0092931Y0056354D01*
X0092400Y0054755D02*
X0075027Y0054755D01*
X0075068Y0053100D02*
X0069500Y0053100D01*
X0069500Y0047532D01*
X0070275Y0047655D01*
X0071218Y0047962D01*
X0072102Y0048412D01*
X0072904Y0048995D01*
X0073605Y0049696D01*
X0074188Y0050498D01*
X0074638Y0051382D01*
X0074945Y0052325D01*
X0075068Y0053100D01*
X0074696Y0051558D02*
X0091447Y0051558D01*
X0092400Y0053157D02*
X0069500Y0053157D01*
X0068100Y0053157D02*
X0033767Y0053157D01*
X0033764Y0054755D02*
X0062573Y0054755D01*
X0063031Y0056354D02*
X0033760Y0056354D01*
X0033757Y0057952D02*
X0064043Y0057952D01*
X0068100Y0057952D02*
X0069500Y0057952D01*
X0069500Y0056354D02*
X0068100Y0056354D01*
X0068100Y0054755D02*
X0069500Y0054755D01*
X0069500Y0051558D02*
X0068100Y0051558D01*
X0068100Y0049960D02*
X0069500Y0049960D01*
X0069500Y0048361D02*
X0068100Y0048361D01*
X0065597Y0048361D02*
X0033777Y0048361D01*
X0033781Y0046763D02*
X0086652Y0046763D01*
X0088250Y0048361D02*
X0072003Y0048361D01*
X0073797Y0049960D02*
X0089849Y0049960D01*
X0085053Y0045164D02*
X0033784Y0045164D01*
X0033788Y0043566D02*
X0083455Y0043566D01*
X0081856Y0041967D02*
X0033791Y0041967D01*
X0033795Y0040369D02*
X0080257Y0040369D01*
X0078659Y0038770D02*
X0033798Y0038770D01*
X0033774Y0049960D02*
X0063803Y0049960D01*
X0062904Y0051558D02*
X0033771Y0051558D01*
X0082000Y0145870D02*
X0083600Y0145870D01*
X0083600Y0147469D02*
X0082000Y0147469D01*
X0082000Y0152265D02*
X0083600Y0152265D01*
X0083600Y0153863D02*
X0082000Y0153863D01*
X0093600Y0147469D02*
X0094408Y0147469D01*
D22*
X0116800Y0237800D03*
X0106200Y0277700D03*
X0090800Y0278600D03*
D23*
X0083800Y0214800D03*
X0083800Y0206800D03*
X0086800Y0198800D03*
X0108800Y0198800D03*
X0111800Y0206800D03*
X0111800Y0214800D03*
D24*
X0103312Y0214800D01*
X0103312Y0218741D01*
X0100253Y0221800D01*
X0100253Y0226800D01*
X0092288Y0214800D02*
X0083800Y0214800D01*
X0083800Y0206800D02*
X0092288Y0206800D01*
X0094454Y0198800D02*
X0086800Y0198800D01*
X0094454Y0198800D02*
X0094800Y0198800D01*
X0101146Y0198800D02*
X0108800Y0198800D01*
X0111800Y0206800D02*
X0103312Y0206800D01*
M02*
