%
M48
M72
T01C0.02362
T02C0.02756
T03C0.03150
T04C0.03937
T05C0.04000
T06C0.11024
T07C0.15000
%
T01
X258000Y160250
X304000Y188250
X422000Y212250
X459000Y239250
X480500Y236750
X491500Y234750
X481000Y226250
X481000Y206250
X529000Y220750
X539000Y221250
X548000Y221250
X532000Y240250
X549000Y241250
X550000Y250250
X530000Y254250
X501500Y248750
X464000Y271250
X478000Y274250
X456500Y283750
X502500Y308750
X569500Y242250
X549500Y179250
T02
X631524Y198994
X631524Y276494
X631524Y120994
X553000Y89250
X482000Y39250
T03
X631524Y56427
X631524Y68238
X631524Y76112
X631524Y83986
X631524Y91860
X631524Y134427
X631524Y146238
X631524Y154112
X631524Y161986
X631524Y169860
X631524Y211927
X631524Y223738
X631524Y231612
X631524Y239486
X631524Y247360
T04
X603000Y244250
X593000Y244250
X593000Y234250
X603000Y234250
X603000Y224250
X593000Y224250
X593000Y214250
X603000Y214250
X603000Y204250
X593000Y204250
X577000Y200250
X567000Y197250
X593000Y194250
X603000Y194250
X603000Y184250
X593000Y184250
X593000Y174250
X603000Y174250
X603000Y164250
X593000Y164250
X593000Y154250
X603000Y154250
X603000Y144250
X593000Y144250
X593000Y134250
X603000Y134250
X603000Y124250
X593000Y124250
X593000Y114250
X603000Y114250
X603000Y104250
X593000Y104250
X593000Y94250
X603000Y94250
X603000Y84250
X593000Y84250
X593000Y74250
X603000Y74250
X603000Y64250
X593000Y64250
X593000Y54250
X603000Y54250
X603000Y34250
X593000Y34250
X593000Y24250
X603000Y24250
X562500Y13750
X540500Y13250
X517500Y13250
X488000Y13250
X458500Y13250
X433500Y13750
X398000Y24250
X388000Y24250
X388000Y34250
X398000Y34250
X398000Y54250
X388000Y54250
X388000Y64250
X398000Y64250
X398000Y74250
X388000Y74250
X388000Y84250
X398000Y84250
X398000Y94250
X388000Y94250
X388000Y104250
X398000Y104250
X398000Y114250
X388000Y114250
X388000Y124250
X398000Y124250
X398000Y134250
X388000Y134250
X388000Y144250
X398000Y144250
X398000Y154250
X388000Y154250
X388000Y164250
X398000Y164250
X398000Y174250
X388000Y174250
X388000Y184250
X398000Y184250
X398000Y194250
X388000Y194250
X388000Y204250
X398000Y204250
X398000Y214250
X388000Y214250
X388000Y224250
X398000Y224250
X398000Y234250
X388000Y234250
X388000Y244250
X398000Y244250
X398000Y254250
X388000Y254250
X388000Y264250
X398000Y264250
X398000Y274250
X388000Y274250
X388000Y284250
X398000Y284250
X398000Y294250
X388000Y294250
X410000Y306250
X415000Y298250
X444000Y283250
X433000Y281250
X427500Y274250
X421500Y265750
X476900Y297950
X474000Y304250
X467000Y307250
X471000Y315250
X462300Y316650
X484000Y318250
X559000Y287250
X593000Y284250
X603000Y284250
X603000Y274250
X593000Y274250
X593000Y264250
X603000Y264250
X603000Y254250
X593000Y254250
X570500Y233250
X566000Y227250
X593000Y294250
X603000Y294250
X452000Y149250
X440000Y149250
X429000Y149250
X353000Y114250
X323000Y114250
X293000Y114250
X263000Y114250
X233000Y114250
X203000Y114250
X193000Y114250
X193000Y104250
X203000Y104250
X203000Y94250
X193000Y94250
X193000Y84250
X203000Y84250
X203000Y74250
X193000Y74250
X193000Y64250
X203000Y64250
X203000Y54250
X193000Y54250
X193000Y34250
X203000Y34250
X203000Y24250
X193000Y24250
X233000Y54250
X263000Y54250
X293000Y54250
X323000Y54250
X353000Y54250
X353000Y74250
X323000Y74250
X293000Y74250
X263000Y74250
X233000Y74250
X233000Y94250
X263000Y94250
X293000Y94250
X323000Y94250
X353000Y94250
X250650Y153250
X223000Y160250
X203000Y164250
X193000Y164250
X193000Y154250
X203000Y154250
X203000Y144250
X193000Y144250
X193000Y134250
X203000Y134250
X203000Y124250
X193000Y124250
X223000Y133250
X203000Y174250
X193000Y174250
X193000Y184250
X203000Y184250
X203000Y194250
X193000Y194250
X193000Y204250
X203000Y204250
X203000Y214250
X193000Y214250
X193000Y224250
X203000Y224250
X223000Y215250
X203000Y234250
X193000Y234250
X178000Y234250
X163000Y234250
X193000Y244250
X203000Y244250
X203000Y254250
X193000Y254250
X193000Y264250
X203000Y264250
X203000Y274250
X193000Y274250
X193000Y284250
X203000Y284250
X203000Y294250
X193000Y294250
X178000Y294250
X163000Y294250
X163000Y264250
X178000Y264250
X163000Y204250
X163000Y174250
X223000Y187250
T05
X13000Y14250
X13000Y24250
X13000Y39250
X13000Y49250
X13000Y64250
X13000Y74250
X13000Y89250
X13000Y99250
X13000Y114250
X13000Y124250
X13000Y139250
X13000Y149250
X13000Y164250
X13000Y174250
X13000Y189250
X13000Y199250
X13000Y214250
X13000Y224250
X13000Y239250
X13000Y249250
X13000Y264250
X13000Y274250
X13000Y289250
X13000Y299250
X631000Y301250
X631000Y291250
X631000Y311250
X631000Y37250
X631000Y27250
X631000Y17250
T06
X88000Y49250
X58000Y49250
X43000Y74250
X73000Y74250
X58000Y99250
X88000Y99250
X73000Y124250
X43000Y124250
X58000Y149250
X88000Y149250
X73000Y174250
X43000Y174250
X58000Y199250
X88000Y199250
X73000Y224250
X43000Y224250
X58000Y249250
X88000Y249250
X73000Y274250
X43000Y274250
X58000Y299250
X88000Y299250
X73000Y24250
X43000Y24250
T07
X442000Y185250
X471000Y165250
M30
