G75*
%MOIN*%
%OFA0B0*%
%FSLAX25Y25*%
%IPPOS*%
%LPD*%
%AMOC8*
5,1,8,0,0,1.08239X$1,22.5*
%
%ADD10C,0.00000*%
%ADD11C,0.06000*%
%ADD12C,0.05906*%
%ADD13C,0.15024*%
%ADD14C,0.19000*%
%ADD15C,0.04134*%
%ADD16C,0.04724*%
%ADD17C,0.03562*%
%ADD18C,0.01200*%
%ADD19C,0.05000*%
D10*
X0003000Y0004250D02*
X0003000Y0324250D01*
X0673000Y0324250D01*
X0673000Y0004250D01*
X0003000Y0004250D01*
D11*
X0013000Y0014250D03*
X0013000Y0024250D03*
X0013000Y0039250D03*
X0013000Y0049250D03*
X0013000Y0064250D03*
X0013000Y0074250D03*
X0013000Y0089250D03*
X0013000Y0099250D03*
X0013000Y0114250D03*
X0013000Y0124250D03*
X0013000Y0139250D03*
X0013000Y0149250D03*
X0013000Y0164250D03*
X0013000Y0174250D03*
X0013000Y0189250D03*
X0013000Y0199250D03*
X0013000Y0214250D03*
X0013000Y0224250D03*
X0013000Y0239250D03*
X0013000Y0249250D03*
X0013000Y0264250D03*
X0013000Y0274250D03*
X0013000Y0289250D03*
X0013000Y0299250D03*
X0631000Y0301250D03*
X0631000Y0291250D03*
X0631000Y0311250D03*
X0631000Y0037250D03*
X0631000Y0027250D03*
X0631000Y0017250D03*
D12*
X0603000Y0024250D03*
X0593000Y0024250D03*
X0593000Y0034250D03*
X0603000Y0034250D03*
X0603000Y0054250D03*
X0593000Y0054250D03*
X0593000Y0064250D03*
X0603000Y0064250D03*
X0603000Y0074250D03*
X0593000Y0074250D03*
X0593000Y0084250D03*
X0603000Y0084250D03*
X0603000Y0094250D03*
X0593000Y0094250D03*
X0593000Y0104250D03*
X0603000Y0104250D03*
X0603000Y0114250D03*
X0593000Y0114250D03*
X0593000Y0124250D03*
X0603000Y0124250D03*
X0603000Y0134250D03*
X0593000Y0134250D03*
X0593000Y0144250D03*
X0603000Y0144250D03*
X0603000Y0154250D03*
X0593000Y0154250D03*
X0593000Y0164250D03*
X0603000Y0164250D03*
X0603000Y0174250D03*
X0593000Y0174250D03*
X0593000Y0184250D03*
X0603000Y0184250D03*
X0603000Y0194250D03*
X0593000Y0194250D03*
X0577000Y0200250D03*
X0567000Y0197250D03*
X0593000Y0204250D03*
X0603000Y0204250D03*
X0603000Y0214250D03*
X0593000Y0214250D03*
X0593000Y0224250D03*
X0603000Y0224250D03*
X0603000Y0234250D03*
X0593000Y0234250D03*
X0593000Y0244250D03*
X0603000Y0244250D03*
X0603000Y0254250D03*
X0593000Y0254250D03*
X0593000Y0264250D03*
X0603000Y0264250D03*
X0603000Y0274250D03*
X0593000Y0274250D03*
X0593000Y0284250D03*
X0603000Y0284250D03*
X0603000Y0294250D03*
X0593000Y0294250D03*
X0559000Y0287250D03*
X0484000Y0318250D03*
X0471000Y0315250D03*
X0462300Y0316650D03*
X0467000Y0307250D03*
X0474000Y0304250D03*
X0476900Y0297950D03*
X0444000Y0283250D03*
X0433000Y0281250D03*
X0427500Y0274250D03*
X0421500Y0265750D03*
X0398000Y0264250D03*
X0388000Y0264250D03*
X0388000Y0254250D03*
X0398000Y0254250D03*
X0398000Y0244250D03*
X0388000Y0244250D03*
X0388000Y0234250D03*
X0398000Y0234250D03*
X0398000Y0224250D03*
X0388000Y0224250D03*
X0388000Y0214250D03*
X0398000Y0214250D03*
X0398000Y0204250D03*
X0388000Y0204250D03*
X0388000Y0194250D03*
X0398000Y0194250D03*
X0398000Y0184250D03*
X0388000Y0184250D03*
X0388000Y0174250D03*
X0398000Y0174250D03*
X0398000Y0164250D03*
X0388000Y0164250D03*
X0388000Y0154250D03*
X0398000Y0154250D03*
X0398000Y0144250D03*
X0388000Y0144250D03*
X0388000Y0134250D03*
X0398000Y0134250D03*
X0398000Y0124250D03*
X0388000Y0124250D03*
X0388000Y0114250D03*
X0398000Y0114250D03*
X0398000Y0104250D03*
X0388000Y0104250D03*
X0388000Y0094250D03*
X0398000Y0094250D03*
X0398000Y0084250D03*
X0388000Y0084250D03*
X0388000Y0074250D03*
X0398000Y0074250D03*
X0398000Y0064250D03*
X0388000Y0064250D03*
X0388000Y0054250D03*
X0398000Y0054250D03*
X0398000Y0034250D03*
X0388000Y0034250D03*
X0388000Y0024250D03*
X0398000Y0024250D03*
X0433500Y0013750D03*
X0458500Y0013250D03*
X0488000Y0013250D03*
X0517500Y0013250D03*
X0540500Y0013250D03*
X0562500Y0013750D03*
X0353000Y0054250D03*
X0323000Y0054250D03*
X0293000Y0054250D03*
X0263000Y0054250D03*
X0233000Y0054250D03*
X0203000Y0054250D03*
X0193000Y0054250D03*
X0193000Y0064250D03*
X0203000Y0064250D03*
X0203000Y0074250D03*
X0193000Y0074250D03*
X0193000Y0084250D03*
X0203000Y0084250D03*
X0203000Y0094250D03*
X0193000Y0094250D03*
X0193000Y0104250D03*
X0203000Y0104250D03*
X0203000Y0114250D03*
X0193000Y0114250D03*
X0193000Y0124250D03*
X0203000Y0124250D03*
X0203000Y0134250D03*
X0193000Y0134250D03*
X0193000Y0144250D03*
X0203000Y0144250D03*
X0203000Y0154250D03*
X0193000Y0154250D03*
X0193000Y0164250D03*
X0203000Y0164250D03*
X0203000Y0174250D03*
X0193000Y0174250D03*
X0193000Y0184250D03*
X0203000Y0184250D03*
X0203000Y0194250D03*
X0193000Y0194250D03*
X0193000Y0204250D03*
X0203000Y0204250D03*
X0203000Y0214250D03*
X0193000Y0214250D03*
X0193000Y0224250D03*
X0203000Y0224250D03*
X0223000Y0215250D03*
X0203000Y0234250D03*
X0193000Y0234250D03*
X0178000Y0234250D03*
X0163000Y0234250D03*
X0193000Y0244250D03*
X0203000Y0244250D03*
X0203000Y0254250D03*
X0193000Y0254250D03*
X0193000Y0264250D03*
X0203000Y0264250D03*
X0203000Y0274250D03*
X0193000Y0274250D03*
X0193000Y0284250D03*
X0203000Y0284250D03*
X0203000Y0294250D03*
X0193000Y0294250D03*
X0178000Y0294250D03*
X0163000Y0294250D03*
X0163000Y0264250D03*
X0178000Y0264250D03*
X0163000Y0204250D03*
X0163000Y0174250D03*
X0223000Y0187250D03*
X0223000Y0160250D03*
X0250650Y0153250D03*
X0223000Y0133250D03*
X0233000Y0114250D03*
X0263000Y0114250D03*
X0293000Y0114250D03*
X0323000Y0114250D03*
X0353000Y0114250D03*
X0353000Y0094250D03*
X0323000Y0094250D03*
X0293000Y0094250D03*
X0263000Y0094250D03*
X0233000Y0094250D03*
X0233000Y0074250D03*
X0263000Y0074250D03*
X0293000Y0074250D03*
X0323000Y0074250D03*
X0353000Y0074250D03*
X0203000Y0034250D03*
X0193000Y0034250D03*
X0193000Y0024250D03*
X0203000Y0024250D03*
X0429000Y0149250D03*
X0440000Y0149250D03*
X0452000Y0149250D03*
X0566000Y0227250D03*
X0570500Y0233250D03*
X0415000Y0298250D03*
X0398000Y0294250D03*
X0388000Y0294250D03*
X0388000Y0284250D03*
X0398000Y0284250D03*
X0398000Y0274250D03*
X0388000Y0274250D03*
X0410000Y0306250D03*
D13*
X0088000Y0299250D03*
X0058000Y0299250D03*
X0043000Y0274250D03*
X0073000Y0274250D03*
X0058000Y0249250D03*
X0088000Y0249250D03*
X0073000Y0224250D03*
X0043000Y0224250D03*
X0058000Y0199250D03*
X0088000Y0199250D03*
X0073000Y0174250D03*
X0043000Y0174250D03*
X0058000Y0149250D03*
X0088000Y0149250D03*
X0073000Y0124250D03*
X0043000Y0124250D03*
X0058000Y0099250D03*
X0088000Y0099250D03*
X0073000Y0074250D03*
X0043000Y0074250D03*
X0058000Y0049250D03*
X0088000Y0049250D03*
X0073000Y0024250D03*
X0043000Y0024250D03*
D14*
X0442000Y0185250D03*
X0471000Y0165250D03*
D15*
X0553000Y0089250D03*
X0631524Y0120994D03*
X0631524Y0198994D03*
X0631524Y0276494D03*
X0482000Y0039250D03*
D16*
X0631524Y0056427D03*
X0631524Y0068238D03*
X0631524Y0076112D03*
X0631524Y0083986D03*
X0631524Y0091860D03*
X0631524Y0134427D03*
X0631524Y0146238D03*
X0631524Y0154112D03*
X0631524Y0161986D03*
X0631524Y0169860D03*
X0631524Y0211927D03*
X0631524Y0223738D03*
X0631524Y0231612D03*
X0631524Y0239486D03*
X0631524Y0247360D03*
D17*
X0569500Y0242250D03*
X0549000Y0241250D03*
X0550000Y0250250D03*
X0530000Y0254250D03*
X0501500Y0248750D03*
X0491500Y0234750D03*
X0480500Y0236750D03*
X0481000Y0226250D03*
X0459000Y0239250D03*
X0422000Y0212250D03*
X0481000Y0206250D03*
X0529000Y0220750D03*
X0539000Y0221250D03*
X0548000Y0221250D03*
X0532000Y0240250D03*
X0464000Y0271250D03*
X0478000Y0274250D03*
X0456500Y0283750D03*
X0502500Y0308750D03*
X0304000Y0188250D03*
X0258000Y0160250D03*
X0549500Y0179250D03*
D18*
X0564648Y0193729D02*
X0566174Y0193097D01*
X0567826Y0193097D01*
X0569352Y0193729D01*
X0570521Y0194898D01*
X0571153Y0196424D01*
X0571153Y0198076D01*
X0570521Y0199602D01*
X0569352Y0200771D01*
X0567826Y0201403D01*
X0566174Y0201403D01*
X0564648Y0200771D01*
X0563479Y0199602D01*
X0562847Y0198076D01*
X0562847Y0196424D01*
X0563479Y0194898D01*
X0564648Y0193729D01*
X0564924Y0193615D02*
X0448767Y0193615D01*
X0448570Y0193812D02*
X0446130Y0195221D01*
X0443409Y0195950D01*
X0440591Y0195950D01*
X0437870Y0195221D01*
X0435430Y0193812D01*
X0433438Y0191820D01*
X0432029Y0189380D01*
X0431300Y0186659D01*
X0431300Y0183841D01*
X0432029Y0181120D01*
X0433438Y0178680D01*
X0435430Y0176688D01*
X0437870Y0175279D01*
X0440591Y0174550D01*
X0443409Y0174550D01*
X0446130Y0175279D01*
X0448570Y0176688D01*
X0450562Y0178680D01*
X0451971Y0181120D01*
X0452700Y0183841D01*
X0452700Y0186659D01*
X0451971Y0189380D01*
X0450562Y0191820D01*
X0448570Y0193812D01*
X0449966Y0192416D02*
X0586425Y0192416D01*
X0586418Y0191218D02*
X0450910Y0191218D01*
X0451602Y0190019D02*
X0586411Y0190019D01*
X0586404Y0188821D02*
X0452121Y0188821D01*
X0452442Y0187622D02*
X0586398Y0187622D01*
X0586391Y0186424D02*
X0452700Y0186424D01*
X0452700Y0185225D02*
X0586384Y0185225D01*
X0586377Y0184027D02*
X0452700Y0184027D01*
X0452429Y0182828D02*
X0586370Y0182828D01*
X0586363Y0181630D02*
X0452107Y0181630D01*
X0451573Y0180431D02*
X0586356Y0180431D01*
X0586349Y0179233D02*
X0450881Y0179233D01*
X0449916Y0178034D02*
X0586342Y0178034D01*
X0586335Y0176836D02*
X0448718Y0176836D01*
X0446750Y0175637D02*
X0468424Y0175637D01*
X0469591Y0175950D02*
X0466870Y0175221D01*
X0464430Y0173812D01*
X0462438Y0171820D01*
X0461029Y0169380D01*
X0460300Y0166659D01*
X0460300Y0163841D01*
X0461029Y0161120D01*
X0462438Y0158680D01*
X0464430Y0156688D01*
X0466870Y0155279D01*
X0469591Y0154550D01*
X0472409Y0154550D01*
X0475130Y0155279D01*
X0477570Y0156688D01*
X0479562Y0158680D01*
X0480971Y0161120D01*
X0481700Y0163841D01*
X0481700Y0166659D01*
X0480971Y0169380D01*
X0479562Y0171820D01*
X0477570Y0173812D01*
X0475130Y0175221D01*
X0472409Y0175950D01*
X0469591Y0175950D01*
X0473576Y0175637D02*
X0586328Y0175637D01*
X0586321Y0174439D02*
X0476485Y0174439D01*
X0478142Y0173240D02*
X0586314Y0173240D01*
X0586307Y0172042D02*
X0479340Y0172042D01*
X0480126Y0170843D02*
X0586300Y0170843D01*
X0586293Y0169645D02*
X0480818Y0169645D01*
X0481221Y0168446D02*
X0586286Y0168446D01*
X0586279Y0167248D02*
X0481542Y0167248D01*
X0481700Y0166049D02*
X0586272Y0166049D01*
X0586265Y0164851D02*
X0481700Y0164851D01*
X0481649Y0163652D02*
X0586258Y0163652D01*
X0586251Y0162453D02*
X0481328Y0162453D01*
X0481007Y0161255D02*
X0586244Y0161255D01*
X0586237Y0160056D02*
X0480357Y0160056D01*
X0479665Y0158858D02*
X0586230Y0158858D01*
X0586223Y0157659D02*
X0478542Y0157659D01*
X0477177Y0156461D02*
X0586216Y0156461D01*
X0586209Y0155262D02*
X0475067Y0155262D01*
X0466932Y0155262D02*
X0405000Y0155262D01*
X0405000Y0154064D02*
X0586202Y0154064D01*
X0586195Y0152865D02*
X0454123Y0152865D01*
X0454352Y0152771D02*
X0452826Y0153403D01*
X0451174Y0153403D01*
X0449648Y0152771D01*
X0448479Y0151602D01*
X0447847Y0150076D01*
X0447847Y0148424D01*
X0448479Y0146898D01*
X0449648Y0145729D01*
X0451174Y0145097D01*
X0452826Y0145097D01*
X0454352Y0145729D01*
X0455521Y0146898D01*
X0456153Y0148424D01*
X0456153Y0150076D01*
X0455521Y0151602D01*
X0454352Y0152771D01*
X0455456Y0151667D02*
X0586188Y0151667D01*
X0586182Y0150468D02*
X0455990Y0150468D01*
X0456153Y0149270D02*
X0586175Y0149270D01*
X0586168Y0148071D02*
X0456007Y0148071D01*
X0455496Y0146873D02*
X0586161Y0146873D01*
X0586154Y0145674D02*
X0454219Y0145674D01*
X0449781Y0145674D02*
X0442219Y0145674D01*
X0442352Y0145729D02*
X0443521Y0146898D01*
X0444153Y0148424D01*
X0444153Y0150076D01*
X0443521Y0151602D01*
X0442352Y0152771D01*
X0440826Y0153403D01*
X0439174Y0153403D01*
X0437648Y0152771D01*
X0436479Y0151602D01*
X0435847Y0150076D01*
X0435847Y0148424D01*
X0436479Y0146898D01*
X0437648Y0145729D01*
X0439174Y0145097D01*
X0440826Y0145097D01*
X0442352Y0145729D01*
X0443496Y0146873D02*
X0448504Y0146873D01*
X0447993Y0148071D02*
X0444007Y0148071D01*
X0444153Y0149270D02*
X0447847Y0149270D01*
X0448010Y0150468D02*
X0443990Y0150468D01*
X0443456Y0151667D02*
X0448544Y0151667D01*
X0449877Y0152865D02*
X0442123Y0152865D01*
X0437877Y0152865D02*
X0431123Y0152865D01*
X0431352Y0152771D02*
X0429826Y0153403D01*
X0428174Y0153403D01*
X0426648Y0152771D01*
X0425479Y0151602D01*
X0424847Y0150076D01*
X0424847Y0148424D01*
X0425479Y0146898D01*
X0426648Y0145729D01*
X0428174Y0145097D01*
X0429826Y0145097D01*
X0431352Y0145729D01*
X0432521Y0146898D01*
X0433153Y0148424D01*
X0433153Y0150076D01*
X0432521Y0151602D01*
X0431352Y0152771D01*
X0432456Y0151667D02*
X0436544Y0151667D01*
X0436010Y0150468D02*
X0432990Y0150468D01*
X0433153Y0149270D02*
X0435847Y0149270D01*
X0435993Y0148071D02*
X0433007Y0148071D01*
X0432496Y0146873D02*
X0436504Y0146873D01*
X0437781Y0145674D02*
X0431219Y0145674D01*
X0426781Y0145674D02*
X0402324Y0145674D01*
X0403000Y0145674D01*
X0402441Y0145316D02*
X0402219Y0145998D01*
X0401894Y0146636D01*
X0401473Y0147216D01*
X0400966Y0147723D01*
X0400386Y0148144D01*
X0399748Y0148469D01*
X0399066Y0148691D01*
X0398384Y0148799D01*
X0398384Y0144634D01*
X0402549Y0144634D01*
X0402441Y0145316D01*
X0402219Y0145998D01*
X0401894Y0146636D01*
X0401473Y0147216D01*
X0400966Y0147723D01*
X0400386Y0148144D01*
X0399748Y0148469D01*
X0399066Y0148691D01*
X0398384Y0148799D01*
X0398384Y0144634D01*
X0398384Y0143866D01*
X0398384Y0139701D01*
X0399066Y0139809D01*
X0399748Y0140031D01*
X0400386Y0140356D01*
X0400966Y0140777D01*
X0401473Y0141284D01*
X0401894Y0141864D01*
X0402219Y0142502D01*
X0402441Y0143184D01*
X0402549Y0143866D01*
X0398384Y0143866D01*
X0397616Y0143866D01*
X0397616Y0139701D01*
X0396934Y0139809D01*
X0396252Y0140031D01*
X0395614Y0140356D01*
X0395034Y0140777D01*
X0394527Y0141284D01*
X0394106Y0141864D01*
X0393781Y0142502D01*
X0393559Y0143184D01*
X0393451Y0143866D01*
X0397616Y0143866D01*
X0397616Y0144634D01*
X0393451Y0144634D01*
X0393559Y0145316D01*
X0393781Y0145998D01*
X0394106Y0146636D01*
X0394527Y0147216D01*
X0395034Y0147723D01*
X0395614Y0148144D01*
X0396252Y0148469D01*
X0396934Y0148691D01*
X0397616Y0148799D01*
X0397616Y0144634D01*
X0397616Y0143866D01*
X0398384Y0143866D01*
X0398384Y0139701D01*
X0399066Y0139809D01*
X0399748Y0140031D01*
X0400386Y0140356D01*
X0400966Y0140777D01*
X0401473Y0141284D01*
X0401894Y0141864D01*
X0402219Y0142502D01*
X0402441Y0143184D01*
X0402549Y0143866D01*
X0398384Y0143866D01*
X0398384Y0144634D01*
X0397616Y0144634D01*
X0393451Y0144634D01*
X0393559Y0145316D01*
X0393781Y0145998D01*
X0394106Y0146636D01*
X0394527Y0147216D01*
X0395034Y0147723D01*
X0395614Y0148144D01*
X0396252Y0148469D01*
X0396934Y0148691D01*
X0397616Y0148799D01*
X0397616Y0144634D01*
X0398384Y0144634D01*
X0402549Y0144634D01*
X0402441Y0145316D01*
X0403000Y0144476D02*
X0398384Y0144476D01*
X0586147Y0144476D01*
X0586140Y0143277D02*
X0402455Y0143277D01*
X0403000Y0143277D01*
X0403000Y0142079D02*
X0402003Y0142079D01*
X0586133Y0142079D01*
X0586126Y0140880D02*
X0401069Y0140880D01*
X0403000Y0140880D01*
X0403000Y0139682D02*
X0033000Y0139682D01*
X0033000Y0140880D02*
X0054396Y0140880D01*
X0053961Y0141060D02*
X0055065Y0140603D01*
X0056219Y0140294D01*
X0057400Y0140139D01*
X0057400Y0148650D01*
X0058600Y0148650D01*
X0058600Y0149850D01*
X0067111Y0149850D01*
X0066956Y0151031D01*
X0066647Y0152185D01*
X0066190Y0153289D01*
X0065592Y0154323D01*
X0064865Y0155271D01*
X0064021Y0156115D01*
X0063073Y0156842D01*
X0062039Y0157440D01*
X0060935Y0157897D01*
X0059781Y0158206D01*
X0058600Y0158361D01*
X0058600Y0149850D01*
X0057400Y0149850D01*
X0057400Y0158361D01*
X0056219Y0158206D01*
X0055065Y0157897D01*
X0053961Y0157440D01*
X0052927Y0156842D01*
X0051979Y0156115D01*
X0051135Y0155271D01*
X0050408Y0154323D01*
X0049810Y0153289D01*
X0049353Y0152185D01*
X0049044Y0151031D01*
X0048889Y0149850D01*
X0057400Y0149850D01*
X0057400Y0148650D01*
X0048889Y0148650D01*
X0049044Y0147469D01*
X0049353Y0146315D01*
X0049810Y0145211D01*
X0050408Y0144177D01*
X0051135Y0143229D01*
X0051979Y0142385D01*
X0052927Y0141658D01*
X0053961Y0141060D01*
X0052378Y0142079D02*
X0033000Y0142079D01*
X0033000Y0143277D02*
X0051098Y0143277D01*
X0050235Y0144476D02*
X0033000Y0144476D01*
X0033000Y0145674D02*
X0049619Y0145674D01*
X0049204Y0146873D02*
X0033000Y0146873D01*
X0033000Y0148071D02*
X0048965Y0148071D01*
X0048970Y0150468D02*
X0033000Y0150468D01*
X0033000Y0149270D02*
X0057400Y0149270D01*
X0057400Y0150468D02*
X0058600Y0150468D01*
X0058600Y0149270D02*
X0073000Y0149270D01*
X0073000Y0149250D02*
X0079288Y0149250D01*
X0079288Y0147517D01*
X0080614Y0144315D01*
X0083065Y0141864D01*
X0086267Y0140538D01*
X0089733Y0140538D01*
X0092935Y0141864D01*
X0095386Y0144315D01*
X0096712Y0147517D01*
X0096712Y0149250D01*
X0249455Y0149250D01*
X0249824Y0149097D01*
X0251476Y0149097D01*
X0251845Y0149250D01*
X0403000Y0149250D01*
X0403000Y0049250D01*
X0183000Y0049250D01*
X0183000Y0009250D01*
X0033000Y0009250D01*
X0033000Y0299250D01*
X0057400Y0299250D01*
X0057400Y0298650D01*
X0058600Y0298650D01*
X0058600Y0299250D01*
X0073000Y0299250D01*
X0073000Y0282962D01*
X0071267Y0282962D01*
X0068065Y0281636D01*
X0065614Y0279185D01*
X0064288Y0275983D01*
X0064288Y0272517D01*
X0065614Y0269315D01*
X0068065Y0266864D01*
X0071267Y0265538D01*
X0073000Y0265538D01*
X0073000Y0232962D01*
X0071267Y0232962D01*
X0068065Y0231636D01*
X0065614Y0229185D01*
X0064288Y0225983D01*
X0064288Y0222517D01*
X0065614Y0219315D01*
X0068065Y0216864D01*
X0071267Y0215538D01*
X0073000Y0215538D01*
X0073000Y0182962D01*
X0071267Y0182962D01*
X0068065Y0181636D01*
X0065614Y0179185D01*
X0064288Y0175983D01*
X0064288Y0172517D01*
X0065614Y0169315D01*
X0068065Y0166864D01*
X0071267Y0165538D01*
X0073000Y0165538D01*
X0073000Y0149250D01*
X0073000Y0150468D02*
X0067030Y0150468D01*
X0066786Y0151667D02*
X0073000Y0151667D01*
X0073000Y0152865D02*
X0066365Y0152865D01*
X0065742Y0154064D02*
X0073000Y0154064D01*
X0073000Y0155262D02*
X0064872Y0155262D01*
X0063570Y0156461D02*
X0073000Y0156461D01*
X0073000Y0157659D02*
X0061508Y0157659D01*
X0058600Y0157659D02*
X0057400Y0157659D01*
X0057400Y0156461D02*
X0058600Y0156461D01*
X0058600Y0155262D02*
X0057400Y0155262D01*
X0057400Y0154064D02*
X0058600Y0154064D01*
X0058600Y0152865D02*
X0057400Y0152865D01*
X0057400Y0151667D02*
X0058600Y0151667D01*
X0058600Y0148650D02*
X0067111Y0148650D01*
X0066956Y0147469D01*
X0066647Y0146315D01*
X0066190Y0145211D01*
X0065592Y0144177D01*
X0064865Y0143229D01*
X0064021Y0142385D01*
X0063073Y0141658D01*
X0062039Y0141060D01*
X0060935Y0140603D01*
X0059781Y0140294D01*
X0058600Y0140139D01*
X0058600Y0148650D01*
X0058600Y0148071D02*
X0057400Y0148071D01*
X0057400Y0146873D02*
X0058600Y0146873D01*
X0058600Y0145674D02*
X0057400Y0145674D01*
X0057400Y0144476D02*
X0058600Y0144476D01*
X0058600Y0143277D02*
X0057400Y0143277D01*
X0057400Y0142079D02*
X0058600Y0142079D01*
X0058600Y0140880D02*
X0057400Y0140880D01*
X0061604Y0140880D02*
X0085441Y0140880D01*
X0082851Y0142079D02*
X0063622Y0142079D01*
X0064902Y0143277D02*
X0081652Y0143277D01*
X0080548Y0144476D02*
X0065765Y0144476D01*
X0066381Y0145674D02*
X0080051Y0145674D01*
X0079555Y0146873D02*
X0066796Y0146873D01*
X0067035Y0148071D02*
X0079288Y0148071D01*
X0090559Y0140880D02*
X0189931Y0140880D01*
X0190034Y0140777D02*
X0190614Y0140356D01*
X0191252Y0140031D01*
X0191934Y0139809D01*
X0192616Y0139701D01*
X0192616Y0143866D01*
X0193384Y0143866D01*
X0193384Y0139701D01*
X0194066Y0139809D01*
X0194748Y0140031D01*
X0195386Y0140356D01*
X0195966Y0140777D01*
X0196473Y0141284D01*
X0196894Y0141864D01*
X0197219Y0142502D01*
X0197441Y0143184D01*
X0197549Y0143866D01*
X0193384Y0143866D01*
X0193384Y0144634D01*
X0197549Y0144634D01*
X0197441Y0145316D01*
X0197219Y0145998D01*
X0196894Y0146636D01*
X0196473Y0147216D01*
X0195966Y0147723D01*
X0195386Y0148144D01*
X0194748Y0148469D01*
X0194066Y0148691D01*
X0193384Y0148799D01*
X0193384Y0144634D01*
X0192616Y0144634D01*
X0192616Y0143866D01*
X0188451Y0143866D01*
X0188559Y0143184D01*
X0188781Y0142502D01*
X0189106Y0141864D01*
X0189527Y0141284D01*
X0190034Y0140777D01*
X0188997Y0142079D02*
X0093149Y0142079D01*
X0094348Y0143277D02*
X0188545Y0143277D01*
X0188451Y0144634D02*
X0192616Y0144634D01*
X0192616Y0148799D01*
X0191934Y0148691D01*
X0191252Y0148469D01*
X0190614Y0148144D01*
X0190034Y0147723D01*
X0189527Y0147216D01*
X0189106Y0146636D01*
X0188781Y0145998D01*
X0188559Y0145316D01*
X0188451Y0144634D01*
X0188676Y0145674D02*
X0095948Y0145674D01*
X0095452Y0144476D02*
X0192616Y0144476D01*
X0193384Y0144476D02*
X0202616Y0144476D01*
X0202616Y0144634D02*
X0202616Y0143866D01*
X0203384Y0143866D01*
X0203384Y0139701D01*
X0204066Y0139809D01*
X0204748Y0140031D01*
X0205386Y0140356D01*
X0205966Y0140777D01*
X0206473Y0141284D01*
X0206894Y0141864D01*
X0207219Y0142502D01*
X0207441Y0143184D01*
X0207549Y0143866D01*
X0203384Y0143866D01*
X0203384Y0144634D01*
X0207549Y0144634D01*
X0207441Y0145316D01*
X0207219Y0145998D01*
X0206894Y0146636D01*
X0206473Y0147216D01*
X0205966Y0147723D01*
X0205386Y0148144D01*
X0204748Y0148469D01*
X0204066Y0148691D01*
X0203384Y0148799D01*
X0203384Y0144634D01*
X0202616Y0144634D01*
X0198451Y0144634D01*
X0198559Y0145316D01*
X0198781Y0145998D01*
X0199106Y0146636D01*
X0199527Y0147216D01*
X0200034Y0147723D01*
X0200614Y0148144D01*
X0201252Y0148469D01*
X0201934Y0148691D01*
X0202616Y0148799D01*
X0202616Y0144634D01*
X0202616Y0143866D02*
X0198451Y0143866D01*
X0198559Y0143184D01*
X0198781Y0142502D01*
X0199106Y0141864D01*
X0199527Y0141284D01*
X0200034Y0140777D01*
X0200614Y0140356D01*
X0201252Y0140031D01*
X0201934Y0139809D01*
X0202616Y0139701D01*
X0202616Y0143866D01*
X0202616Y0143277D02*
X0203384Y0143277D01*
X0203384Y0142079D02*
X0202616Y0142079D01*
X0202616Y0140880D02*
X0203384Y0140880D01*
X0203384Y0138799D02*
X0204066Y0138691D01*
X0204748Y0138469D01*
X0205386Y0138144D01*
X0205966Y0137723D01*
X0206473Y0137216D01*
X0206894Y0136636D01*
X0207219Y0135998D01*
X0207441Y0135316D01*
X0207549Y0134634D01*
X0203384Y0134634D01*
X0203384Y0133866D01*
X0203384Y0129701D01*
X0204066Y0129809D01*
X0204748Y0130031D01*
X0205386Y0130356D01*
X0205966Y0130777D01*
X0206473Y0131284D01*
X0206894Y0131864D01*
X0207219Y0132502D01*
X0207441Y0133184D01*
X0207549Y0133866D01*
X0203384Y0133866D01*
X0202616Y0133866D01*
X0202616Y0129701D01*
X0201934Y0129809D01*
X0201252Y0130031D01*
X0200614Y0130356D01*
X0200034Y0130777D01*
X0199527Y0131284D01*
X0199106Y0131864D01*
X0198781Y0132502D01*
X0198559Y0133184D01*
X0198451Y0133866D01*
X0202616Y0133866D01*
X0202616Y0134634D01*
X0198451Y0134634D01*
X0198559Y0135316D01*
X0198781Y0135998D01*
X0199106Y0136636D01*
X0199527Y0137216D01*
X0200034Y0137723D01*
X0200614Y0138144D01*
X0201252Y0138469D01*
X0201934Y0138691D01*
X0202616Y0138799D01*
X0202616Y0134634D01*
X0203384Y0134634D01*
X0203384Y0138799D01*
X0203384Y0138483D02*
X0202616Y0138483D01*
X0202616Y0137285D02*
X0203384Y0137285D01*
X0203384Y0136086D02*
X0202616Y0136086D01*
X0202616Y0134888D02*
X0203384Y0134888D01*
X0203384Y0133689D02*
X0202616Y0133689D01*
X0202616Y0132491D02*
X0203384Y0132491D01*
X0203384Y0131292D02*
X0202616Y0131292D01*
X0202616Y0130094D02*
X0203384Y0130094D01*
X0203384Y0128799D02*
X0204066Y0128691D01*
X0204748Y0128469D01*
X0205386Y0128144D01*
X0205966Y0127723D01*
X0206473Y0127216D01*
X0206894Y0126636D01*
X0207219Y0125998D01*
X0207441Y0125316D01*
X0207549Y0124634D01*
X0203384Y0124634D01*
X0203384Y0123866D01*
X0203384Y0119701D01*
X0204066Y0119809D01*
X0204748Y0120031D01*
X0205386Y0120356D01*
X0205966Y0120777D01*
X0206473Y0121284D01*
X0206894Y0121864D01*
X0207219Y0122502D01*
X0207441Y0123184D01*
X0207549Y0123866D01*
X0203384Y0123866D01*
X0202616Y0123866D01*
X0202616Y0119701D01*
X0201934Y0119809D01*
X0201252Y0120031D01*
X0200614Y0120356D01*
X0200034Y0120777D01*
X0199527Y0121284D01*
X0199106Y0121864D01*
X0198781Y0122502D01*
X0198559Y0123184D01*
X0198451Y0123866D01*
X0202616Y0123866D01*
X0202616Y0124634D01*
X0198451Y0124634D01*
X0198559Y0125316D01*
X0198781Y0125998D01*
X0199106Y0126636D01*
X0199527Y0127216D01*
X0200034Y0127723D01*
X0200614Y0128144D01*
X0201252Y0128469D01*
X0201934Y0128691D01*
X0202616Y0128799D01*
X0202616Y0124634D01*
X0203384Y0124634D01*
X0203384Y0128799D01*
X0203384Y0127697D02*
X0202616Y0127697D01*
X0202616Y0126498D02*
X0203384Y0126498D01*
X0203384Y0125300D02*
X0202616Y0125300D01*
X0202616Y0124101D02*
X0193384Y0124101D01*
X0193384Y0123866D02*
X0193384Y0124634D01*
X0197549Y0124634D01*
X0197441Y0125316D01*
X0197219Y0125998D01*
X0196894Y0126636D01*
X0196473Y0127216D01*
X0195966Y0127723D01*
X0195386Y0128144D01*
X0194748Y0128469D01*
X0194066Y0128691D01*
X0193384Y0128799D01*
X0193384Y0124634D01*
X0192616Y0124634D01*
X0192616Y0123866D01*
X0193384Y0123866D01*
X0193384Y0119701D01*
X0194066Y0119809D01*
X0194748Y0120031D01*
X0195386Y0120356D01*
X0195966Y0120777D01*
X0196473Y0121284D01*
X0196894Y0121864D01*
X0197219Y0122502D01*
X0197441Y0123184D01*
X0197549Y0123866D01*
X0193384Y0123866D01*
X0192616Y0123866D02*
X0192616Y0119701D01*
X0191934Y0119809D01*
X0191252Y0120031D01*
X0190614Y0120356D01*
X0190034Y0120777D01*
X0189527Y0121284D01*
X0189106Y0121864D01*
X0188781Y0122502D01*
X0188559Y0123184D01*
X0188451Y0123866D01*
X0192616Y0123866D01*
X0192616Y0124101D02*
X0081712Y0124101D01*
X0081712Y0122903D02*
X0188651Y0122903D01*
X0189222Y0121704D02*
X0081375Y0121704D01*
X0081712Y0122517D02*
X0080386Y0119315D01*
X0077935Y0116864D01*
X0074733Y0115538D01*
X0071267Y0115538D01*
X0068065Y0116864D01*
X0065614Y0119315D01*
X0064288Y0122517D01*
X0064288Y0125983D01*
X0065614Y0129185D01*
X0068065Y0131636D01*
X0071267Y0132962D01*
X0074733Y0132962D01*
X0077935Y0131636D01*
X0080386Y0129185D01*
X0081712Y0125983D01*
X0081712Y0122517D01*
X0080879Y0120506D02*
X0190408Y0120506D01*
X0191252Y0118469D02*
X0190614Y0118144D01*
X0190034Y0117723D01*
X0189527Y0117216D01*
X0189106Y0116636D01*
X0188781Y0115998D01*
X0188559Y0115316D01*
X0188451Y0114634D01*
X0192616Y0114634D01*
X0192616Y0113866D01*
X0193384Y0113866D01*
X0193384Y0109701D01*
X0194066Y0109809D01*
X0194748Y0110031D01*
X0195386Y0110356D01*
X0195966Y0110777D01*
X0196473Y0111284D01*
X0196894Y0111864D01*
X0197219Y0112502D01*
X0197441Y0113184D01*
X0197549Y0113866D01*
X0193384Y0113866D01*
X0193384Y0114634D01*
X0197549Y0114634D01*
X0197441Y0115316D01*
X0197219Y0115998D01*
X0196894Y0116636D01*
X0196473Y0117216D01*
X0195966Y0117723D01*
X0195386Y0118144D01*
X0194748Y0118469D01*
X0194066Y0118691D01*
X0193384Y0118799D01*
X0193384Y0114634D01*
X0192616Y0114634D01*
X0192616Y0118799D01*
X0191934Y0118691D01*
X0191252Y0118469D01*
X0190565Y0118109D02*
X0079179Y0118109D01*
X0080377Y0119307D02*
X0403000Y0119307D01*
X0403000Y0118109D02*
X0400435Y0118109D01*
X0400386Y0118144D02*
X0399748Y0118469D01*
X0399066Y0118691D01*
X0398384Y0118799D01*
X0398384Y0114634D01*
X0402549Y0114634D01*
X0402441Y0115316D01*
X0402219Y0115998D01*
X0401894Y0116636D01*
X0401473Y0117216D01*
X0400966Y0117723D01*
X0400386Y0118144D01*
X0401695Y0116910D02*
X0403000Y0116910D01*
X0403000Y0115712D02*
X0402312Y0115712D01*
X0403000Y0114513D02*
X0398384Y0114513D01*
X0398384Y0114634D02*
X0398384Y0113866D01*
X0398384Y0109701D01*
X0399066Y0109809D01*
X0399748Y0110031D01*
X0400386Y0110356D01*
X0400966Y0110777D01*
X0401473Y0111284D01*
X0401894Y0111864D01*
X0402219Y0112502D01*
X0402441Y0113184D01*
X0402549Y0113866D01*
X0398384Y0113866D01*
X0397616Y0113866D01*
X0397616Y0109701D01*
X0396934Y0109809D01*
X0396252Y0110031D01*
X0395614Y0110356D01*
X0395034Y0110777D01*
X0394527Y0111284D01*
X0394106Y0111864D01*
X0393781Y0112502D01*
X0393559Y0113184D01*
X0393451Y0113866D01*
X0397616Y0113866D01*
X0397616Y0114634D01*
X0393451Y0114634D01*
X0393559Y0115316D01*
X0393781Y0115998D01*
X0394106Y0116636D01*
X0394527Y0117216D01*
X0395034Y0117723D01*
X0395614Y0118144D01*
X0396252Y0118469D01*
X0396934Y0118691D01*
X0397616Y0118799D01*
X0397616Y0114634D01*
X0398384Y0114634D01*
X0397616Y0114513D02*
X0388384Y0114513D01*
X0388384Y0114634D02*
X0392549Y0114634D01*
X0392441Y0115316D01*
X0392219Y0115998D01*
X0391894Y0116636D01*
X0391473Y0117216D01*
X0390966Y0117723D01*
X0390386Y0118144D01*
X0389748Y0118469D01*
X0389066Y0118691D01*
X0388384Y0118799D01*
X0388384Y0114634D01*
X0388384Y0113866D01*
X0388384Y0109701D01*
X0389066Y0109809D01*
X0389748Y0110031D01*
X0390386Y0110356D01*
X0390966Y0110777D01*
X0391473Y0111284D01*
X0391894Y0111864D01*
X0392219Y0112502D01*
X0392441Y0113184D01*
X0392549Y0113866D01*
X0388384Y0113866D01*
X0387616Y0113866D01*
X0387616Y0109701D01*
X0386934Y0109809D01*
X0386252Y0110031D01*
X0385614Y0110356D01*
X0385034Y0110777D01*
X0384527Y0111284D01*
X0384106Y0111864D01*
X0383781Y0112502D01*
X0383559Y0113184D01*
X0383451Y0113866D01*
X0387616Y0113866D01*
X0387616Y0114634D01*
X0383451Y0114634D01*
X0383559Y0115316D01*
X0383781Y0115998D01*
X0384106Y0116636D01*
X0384527Y0117216D01*
X0385034Y0117723D01*
X0385614Y0118144D01*
X0386252Y0118469D01*
X0386934Y0118691D01*
X0387616Y0118799D01*
X0387616Y0114634D01*
X0388384Y0114634D01*
X0387616Y0114513D02*
X0203384Y0114513D01*
X0203384Y0114634D02*
X0207549Y0114634D01*
X0207441Y0115316D01*
X0207219Y0115998D01*
X0206894Y0116636D01*
X0206473Y0117216D01*
X0205966Y0117723D01*
X0205386Y0118144D01*
X0204748Y0118469D01*
X0204066Y0118691D01*
X0203384Y0118799D01*
X0203384Y0114634D01*
X0203384Y0113866D01*
X0203384Y0109701D01*
X0204066Y0109809D01*
X0204748Y0110031D01*
X0205386Y0110356D01*
X0205966Y0110777D01*
X0206473Y0111284D01*
X0206894Y0111864D01*
X0207219Y0112502D01*
X0207441Y0113184D01*
X0207549Y0113866D01*
X0203384Y0113866D01*
X0202616Y0113866D01*
X0202616Y0109701D01*
X0201934Y0109809D01*
X0201252Y0110031D01*
X0200614Y0110356D01*
X0200034Y0110777D01*
X0199527Y0111284D01*
X0199106Y0111864D01*
X0198781Y0112502D01*
X0198559Y0113184D01*
X0198451Y0113866D01*
X0202616Y0113866D01*
X0202616Y0114634D01*
X0198451Y0114634D01*
X0198559Y0115316D01*
X0198781Y0115998D01*
X0199106Y0116636D01*
X0199527Y0117216D01*
X0200034Y0117723D01*
X0200614Y0118144D01*
X0201252Y0118469D01*
X0201934Y0118691D01*
X0202616Y0118799D01*
X0202616Y0114634D01*
X0203384Y0114634D01*
X0202616Y0114513D02*
X0193384Y0114513D01*
X0192616Y0114513D02*
X0033000Y0114513D01*
X0033000Y0113315D02*
X0188539Y0113315D01*
X0188559Y0113184D02*
X0188781Y0112502D01*
X0189106Y0111864D01*
X0189527Y0111284D01*
X0190034Y0110777D01*
X0190614Y0110356D01*
X0191252Y0110031D01*
X0191934Y0109809D01*
X0192616Y0109701D01*
X0192616Y0113866D01*
X0188451Y0113866D01*
X0188559Y0113184D01*
X0188978Y0112116D02*
X0033000Y0112116D01*
X0033000Y0110918D02*
X0189894Y0110918D01*
X0192616Y0110918D02*
X0193384Y0110918D01*
X0193384Y0112116D02*
X0192616Y0112116D01*
X0192616Y0113315D02*
X0193384Y0113315D01*
X0193384Y0115712D02*
X0192616Y0115712D01*
X0192616Y0116910D02*
X0193384Y0116910D01*
X0193384Y0118109D02*
X0192616Y0118109D01*
X0192616Y0120506D02*
X0193384Y0120506D01*
X0193384Y0121704D02*
X0192616Y0121704D01*
X0192616Y0122903D02*
X0193384Y0122903D01*
X0192616Y0124634D02*
X0188451Y0124634D01*
X0188559Y0125316D01*
X0188781Y0125998D01*
X0189106Y0126636D01*
X0189527Y0127216D01*
X0190034Y0127723D01*
X0190614Y0128144D01*
X0191252Y0128469D01*
X0191934Y0128691D01*
X0192616Y0128799D01*
X0192616Y0124634D01*
X0192616Y0125300D02*
X0193384Y0125300D01*
X0193384Y0126498D02*
X0192616Y0126498D01*
X0192616Y0127697D02*
X0193384Y0127697D01*
X0193384Y0129701D02*
X0194066Y0129809D01*
X0194748Y0130031D01*
X0195386Y0130356D01*
X0195966Y0130777D01*
X0196473Y0131284D01*
X0196894Y0131864D01*
X0197219Y0132502D01*
X0197441Y0133184D01*
X0197549Y0133866D01*
X0193384Y0133866D01*
X0193384Y0129701D01*
X0193384Y0130094D02*
X0192616Y0130094D01*
X0192616Y0129701D02*
X0192616Y0133866D01*
X0193384Y0133866D01*
X0193384Y0134634D01*
X0197549Y0134634D01*
X0197441Y0135316D01*
X0197219Y0135998D01*
X0196894Y0136636D01*
X0196473Y0137216D01*
X0195966Y0137723D01*
X0195386Y0138144D01*
X0194748Y0138469D01*
X0194066Y0138691D01*
X0193384Y0138799D01*
X0193384Y0134634D01*
X0192616Y0134634D01*
X0192616Y0133866D01*
X0188451Y0133866D01*
X0188559Y0133184D01*
X0188781Y0132502D01*
X0189106Y0131864D01*
X0189527Y0131284D01*
X0190034Y0130777D01*
X0190614Y0130356D01*
X0191252Y0130031D01*
X0191934Y0129809D01*
X0192616Y0129701D01*
X0191129Y0130094D02*
X0079477Y0130094D01*
X0080505Y0128895D02*
X0403000Y0128895D01*
X0403000Y0127697D02*
X0400992Y0127697D01*
X0586049Y0127697D01*
X0586056Y0128895D02*
X0382322Y0128895D01*
X0382282Y0127697D02*
X0385008Y0127697D01*
X0205992Y0127697D01*
X0206964Y0126498D02*
X0384036Y0126498D01*
X0382242Y0126498D01*
X0382202Y0125300D02*
X0383557Y0125300D01*
X0207443Y0125300D01*
X0207349Y0122903D02*
X0383651Y0122903D01*
X0382122Y0122903D01*
X0382162Y0124101D02*
X0387616Y0124101D01*
X0203384Y0124101D01*
X0203384Y0122903D02*
X0202616Y0122903D01*
X0202616Y0121704D02*
X0203384Y0121704D01*
X0203384Y0120506D02*
X0202616Y0120506D01*
X0200408Y0120506D02*
X0195592Y0120506D01*
X0196778Y0121704D02*
X0199222Y0121704D01*
X0198651Y0122903D02*
X0197349Y0122903D01*
X0197443Y0125300D02*
X0198557Y0125300D01*
X0199036Y0126498D02*
X0196964Y0126498D01*
X0195992Y0127697D02*
X0200008Y0127697D01*
X0201129Y0130094D02*
X0194871Y0130094D01*
X0193384Y0131292D02*
X0192616Y0131292D01*
X0192616Y0132491D02*
X0193384Y0132491D01*
X0193384Y0133689D02*
X0192616Y0133689D01*
X0192616Y0134634D02*
X0188451Y0134634D01*
X0188559Y0135316D01*
X0188781Y0135998D01*
X0189106Y0136636D01*
X0189527Y0137216D01*
X0190034Y0137723D01*
X0190614Y0138144D01*
X0191252Y0138469D01*
X0191934Y0138691D01*
X0192616Y0138799D01*
X0192616Y0134634D01*
X0192616Y0134888D02*
X0193384Y0134888D01*
X0193384Y0136086D02*
X0192616Y0136086D01*
X0192616Y0137285D02*
X0193384Y0137285D01*
X0193384Y0138483D02*
X0192616Y0138483D01*
X0191296Y0138483D02*
X0033000Y0138483D01*
X0033000Y0137285D02*
X0189596Y0137285D01*
X0188826Y0136086D02*
X0033000Y0136086D01*
X0033000Y0134888D02*
X0188492Y0134888D01*
X0188479Y0133689D02*
X0033000Y0133689D01*
X0033000Y0132491D02*
X0039085Y0132491D01*
X0038961Y0132440D02*
X0037927Y0131842D01*
X0036979Y0131115D01*
X0036135Y0130271D01*
X0035408Y0129323D01*
X0034810Y0128289D01*
X0034353Y0127185D01*
X0034044Y0126031D01*
X0033889Y0124850D01*
X0042400Y0124850D01*
X0042400Y0133361D01*
X0041219Y0133206D01*
X0040065Y0132897D01*
X0038961Y0132440D01*
X0037210Y0131292D02*
X0033000Y0131292D01*
X0033000Y0130094D02*
X0035999Y0130094D01*
X0035160Y0128895D02*
X0033000Y0128895D01*
X0033000Y0127697D02*
X0034565Y0127697D01*
X0034169Y0126498D02*
X0033000Y0126498D01*
X0033000Y0125300D02*
X0033948Y0125300D01*
X0033000Y0124101D02*
X0042400Y0124101D01*
X0042400Y0123650D02*
X0033889Y0123650D01*
X0034044Y0122469D01*
X0034353Y0121315D01*
X0034810Y0120211D01*
X0035408Y0119177D01*
X0036135Y0118229D01*
X0036979Y0117385D01*
X0037927Y0116658D01*
X0038961Y0116060D01*
X0040065Y0115603D01*
X0041219Y0115294D01*
X0042400Y0115139D01*
X0042400Y0123650D01*
X0043600Y0123650D01*
X0043600Y0124850D01*
X0052111Y0124850D01*
X0051956Y0126031D01*
X0051647Y0127185D01*
X0051190Y0128289D01*
X0050592Y0129323D01*
X0049865Y0130271D01*
X0049021Y0131115D01*
X0048073Y0131842D01*
X0047039Y0132440D01*
X0045935Y0132897D01*
X0044781Y0133206D01*
X0043600Y0133361D01*
X0043600Y0124850D01*
X0042400Y0124850D01*
X0042400Y0123650D01*
X0042400Y0122903D02*
X0043600Y0122903D01*
X0043600Y0123650D02*
X0043600Y0115139D01*
X0044781Y0115294D01*
X0045935Y0115603D01*
X0047039Y0116060D01*
X0048073Y0116658D01*
X0049021Y0117385D01*
X0049865Y0118229D01*
X0050592Y0119177D01*
X0051190Y0120211D01*
X0051647Y0121315D01*
X0051956Y0122469D01*
X0052111Y0123650D01*
X0043600Y0123650D01*
X0043600Y0124101D02*
X0064288Y0124101D01*
X0064288Y0122903D02*
X0052013Y0122903D01*
X0051751Y0121704D02*
X0064625Y0121704D01*
X0065121Y0120506D02*
X0051312Y0120506D01*
X0050668Y0119307D02*
X0065623Y0119307D01*
X0066821Y0118109D02*
X0049745Y0118109D01*
X0048402Y0116910D02*
X0068020Y0116910D01*
X0070849Y0115712D02*
X0046197Y0115712D01*
X0043600Y0115712D02*
X0042400Y0115712D01*
X0042400Y0116910D02*
X0043600Y0116910D01*
X0043600Y0118109D02*
X0042400Y0118109D01*
X0042400Y0119307D02*
X0043600Y0119307D01*
X0043600Y0120506D02*
X0042400Y0120506D01*
X0042400Y0121704D02*
X0043600Y0121704D01*
X0043600Y0125300D02*
X0042400Y0125300D01*
X0042400Y0126498D02*
X0043600Y0126498D01*
X0043600Y0127697D02*
X0042400Y0127697D01*
X0042400Y0128895D02*
X0043600Y0128895D01*
X0043600Y0130094D02*
X0042400Y0130094D01*
X0042400Y0131292D02*
X0043600Y0131292D01*
X0043600Y0132491D02*
X0042400Y0132491D01*
X0046915Y0132491D02*
X0070130Y0132491D01*
X0067722Y0131292D02*
X0048790Y0131292D01*
X0050001Y0130094D02*
X0066523Y0130094D01*
X0065495Y0128895D02*
X0050840Y0128895D01*
X0051435Y0127697D02*
X0064998Y0127697D01*
X0064502Y0126498D02*
X0051831Y0126498D01*
X0052052Y0125300D02*
X0064288Y0125300D01*
X0075870Y0132491D02*
X0188787Y0132491D01*
X0189521Y0131292D02*
X0078278Y0131292D01*
X0081002Y0127697D02*
X0190008Y0127697D01*
X0189036Y0126498D02*
X0081498Y0126498D01*
X0081712Y0125300D02*
X0188557Y0125300D01*
X0196479Y0131292D02*
X0199521Y0131292D01*
X0198787Y0132491D02*
X0197213Y0132491D01*
X0197521Y0133689D02*
X0198479Y0133689D01*
X0198492Y0134888D02*
X0197508Y0134888D01*
X0197174Y0136086D02*
X0198826Y0136086D01*
X0199596Y0137285D02*
X0196404Y0137285D01*
X0194704Y0138483D02*
X0201296Y0138483D01*
X0199931Y0140880D02*
X0196069Y0140880D01*
X0197003Y0142079D02*
X0198997Y0142079D01*
X0198545Y0143277D02*
X0197455Y0143277D01*
X0197324Y0145674D02*
X0198676Y0145674D01*
X0199278Y0146873D02*
X0196722Y0146873D01*
X0195486Y0148071D02*
X0200514Y0148071D01*
X0202616Y0148071D02*
X0203384Y0148071D01*
X0203384Y0146873D02*
X0202616Y0146873D01*
X0202616Y0145674D02*
X0203384Y0145674D01*
X0203384Y0144476D02*
X0387616Y0144476D01*
X0382841Y0144476D01*
X0383451Y0144634D02*
X0387616Y0144634D01*
X0387616Y0143866D01*
X0388384Y0143866D01*
X0388384Y0139701D01*
X0389066Y0139809D01*
X0389748Y0140031D01*
X0390386Y0140356D01*
X0390966Y0140777D01*
X0391473Y0141284D01*
X0391894Y0141864D01*
X0392219Y0142502D01*
X0392441Y0143184D01*
X0392549Y0143866D01*
X0388384Y0143866D01*
X0388384Y0139701D01*
X0389066Y0139809D01*
X0389748Y0140031D01*
X0390386Y0140356D01*
X0390966Y0140777D01*
X0391473Y0141284D01*
X0391894Y0141864D01*
X0392219Y0142502D01*
X0392441Y0143184D01*
X0392549Y0143866D01*
X0388384Y0143866D01*
X0387616Y0143866D01*
X0387616Y0139701D01*
X0386934Y0139809D01*
X0386252Y0140031D01*
X0385614Y0140356D01*
X0385034Y0140777D01*
X0384527Y0141284D01*
X0384106Y0141864D01*
X0383781Y0142502D01*
X0383559Y0143184D01*
X0383451Y0143866D01*
X0387616Y0143866D01*
X0387616Y0139701D01*
X0386934Y0139809D01*
X0386252Y0140031D01*
X0385614Y0140356D01*
X0385034Y0140777D01*
X0384527Y0141284D01*
X0384106Y0141864D01*
X0383781Y0142502D01*
X0383559Y0143184D01*
X0383451Y0143866D01*
X0387616Y0143866D01*
X0387616Y0144634D01*
X0383451Y0144634D01*
X0383559Y0145316D01*
X0383781Y0145998D01*
X0384106Y0146636D01*
X0384527Y0147216D01*
X0385034Y0147723D01*
X0385614Y0148144D01*
X0386252Y0148469D01*
X0386934Y0148691D01*
X0387616Y0148799D01*
X0387616Y0144634D01*
X0388384Y0144634D01*
X0392549Y0144634D01*
X0392441Y0145316D01*
X0392219Y0145998D01*
X0391894Y0146636D01*
X0391473Y0147216D01*
X0390966Y0147723D01*
X0390386Y0148144D01*
X0389748Y0148469D01*
X0389066Y0148691D01*
X0388384Y0148799D01*
X0388384Y0144634D01*
X0388384Y0143866D01*
X0388384Y0144634D01*
X0392549Y0144634D01*
X0392441Y0145316D01*
X0392219Y0145998D01*
X0391894Y0146636D01*
X0391473Y0147216D01*
X0390966Y0147723D01*
X0390386Y0148144D01*
X0389748Y0148469D01*
X0389066Y0148691D01*
X0388384Y0148799D01*
X0388384Y0144634D01*
X0387616Y0144634D01*
X0387616Y0148799D01*
X0386934Y0148691D01*
X0386252Y0148469D01*
X0385614Y0148144D01*
X0385034Y0147723D01*
X0384527Y0147216D01*
X0384106Y0146636D01*
X0383781Y0145998D01*
X0383559Y0145316D01*
X0383451Y0144634D01*
X0383676Y0145674D02*
X0382881Y0145674D01*
X0383676Y0145674D02*
X0207324Y0145674D01*
X0206722Y0146873D02*
X0384278Y0146873D01*
X0382921Y0146873D01*
X0382961Y0148071D02*
X0385514Y0148071D01*
X0205486Y0148071D01*
X0207455Y0143277D02*
X0383545Y0143277D01*
X0382801Y0143277D01*
X0382761Y0142079D02*
X0383997Y0142079D01*
X0207003Y0142079D01*
X0206069Y0140880D02*
X0384931Y0140880D01*
X0382721Y0140880D01*
X0382681Y0139682D02*
X0586119Y0139682D01*
X0586112Y0138483D02*
X0399704Y0138483D01*
X0403000Y0138483D01*
X0403000Y0137285D02*
X0401404Y0137285D01*
X0586105Y0137285D01*
X0586098Y0136086D02*
X0402174Y0136086D01*
X0403000Y0136086D01*
X0402219Y0135998D02*
X0401894Y0136636D01*
X0401473Y0137216D01*
X0400966Y0137723D01*
X0400386Y0138144D01*
X0399748Y0138469D01*
X0399066Y0138691D01*
X0398384Y0138799D01*
X0398384Y0134634D01*
X0402549Y0134634D01*
X0402441Y0135316D01*
X0402219Y0135998D01*
X0401894Y0136636D01*
X0401473Y0137216D01*
X0400966Y0137723D01*
X0400386Y0138144D01*
X0399748Y0138469D01*
X0399066Y0138691D01*
X0398384Y0138799D01*
X0398384Y0134634D01*
X0398384Y0133866D01*
X0398384Y0129701D01*
X0399066Y0129809D01*
X0399748Y0130031D01*
X0400386Y0130356D01*
X0400966Y0130777D01*
X0401473Y0131284D01*
X0401894Y0131864D01*
X0402219Y0132502D01*
X0402441Y0133184D01*
X0402549Y0133866D01*
X0398384Y0133866D01*
X0397616Y0133866D01*
X0397616Y0129701D01*
X0396934Y0129809D01*
X0396252Y0130031D01*
X0395614Y0130356D01*
X0395034Y0130777D01*
X0394527Y0131284D01*
X0394106Y0131864D01*
X0393781Y0132502D01*
X0393559Y0133184D01*
X0393451Y0133866D01*
X0397616Y0133866D01*
X0397616Y0134634D01*
X0393451Y0134634D01*
X0393559Y0135316D01*
X0393781Y0135998D01*
X0394106Y0136636D01*
X0394527Y0137216D01*
X0395034Y0137723D01*
X0395614Y0138144D01*
X0396252Y0138469D01*
X0396934Y0138691D01*
X0397616Y0138799D01*
X0397616Y0134634D01*
X0397616Y0133866D01*
X0398384Y0133866D01*
X0398384Y0129701D01*
X0399066Y0129809D01*
X0399748Y0130031D01*
X0400386Y0130356D01*
X0400966Y0130777D01*
X0401473Y0131284D01*
X0401894Y0131864D01*
X0402219Y0132502D01*
X0402441Y0133184D01*
X0402549Y0133866D01*
X0398384Y0133866D01*
X0398384Y0134634D01*
X0397616Y0134634D01*
X0393451Y0134634D01*
X0393559Y0135316D01*
X0393781Y0135998D01*
X0394106Y0136636D01*
X0394527Y0137216D01*
X0395034Y0137723D01*
X0395614Y0138144D01*
X0396252Y0138469D01*
X0396934Y0138691D01*
X0397616Y0138799D01*
X0397616Y0134634D01*
X0398384Y0134634D01*
X0402549Y0134634D01*
X0402441Y0135316D01*
X0402219Y0135998D01*
X0402508Y0134888D02*
X0586091Y0134888D01*
X0586084Y0133689D02*
X0402521Y0133689D01*
X0403000Y0133689D01*
X0403000Y0132491D02*
X0402213Y0132491D01*
X0586077Y0132491D01*
X0586070Y0131292D02*
X0401479Y0131292D01*
X0403000Y0131292D01*
X0403000Y0130094D02*
X0399871Y0130094D01*
X0586063Y0130094D01*
X0586042Y0126498D02*
X0401964Y0126498D01*
X0403000Y0126498D01*
X0402219Y0125998D02*
X0401894Y0126636D01*
X0401473Y0127216D01*
X0400966Y0127723D01*
X0400386Y0128144D01*
X0399748Y0128469D01*
X0399066Y0128691D01*
X0398384Y0128799D01*
X0398384Y0124634D01*
X0402549Y0124634D01*
X0402441Y0125316D01*
X0402219Y0125998D01*
X0401894Y0126636D01*
X0401473Y0127216D01*
X0400966Y0127723D01*
X0400386Y0128144D01*
X0399748Y0128469D01*
X0399066Y0128691D01*
X0398384Y0128799D01*
X0398384Y0124634D01*
X0398384Y0123866D01*
X0398384Y0119701D01*
X0399066Y0119809D01*
X0399748Y0120031D01*
X0400386Y0120356D01*
X0400966Y0120777D01*
X0401473Y0121284D01*
X0401894Y0121864D01*
X0402219Y0122502D01*
X0402441Y0123184D01*
X0402549Y0123866D01*
X0398384Y0123866D01*
X0397616Y0123866D01*
X0397616Y0119701D01*
X0396934Y0119809D01*
X0396252Y0120031D01*
X0395614Y0120356D01*
X0395034Y0120777D01*
X0394527Y0121284D01*
X0394106Y0121864D01*
X0393781Y0122502D01*
X0393559Y0123184D01*
X0393451Y0123866D01*
X0397616Y0123866D01*
X0397616Y0124634D01*
X0393451Y0124634D01*
X0393559Y0125316D01*
X0393781Y0125998D01*
X0394106Y0126636D01*
X0394527Y0127216D01*
X0395034Y0127723D01*
X0395614Y0128144D01*
X0396252Y0128469D01*
X0396934Y0128691D01*
X0397616Y0128799D01*
X0397616Y0124634D01*
X0397616Y0123866D01*
X0398384Y0123866D01*
X0398384Y0119701D01*
X0399066Y0119809D01*
X0399748Y0120031D01*
X0400386Y0120356D01*
X0400966Y0120777D01*
X0401473Y0121284D01*
X0401894Y0121864D01*
X0402219Y0122502D01*
X0402441Y0123184D01*
X0402549Y0123866D01*
X0398384Y0123866D01*
X0398384Y0124634D01*
X0397616Y0124634D01*
X0393451Y0124634D01*
X0393559Y0125316D01*
X0393781Y0125998D01*
X0394106Y0126636D01*
X0394527Y0127216D01*
X0395034Y0127723D01*
X0395614Y0128144D01*
X0396252Y0128469D01*
X0396934Y0128691D01*
X0397616Y0128799D01*
X0397616Y0124634D01*
X0398384Y0124634D01*
X0402549Y0124634D01*
X0402441Y0125316D01*
X0402219Y0125998D01*
X0402443Y0125300D02*
X0586035Y0125300D01*
X0586028Y0124101D02*
X0398384Y0124101D01*
X0403000Y0124101D01*
X0403000Y0122903D02*
X0402349Y0122903D01*
X0586021Y0122903D01*
X0586014Y0121704D02*
X0401778Y0121704D01*
X0403000Y0121704D01*
X0403000Y0120506D02*
X0400592Y0120506D01*
X0586007Y0120506D01*
X0586000Y0119307D02*
X0382002Y0119307D01*
X0382000Y0119250D02*
X0383000Y0149250D01*
X0405000Y0149250D01*
X0405000Y0291250D01*
X0492200Y0291250D01*
X0492200Y0273996D01*
X0491254Y0273050D01*
X0466416Y0273050D01*
X0465689Y0273777D01*
X0464593Y0274231D01*
X0463407Y0274231D01*
X0462311Y0273777D01*
X0461473Y0272939D01*
X0461019Y0271843D01*
X0461019Y0270657D01*
X0461473Y0269561D01*
X0462311Y0268723D01*
X0463407Y0268269D01*
X0464593Y0268269D01*
X0465689Y0268723D01*
X0466416Y0269450D01*
X0492746Y0269450D01*
X0495800Y0272504D01*
X0495800Y0291250D01*
X0587000Y0291250D01*
X0586000Y0119250D01*
X0382000Y0119250D01*
X0382042Y0120506D02*
X0385408Y0120506D01*
X0205592Y0120506D01*
X0206778Y0121704D02*
X0384222Y0121704D01*
X0382082Y0121704D01*
X0383781Y0122502D02*
X0384106Y0121864D01*
X0384527Y0121284D01*
X0385034Y0120777D01*
X0385614Y0120356D01*
X0386252Y0120031D01*
X0386934Y0119809D01*
X0387616Y0119701D01*
X0387616Y0123866D01*
X0388384Y0123866D01*
X0388384Y0119701D01*
X0389066Y0119809D01*
X0389748Y0120031D01*
X0390386Y0120356D01*
X0390966Y0120777D01*
X0391473Y0121284D01*
X0391894Y0121864D01*
X0392219Y0122502D01*
X0392441Y0123184D01*
X0392549Y0123866D01*
X0388384Y0123866D01*
X0388384Y0119701D01*
X0389066Y0119809D01*
X0389748Y0120031D01*
X0390386Y0120356D01*
X0390966Y0120777D01*
X0391473Y0121284D01*
X0391894Y0121864D01*
X0392219Y0122502D01*
X0392441Y0123184D01*
X0392549Y0123866D01*
X0388384Y0123866D01*
X0387616Y0123866D01*
X0383451Y0123866D01*
X0383559Y0123184D01*
X0383781Y0122502D01*
X0384106Y0121864D01*
X0384527Y0121284D01*
X0385034Y0120777D01*
X0385614Y0120356D01*
X0386252Y0120031D01*
X0386934Y0119809D01*
X0387616Y0119701D01*
X0387616Y0123866D01*
X0387616Y0124634D01*
X0383451Y0124634D01*
X0383559Y0125316D01*
X0383781Y0125998D01*
X0384106Y0126636D01*
X0384527Y0127216D01*
X0385034Y0127723D01*
X0385614Y0128144D01*
X0386252Y0128469D01*
X0386934Y0128691D01*
X0387616Y0128799D01*
X0387616Y0124634D01*
X0387616Y0123866D01*
X0383451Y0123866D01*
X0383559Y0123184D01*
X0383781Y0122502D01*
X0383451Y0124634D02*
X0387616Y0124634D01*
X0388384Y0124634D01*
X0392549Y0124634D01*
X0392441Y0125316D01*
X0392219Y0125998D01*
X0391894Y0126636D01*
X0391473Y0127216D01*
X0390966Y0127723D01*
X0390386Y0128144D01*
X0389748Y0128469D01*
X0389066Y0128691D01*
X0388384Y0128799D01*
X0388384Y0124634D01*
X0388384Y0123866D01*
X0388384Y0124634D01*
X0392549Y0124634D01*
X0392441Y0125316D01*
X0392219Y0125998D01*
X0391894Y0126636D01*
X0391473Y0127216D01*
X0390966Y0127723D01*
X0390386Y0128144D01*
X0389748Y0128469D01*
X0389066Y0128691D01*
X0388384Y0128799D01*
X0388384Y0124634D01*
X0387616Y0124634D01*
X0387616Y0128799D01*
X0386934Y0128691D01*
X0386252Y0128469D01*
X0385614Y0128144D01*
X0385034Y0127723D01*
X0384527Y0127216D01*
X0384106Y0126636D01*
X0383781Y0125998D01*
X0383559Y0125316D01*
X0383451Y0124634D01*
X0387616Y0125300D02*
X0388384Y0125300D01*
X0387616Y0125300D01*
X0387616Y0126498D02*
X0388384Y0126498D01*
X0387616Y0126498D01*
X0387616Y0127697D02*
X0388384Y0127697D01*
X0387616Y0127697D01*
X0387616Y0129701D02*
X0387616Y0133866D01*
X0388384Y0133866D01*
X0388384Y0129701D01*
X0389066Y0129809D01*
X0389748Y0130031D01*
X0390386Y0130356D01*
X0390966Y0130777D01*
X0391473Y0131284D01*
X0391894Y0131864D01*
X0392219Y0132502D01*
X0392441Y0133184D01*
X0392549Y0133866D01*
X0388384Y0133866D01*
X0388384Y0129701D01*
X0389066Y0129809D01*
X0389748Y0130031D01*
X0390386Y0130356D01*
X0390966Y0130777D01*
X0391473Y0131284D01*
X0391894Y0131864D01*
X0392219Y0132502D01*
X0392441Y0133184D01*
X0392549Y0133866D01*
X0388384Y0133866D01*
X0387616Y0133866D01*
X0383451Y0133866D01*
X0383559Y0133184D01*
X0383781Y0132502D01*
X0384106Y0131864D01*
X0384527Y0131284D01*
X0385034Y0130777D01*
X0385614Y0130356D01*
X0386252Y0130031D01*
X0386934Y0129809D01*
X0387616Y0129701D01*
X0387616Y0133866D01*
X0387616Y0134634D01*
X0383451Y0134634D01*
X0383559Y0135316D01*
X0383781Y0135998D01*
X0384106Y0136636D01*
X0384527Y0137216D01*
X0385034Y0137723D01*
X0385614Y0138144D01*
X0386252Y0138469D01*
X0386934Y0138691D01*
X0387616Y0138799D01*
X0387616Y0134634D01*
X0387616Y0133866D01*
X0383451Y0133866D01*
X0383559Y0133184D01*
X0383781Y0132502D01*
X0384106Y0131864D01*
X0384527Y0131284D01*
X0385034Y0130777D01*
X0385614Y0130356D01*
X0386252Y0130031D01*
X0386934Y0129809D01*
X0387616Y0129701D01*
X0387616Y0130094D02*
X0388384Y0130094D01*
X0387616Y0130094D01*
X0387616Y0131292D02*
X0388384Y0131292D01*
X0387616Y0131292D01*
X0387616Y0132491D02*
X0388384Y0132491D01*
X0387616Y0132491D01*
X0387616Y0133689D02*
X0388384Y0133689D01*
X0387616Y0133689D01*
X0388384Y0133866D02*
X0388384Y0134634D01*
X0392549Y0134634D01*
X0392441Y0135316D01*
X0392219Y0135998D01*
X0391894Y0136636D01*
X0391473Y0137216D01*
X0390966Y0137723D01*
X0390386Y0138144D01*
X0389748Y0138469D01*
X0389066Y0138691D01*
X0388384Y0138799D01*
X0388384Y0134634D01*
X0387616Y0134634D01*
X0383451Y0134634D01*
X0383559Y0135316D01*
X0383781Y0135998D01*
X0384106Y0136636D01*
X0384527Y0137216D01*
X0385034Y0137723D01*
X0385614Y0138144D01*
X0386252Y0138469D01*
X0386934Y0138691D01*
X0387616Y0138799D01*
X0387616Y0134634D01*
X0388384Y0134634D01*
X0392549Y0134634D01*
X0392441Y0135316D01*
X0392219Y0135998D01*
X0391894Y0136636D01*
X0391473Y0137216D01*
X0390966Y0137723D01*
X0390386Y0138144D01*
X0389748Y0138469D01*
X0389066Y0138691D01*
X0388384Y0138799D01*
X0388384Y0134634D01*
X0388384Y0133866D01*
X0388384Y0134888D02*
X0387616Y0134888D01*
X0388384Y0134888D01*
X0388384Y0136086D02*
X0387616Y0136086D01*
X0388384Y0136086D01*
X0388384Y0137285D02*
X0387616Y0137285D01*
X0388384Y0137285D01*
X0388384Y0138483D02*
X0387616Y0138483D01*
X0388384Y0138483D01*
X0389704Y0138483D02*
X0396296Y0138483D01*
X0389704Y0138483D01*
X0391404Y0137285D02*
X0394596Y0137285D01*
X0391404Y0137285D01*
X0392174Y0136086D02*
X0393826Y0136086D01*
X0392174Y0136086D01*
X0392508Y0134888D02*
X0393492Y0134888D01*
X0392508Y0134888D01*
X0392521Y0133689D02*
X0393479Y0133689D01*
X0392521Y0133689D01*
X0393451Y0133866D02*
X0393559Y0133184D01*
X0393781Y0132502D01*
X0394106Y0131864D01*
X0394527Y0131284D01*
X0395034Y0130777D01*
X0395614Y0130356D01*
X0396252Y0130031D01*
X0396934Y0129809D01*
X0397616Y0129701D01*
X0397616Y0133866D01*
X0393451Y0133866D01*
X0393787Y0132491D02*
X0392213Y0132491D01*
X0393787Y0132491D01*
X0394521Y0131292D02*
X0391479Y0131292D01*
X0394521Y0131292D01*
X0396129Y0130094D02*
X0389871Y0130094D01*
X0396129Y0130094D01*
X0397616Y0130094D02*
X0398384Y0130094D01*
X0397616Y0130094D01*
X0397616Y0131292D02*
X0398384Y0131292D01*
X0397616Y0131292D01*
X0397616Y0132491D02*
X0398384Y0132491D01*
X0397616Y0132491D01*
X0397616Y0133689D02*
X0398384Y0133689D01*
X0397616Y0133689D01*
X0397616Y0134888D02*
X0398384Y0134888D01*
X0397616Y0134888D01*
X0397616Y0136086D02*
X0398384Y0136086D01*
X0397616Y0136086D01*
X0397616Y0137285D02*
X0398384Y0137285D01*
X0397616Y0137285D01*
X0397616Y0138483D02*
X0398384Y0138483D01*
X0397616Y0138483D01*
X0397616Y0139701D02*
X0397616Y0143866D01*
X0393451Y0143866D01*
X0393559Y0143184D01*
X0393781Y0142502D01*
X0394106Y0141864D01*
X0394527Y0141284D01*
X0395034Y0140777D01*
X0395614Y0140356D01*
X0396252Y0140031D01*
X0396934Y0139809D01*
X0397616Y0139701D01*
X0397616Y0140880D02*
X0398384Y0140880D01*
X0397616Y0140880D01*
X0397616Y0142079D02*
X0398384Y0142079D01*
X0397616Y0142079D01*
X0397616Y0143277D02*
X0398384Y0143277D01*
X0397616Y0143277D01*
X0397616Y0144476D02*
X0388384Y0144476D01*
X0397616Y0144476D01*
X0397616Y0145674D02*
X0398384Y0145674D01*
X0397616Y0145674D01*
X0397616Y0146873D02*
X0398384Y0146873D01*
X0397616Y0146873D01*
X0397616Y0148071D02*
X0398384Y0148071D01*
X0397616Y0148071D01*
X0395514Y0148071D02*
X0390486Y0148071D01*
X0395514Y0148071D01*
X0394278Y0146873D02*
X0391722Y0146873D01*
X0394278Y0146873D01*
X0393676Y0145674D02*
X0392324Y0145674D01*
X0393676Y0145674D01*
X0393545Y0143277D02*
X0392455Y0143277D01*
X0393545Y0143277D01*
X0393997Y0142079D02*
X0392003Y0142079D01*
X0393997Y0142079D01*
X0394931Y0140880D02*
X0391069Y0140880D01*
X0394931Y0140880D01*
X0388384Y0140880D02*
X0387616Y0140880D01*
X0388384Y0140880D01*
X0388384Y0142079D02*
X0387616Y0142079D01*
X0388384Y0142079D01*
X0388384Y0143277D02*
X0387616Y0143277D01*
X0388384Y0143277D01*
X0388384Y0145674D02*
X0387616Y0145674D01*
X0388384Y0145674D01*
X0388384Y0146873D02*
X0387616Y0146873D01*
X0388384Y0146873D01*
X0388384Y0148071D02*
X0387616Y0148071D01*
X0388384Y0148071D01*
X0400486Y0148071D02*
X0424993Y0148071D01*
X0424847Y0149270D02*
X0405000Y0149270D01*
X0405000Y0150468D02*
X0425010Y0150468D01*
X0425544Y0151667D02*
X0405000Y0151667D01*
X0405000Y0152865D02*
X0426877Y0152865D01*
X0425504Y0146873D02*
X0401722Y0146873D01*
X0403000Y0146873D01*
X0403000Y0148071D02*
X0400486Y0148071D01*
X0405000Y0156461D02*
X0464823Y0156461D01*
X0463458Y0157659D02*
X0405000Y0157659D01*
X0405000Y0158858D02*
X0462335Y0158858D01*
X0461643Y0160056D02*
X0405000Y0160056D01*
X0405000Y0161255D02*
X0460993Y0161255D01*
X0460672Y0162453D02*
X0405000Y0162453D01*
X0405000Y0163652D02*
X0460351Y0163652D01*
X0460300Y0164851D02*
X0405000Y0164851D01*
X0405000Y0166049D02*
X0460300Y0166049D01*
X0460458Y0167248D02*
X0405000Y0167248D01*
X0405000Y0168446D02*
X0460779Y0168446D01*
X0461182Y0169645D02*
X0405000Y0169645D01*
X0405000Y0170843D02*
X0461874Y0170843D01*
X0462660Y0172042D02*
X0405000Y0172042D01*
X0405000Y0173240D02*
X0463858Y0173240D01*
X0465515Y0174439D02*
X0405000Y0174439D01*
X0405000Y0175637D02*
X0437250Y0175637D01*
X0435282Y0176836D02*
X0405000Y0176836D01*
X0405000Y0178034D02*
X0434084Y0178034D01*
X0433119Y0179233D02*
X0405000Y0179233D01*
X0405000Y0180431D02*
X0432427Y0180431D01*
X0431893Y0181630D02*
X0405000Y0181630D01*
X0405000Y0182828D02*
X0431571Y0182828D01*
X0431300Y0184027D02*
X0405000Y0184027D01*
X0405000Y0185225D02*
X0431300Y0185225D01*
X0431300Y0186424D02*
X0405000Y0186424D01*
X0405000Y0187622D02*
X0431558Y0187622D01*
X0431879Y0188821D02*
X0405000Y0188821D01*
X0405000Y0190019D02*
X0432398Y0190019D01*
X0433090Y0191218D02*
X0405000Y0191218D01*
X0405000Y0192416D02*
X0434034Y0192416D01*
X0435233Y0193615D02*
X0405000Y0193615D01*
X0405000Y0194813D02*
X0437164Y0194813D01*
X0446836Y0194813D02*
X0563564Y0194813D01*
X0563018Y0196012D02*
X0405000Y0196012D01*
X0405000Y0197210D02*
X0562847Y0197210D01*
X0562985Y0198409D02*
X0405000Y0198409D01*
X0405000Y0199607D02*
X0563484Y0199607D01*
X0564733Y0200806D02*
X0405000Y0200806D01*
X0405000Y0202004D02*
X0573232Y0202004D01*
X0573479Y0202602D02*
X0572847Y0201076D01*
X0572847Y0199424D01*
X0573479Y0197898D01*
X0574648Y0196729D01*
X0576174Y0196097D01*
X0577826Y0196097D01*
X0579352Y0196729D01*
X0580521Y0197898D01*
X0581153Y0199424D01*
X0581153Y0201076D01*
X0580521Y0202602D01*
X0579352Y0203771D01*
X0577826Y0204403D01*
X0576174Y0204403D01*
X0574648Y0203771D01*
X0573479Y0202602D01*
X0574080Y0203203D02*
X0405000Y0203203D01*
X0405000Y0204401D02*
X0478633Y0204401D01*
X0478473Y0204561D02*
X0479311Y0203723D01*
X0480407Y0203269D01*
X0481593Y0203269D01*
X0482689Y0203723D01*
X0483527Y0204561D01*
X0483981Y0205657D01*
X0483981Y0206843D01*
X0483527Y0207939D01*
X0482689Y0208777D01*
X0481593Y0209231D01*
X0480407Y0209231D01*
X0479311Y0208777D01*
X0478473Y0207939D01*
X0478019Y0206843D01*
X0478019Y0205657D01*
X0478473Y0204561D01*
X0478043Y0205600D02*
X0405000Y0205600D01*
X0405000Y0206798D02*
X0478019Y0206798D01*
X0478531Y0207997D02*
X0405000Y0207997D01*
X0405000Y0209195D02*
X0480321Y0209195D01*
X0481679Y0209195D02*
X0586523Y0209195D01*
X0586516Y0207997D02*
X0483469Y0207997D01*
X0483981Y0206798D02*
X0586509Y0206798D01*
X0586502Y0205600D02*
X0483957Y0205600D01*
X0483367Y0204401D02*
X0576171Y0204401D01*
X0577829Y0204401D02*
X0586495Y0204401D01*
X0586488Y0203203D02*
X0579920Y0203203D01*
X0580768Y0202004D02*
X0586481Y0202004D01*
X0586474Y0200806D02*
X0581153Y0200806D01*
X0581153Y0199607D02*
X0586467Y0199607D01*
X0586460Y0198409D02*
X0580732Y0198409D01*
X0579833Y0197210D02*
X0586453Y0197210D01*
X0586446Y0196012D02*
X0570982Y0196012D01*
X0571153Y0197210D02*
X0574167Y0197210D01*
X0573268Y0198409D02*
X0571015Y0198409D01*
X0570516Y0199607D02*
X0572847Y0199607D01*
X0572847Y0200806D02*
X0569267Y0200806D01*
X0570436Y0194813D02*
X0586439Y0194813D01*
X0586432Y0193615D02*
X0569075Y0193615D01*
X0586530Y0210394D02*
X0424360Y0210394D01*
X0424527Y0210561D02*
X0424981Y0211657D01*
X0424981Y0212843D01*
X0424527Y0213939D01*
X0423689Y0214777D01*
X0422593Y0215231D01*
X0421407Y0215231D01*
X0420311Y0214777D01*
X0419473Y0213939D01*
X0419019Y0212843D01*
X0419019Y0211657D01*
X0419473Y0210561D01*
X0420311Y0209723D01*
X0421407Y0209269D01*
X0422593Y0209269D01*
X0423689Y0209723D01*
X0424527Y0210561D01*
X0424954Y0211592D02*
X0586537Y0211592D01*
X0586544Y0212791D02*
X0424981Y0212791D01*
X0424476Y0213989D02*
X0586551Y0213989D01*
X0586558Y0215188D02*
X0422697Y0215188D01*
X0421303Y0215188D02*
X0405000Y0215188D01*
X0405000Y0216387D02*
X0586565Y0216387D01*
X0586572Y0217585D02*
X0405000Y0217585D01*
X0405000Y0218784D02*
X0526751Y0218784D01*
X0526473Y0219061D02*
X0527311Y0218223D01*
X0528407Y0217769D01*
X0529593Y0217769D01*
X0530689Y0218223D01*
X0531527Y0219061D01*
X0531981Y0220157D01*
X0531981Y0221343D01*
X0531527Y0222439D01*
X0530689Y0223277D01*
X0529593Y0223731D01*
X0528407Y0223731D01*
X0527311Y0223277D01*
X0526473Y0222439D01*
X0526019Y0221343D01*
X0526019Y0220157D01*
X0526473Y0219061D01*
X0526091Y0219982D02*
X0405000Y0219982D01*
X0405000Y0221181D02*
X0526019Y0221181D01*
X0526448Y0222379D02*
X0405000Y0222379D01*
X0405000Y0223578D02*
X0479662Y0223578D01*
X0479311Y0223723D02*
X0480407Y0223269D01*
X0481593Y0223269D01*
X0482689Y0223723D01*
X0483527Y0224561D01*
X0483981Y0225657D01*
X0483981Y0226843D01*
X0483527Y0227939D01*
X0482689Y0228777D01*
X0481593Y0229231D01*
X0480407Y0229231D01*
X0479311Y0228777D01*
X0478473Y0227939D01*
X0478019Y0226843D01*
X0478019Y0225657D01*
X0478473Y0224561D01*
X0479311Y0223723D01*
X0478384Y0224776D02*
X0405000Y0224776D01*
X0405000Y0225975D02*
X0478019Y0225975D01*
X0478156Y0227173D02*
X0405000Y0227173D01*
X0405000Y0228372D02*
X0478906Y0228372D01*
X0483094Y0228372D02*
X0486333Y0228372D01*
X0485134Y0229570D02*
X0405000Y0229570D01*
X0405000Y0230769D02*
X0483936Y0230769D01*
X0482737Y0231967D02*
X0405000Y0231967D01*
X0405000Y0233166D02*
X0481539Y0233166D01*
X0480936Y0233769D02*
X0489254Y0225450D01*
X0562251Y0225450D01*
X0562479Y0224898D01*
X0563648Y0223729D01*
X0565174Y0223097D01*
X0566826Y0223097D01*
X0568352Y0223729D01*
X0569521Y0224898D01*
X0570153Y0226424D01*
X0570153Y0228076D01*
X0569730Y0229097D01*
X0571326Y0229097D01*
X0572852Y0229729D01*
X0574021Y0230898D01*
X0574653Y0232424D01*
X0574653Y0234076D01*
X0574021Y0235602D01*
X0572852Y0236771D01*
X0571326Y0237403D01*
X0569674Y0237403D01*
X0568148Y0236771D01*
X0566979Y0235602D01*
X0566751Y0235050D01*
X0494481Y0235050D01*
X0494481Y0235343D01*
X0494027Y0236439D01*
X0493189Y0237277D01*
X0492093Y0237731D01*
X0490907Y0237731D01*
X0489811Y0237277D01*
X0488973Y0236439D01*
X0488519Y0235343D01*
X0488519Y0234157D01*
X0488973Y0233061D01*
X0489811Y0232223D01*
X0490907Y0231769D01*
X0491936Y0231769D01*
X0492254Y0231450D01*
X0566751Y0231450D01*
X0566770Y0231403D01*
X0565174Y0231403D01*
X0563648Y0230771D01*
X0562479Y0229602D01*
X0562251Y0229050D01*
X0490746Y0229050D01*
X0483481Y0236314D01*
X0483481Y0237343D01*
X0483027Y0238439D01*
X0482189Y0239277D01*
X0481093Y0239731D01*
X0479907Y0239731D01*
X0478811Y0239277D01*
X0477973Y0238439D01*
X0477519Y0237343D01*
X0477519Y0236157D01*
X0477973Y0235061D01*
X0478811Y0234223D01*
X0479907Y0233769D01*
X0480936Y0233769D01*
X0478670Y0234364D02*
X0405000Y0234364D01*
X0405000Y0235563D02*
X0477765Y0235563D01*
X0477519Y0236761D02*
X0460727Y0236761D01*
X0460689Y0236723D02*
X0461527Y0237561D01*
X0461981Y0238657D01*
X0461981Y0239843D01*
X0461527Y0240939D01*
X0460689Y0241777D01*
X0459593Y0242231D01*
X0458407Y0242231D01*
X0457311Y0241777D01*
X0456473Y0240939D01*
X0456019Y0239843D01*
X0456019Y0238657D01*
X0456473Y0237561D01*
X0457311Y0236723D01*
X0458407Y0236269D01*
X0459593Y0236269D01*
X0460689Y0236723D01*
X0461692Y0237960D02*
X0477774Y0237960D01*
X0478692Y0239158D02*
X0461981Y0239158D01*
X0461768Y0240357D02*
X0529019Y0240357D01*
X0529019Y0240843D02*
X0529019Y0239657D01*
X0529473Y0238561D01*
X0530311Y0237723D01*
X0531407Y0237269D01*
X0532593Y0237269D01*
X0533689Y0237723D01*
X0534527Y0238561D01*
X0534981Y0239657D01*
X0534981Y0240843D01*
X0534527Y0241939D01*
X0533689Y0242777D01*
X0532593Y0243231D01*
X0531407Y0243231D01*
X0530311Y0242777D01*
X0529473Y0241939D01*
X0529019Y0240843D01*
X0529314Y0241555D02*
X0460911Y0241555D01*
X0457089Y0241555D02*
X0405000Y0241555D01*
X0405000Y0240357D02*
X0456232Y0240357D01*
X0456019Y0239158D02*
X0405000Y0239158D01*
X0405000Y0237960D02*
X0456308Y0237960D01*
X0457273Y0236761D02*
X0405000Y0236761D01*
X0405000Y0242754D02*
X0530288Y0242754D01*
X0533712Y0242754D02*
X0586718Y0242754D01*
X0586725Y0243952D02*
X0405000Y0243952D01*
X0405000Y0245151D02*
X0586732Y0245151D01*
X0586739Y0246349D02*
X0405000Y0246349D01*
X0405000Y0247548D02*
X0548734Y0247548D01*
X0548311Y0247723D02*
X0549407Y0247269D01*
X0550593Y0247269D01*
X0551689Y0247723D01*
X0552527Y0248561D01*
X0552981Y0249657D01*
X0552981Y0250843D01*
X0552527Y0251939D01*
X0551689Y0252777D01*
X0550593Y0253231D01*
X0549407Y0253231D01*
X0548311Y0252777D01*
X0547473Y0251939D01*
X0547019Y0250843D01*
X0547019Y0249657D01*
X0547473Y0248561D01*
X0548311Y0247723D01*
X0547396Y0248746D02*
X0405000Y0248746D01*
X0405000Y0249945D02*
X0547019Y0249945D01*
X0547143Y0251143D02*
X0405000Y0251143D01*
X0405000Y0252342D02*
X0527692Y0252342D01*
X0527473Y0252561D02*
X0528311Y0251723D01*
X0529407Y0251269D01*
X0530593Y0251269D01*
X0531689Y0251723D01*
X0532527Y0252561D01*
X0532981Y0253657D01*
X0532981Y0254843D01*
X0532527Y0255939D01*
X0531689Y0256777D01*
X0530593Y0257231D01*
X0529407Y0257231D01*
X0528311Y0256777D01*
X0527473Y0255939D01*
X0527019Y0254843D01*
X0527019Y0253657D01*
X0527473Y0252561D01*
X0527067Y0253540D02*
X0405000Y0253540D01*
X0405000Y0254739D02*
X0527019Y0254739D01*
X0527472Y0255937D02*
X0405000Y0255937D01*
X0405000Y0257136D02*
X0529177Y0257136D01*
X0530823Y0257136D02*
X0586802Y0257136D01*
X0586809Y0258334D02*
X0405000Y0258334D01*
X0405000Y0259533D02*
X0586816Y0259533D01*
X0586823Y0260731D02*
X0405000Y0260731D01*
X0405000Y0261930D02*
X0419871Y0261930D01*
X0419148Y0262229D02*
X0420674Y0261597D01*
X0422326Y0261597D01*
X0423852Y0262229D01*
X0425021Y0263398D01*
X0425653Y0264924D01*
X0425653Y0266576D01*
X0425021Y0268102D01*
X0423852Y0269271D01*
X0422326Y0269903D01*
X0420674Y0269903D01*
X0419148Y0269271D01*
X0417979Y0268102D01*
X0417347Y0266576D01*
X0417347Y0264924D01*
X0417979Y0263398D01*
X0419148Y0262229D01*
X0418249Y0263128D02*
X0405000Y0263128D01*
X0405000Y0264327D02*
X0417595Y0264327D01*
X0417347Y0265525D02*
X0405000Y0265525D01*
X0405000Y0266724D02*
X0417409Y0266724D01*
X0417905Y0267922D02*
X0405000Y0267922D01*
X0405000Y0269121D02*
X0418998Y0269121D01*
X0424002Y0269121D02*
X0461913Y0269121D01*
X0461159Y0270320D02*
X0428863Y0270320D01*
X0428326Y0270097D02*
X0429852Y0270729D01*
X0431021Y0271898D01*
X0431653Y0273424D01*
X0431653Y0275076D01*
X0431021Y0276602D01*
X0429852Y0277771D01*
X0428326Y0278403D01*
X0426674Y0278403D01*
X0425148Y0277771D01*
X0423979Y0276602D01*
X0423347Y0275076D01*
X0423347Y0273424D01*
X0423979Y0271898D01*
X0425148Y0270729D01*
X0426674Y0270097D01*
X0428326Y0270097D01*
X0426137Y0270320D02*
X0405000Y0270320D01*
X0405000Y0271518D02*
X0424359Y0271518D01*
X0423640Y0272717D02*
X0405000Y0272717D01*
X0405000Y0273915D02*
X0423347Y0273915D01*
X0423363Y0275114D02*
X0405000Y0275114D01*
X0405000Y0276312D02*
X0423859Y0276312D01*
X0424888Y0277511D02*
X0405000Y0277511D01*
X0405000Y0278709D02*
X0429668Y0278709D01*
X0429479Y0278898D02*
X0430648Y0277729D01*
X0432174Y0277097D01*
X0433826Y0277097D01*
X0435352Y0277729D01*
X0436521Y0278898D01*
X0437153Y0280424D01*
X0437153Y0282076D01*
X0436521Y0283602D01*
X0435352Y0284771D01*
X0433826Y0285403D01*
X0432174Y0285403D01*
X0430648Y0284771D01*
X0429479Y0283602D01*
X0428847Y0282076D01*
X0428847Y0280424D01*
X0429479Y0278898D01*
X0429061Y0279908D02*
X0405000Y0279908D01*
X0405000Y0281106D02*
X0428847Y0281106D01*
X0428942Y0282305D02*
X0405000Y0282305D01*
X0405000Y0283503D02*
X0429438Y0283503D01*
X0430579Y0284702D02*
X0405000Y0284702D01*
X0405000Y0285900D02*
X0440777Y0285900D01*
X0440479Y0285602D02*
X0439847Y0284076D01*
X0439847Y0282424D01*
X0440479Y0280898D01*
X0441648Y0279729D01*
X0443174Y0279097D01*
X0444826Y0279097D01*
X0446352Y0279729D01*
X0447521Y0280898D01*
X0448153Y0282424D01*
X0448153Y0284076D01*
X0447521Y0285602D01*
X0446352Y0286771D01*
X0444826Y0287403D01*
X0443174Y0287403D01*
X0441648Y0286771D01*
X0440479Y0285602D01*
X0440106Y0284702D02*
X0435421Y0284702D01*
X0436562Y0283503D02*
X0439847Y0283503D01*
X0439897Y0282305D02*
X0437058Y0282305D01*
X0437153Y0281106D02*
X0440393Y0281106D01*
X0441470Y0279908D02*
X0436939Y0279908D01*
X0436332Y0278709D02*
X0492200Y0278709D01*
X0492200Y0277511D02*
X0434824Y0277511D01*
X0431176Y0277511D02*
X0430112Y0277511D01*
X0431141Y0276312D02*
X0492200Y0276312D01*
X0492200Y0275114D02*
X0431637Y0275114D01*
X0431653Y0273915D02*
X0462644Y0273915D01*
X0461381Y0272717D02*
X0431360Y0272717D01*
X0430641Y0271518D02*
X0461019Y0271518D01*
X0464000Y0271250D02*
X0492000Y0271250D01*
X0494000Y0273250D01*
X0494000Y0320250D01*
X0495000Y0321250D01*
X0603000Y0321250D01*
X0623000Y0301250D01*
X0631000Y0301250D01*
X0586997Y0290694D02*
X0495800Y0290694D01*
X0495800Y0289496D02*
X0586990Y0289496D01*
X0586983Y0288297D02*
X0495800Y0288297D01*
X0495800Y0287099D02*
X0586976Y0287099D01*
X0586969Y0285900D02*
X0495800Y0285900D01*
X0495800Y0284702D02*
X0586962Y0284702D01*
X0586955Y0283503D02*
X0495800Y0283503D01*
X0495800Y0282305D02*
X0586948Y0282305D01*
X0586941Y0281106D02*
X0495800Y0281106D01*
X0495800Y0279908D02*
X0586934Y0279908D01*
X0586927Y0278709D02*
X0495800Y0278709D01*
X0495800Y0277511D02*
X0586920Y0277511D01*
X0586913Y0276312D02*
X0495800Y0276312D01*
X0495800Y0275114D02*
X0586906Y0275114D01*
X0586899Y0273915D02*
X0495800Y0273915D01*
X0495800Y0272717D02*
X0586892Y0272717D01*
X0586885Y0271518D02*
X0494814Y0271518D01*
X0493615Y0270320D02*
X0586878Y0270320D01*
X0586871Y0269121D02*
X0466087Y0269121D01*
X0465356Y0273915D02*
X0492119Y0273915D01*
X0492200Y0279908D02*
X0446530Y0279908D01*
X0447607Y0281106D02*
X0492200Y0281106D01*
X0492200Y0282305D02*
X0448103Y0282305D01*
X0448153Y0283503D02*
X0492200Y0283503D01*
X0492200Y0284702D02*
X0447894Y0284702D01*
X0447223Y0285900D02*
X0492200Y0285900D01*
X0492200Y0287099D02*
X0445560Y0287099D01*
X0442440Y0287099D02*
X0405000Y0287099D01*
X0405000Y0288297D02*
X0492200Y0288297D01*
X0492200Y0289496D02*
X0405000Y0289496D01*
X0405000Y0290694D02*
X0492200Y0290694D01*
X0476900Y0297950D02*
X0475000Y0299250D01*
X0457000Y0299250D01*
X0445000Y0311250D01*
X0031000Y0311250D01*
X0028000Y0308250D01*
X0028000Y0084250D01*
X0020000Y0076250D01*
X0020000Y0056250D01*
X0013000Y0049250D01*
X0033000Y0049793D02*
X0057400Y0049793D01*
X0057400Y0049850D02*
X0057400Y0048650D01*
X0058600Y0048650D01*
X0058600Y0049850D01*
X0067111Y0049850D01*
X0066956Y0051031D01*
X0066647Y0052185D01*
X0066190Y0053289D01*
X0065592Y0054323D01*
X0064865Y0055271D01*
X0064021Y0056115D01*
X0063073Y0056842D01*
X0062039Y0057440D01*
X0060935Y0057897D01*
X0059781Y0058206D01*
X0058600Y0058361D01*
X0058600Y0049850D01*
X0057400Y0049850D01*
X0057400Y0058361D01*
X0056219Y0058206D01*
X0055065Y0057897D01*
X0053961Y0057440D01*
X0052927Y0056842D01*
X0051979Y0056115D01*
X0051135Y0055271D01*
X0050408Y0054323D01*
X0049810Y0053289D01*
X0049353Y0052185D01*
X0049044Y0051031D01*
X0048889Y0049850D01*
X0057400Y0049850D01*
X0057400Y0050992D02*
X0058600Y0050992D01*
X0058600Y0052190D02*
X0057400Y0052190D01*
X0057400Y0053389D02*
X0058600Y0053389D01*
X0058600Y0054587D02*
X0057400Y0054587D01*
X0057400Y0055786D02*
X0058600Y0055786D01*
X0058600Y0056984D02*
X0057400Y0056984D01*
X0057400Y0058183D02*
X0058600Y0058183D01*
X0059867Y0058183D02*
X0190691Y0058183D01*
X0190614Y0058144D02*
X0190034Y0057723D01*
X0189527Y0057216D01*
X0189106Y0056636D01*
X0188781Y0055998D01*
X0188559Y0055316D01*
X0188451Y0054634D01*
X0192616Y0054634D01*
X0192616Y0053866D01*
X0193384Y0053866D01*
X0193384Y0049701D01*
X0194066Y0049809D01*
X0194748Y0050031D01*
X0195386Y0050356D01*
X0195966Y0050777D01*
X0196473Y0051284D01*
X0196894Y0051864D01*
X0197219Y0052502D01*
X0197441Y0053184D01*
X0197549Y0053866D01*
X0193384Y0053866D01*
X0193384Y0054634D01*
X0197549Y0054634D01*
X0197441Y0055316D01*
X0197219Y0055998D01*
X0196894Y0056636D01*
X0196473Y0057216D01*
X0195966Y0057723D01*
X0195386Y0058144D01*
X0194748Y0058469D01*
X0194066Y0058691D01*
X0193384Y0058799D01*
X0193384Y0054634D01*
X0192616Y0054634D01*
X0192616Y0058799D01*
X0191934Y0058691D01*
X0191252Y0058469D01*
X0190614Y0058144D01*
X0189359Y0056984D02*
X0092092Y0056984D01*
X0092935Y0056636D02*
X0089733Y0057962D01*
X0086267Y0057962D01*
X0083065Y0056636D01*
X0080614Y0054185D01*
X0079288Y0050983D01*
X0079288Y0047517D01*
X0080614Y0044315D01*
X0083065Y0041864D01*
X0086267Y0040538D01*
X0089733Y0040538D01*
X0092935Y0041864D01*
X0095386Y0044315D01*
X0096712Y0047517D01*
X0096712Y0050983D01*
X0095386Y0054185D01*
X0092935Y0056636D01*
X0093784Y0055786D02*
X0188712Y0055786D01*
X0188451Y0053866D02*
X0188559Y0053184D01*
X0188781Y0052502D01*
X0189106Y0051864D01*
X0189527Y0051284D01*
X0190034Y0050777D01*
X0190614Y0050356D01*
X0191252Y0050031D01*
X0191934Y0049809D01*
X0192616Y0049701D01*
X0192616Y0053866D01*
X0188451Y0053866D01*
X0188527Y0053389D02*
X0095715Y0053389D01*
X0096212Y0052190D02*
X0188940Y0052190D01*
X0189819Y0050992D02*
X0096708Y0050992D01*
X0096712Y0049793D02*
X0192034Y0049793D01*
X0192616Y0049793D02*
X0193384Y0049793D01*
X0193966Y0049793D02*
X0202034Y0049793D01*
X0201934Y0049809D02*
X0202616Y0049701D01*
X0202616Y0053866D01*
X0203384Y0053866D01*
X0203384Y0049701D01*
X0204066Y0049809D01*
X0204748Y0050031D01*
X0205386Y0050356D01*
X0205966Y0050777D01*
X0206473Y0051284D01*
X0206894Y0051864D01*
X0207219Y0052502D01*
X0207441Y0053184D01*
X0207549Y0053866D01*
X0203384Y0053866D01*
X0203384Y0054634D01*
X0207549Y0054634D01*
X0207441Y0055316D01*
X0207219Y0055998D01*
X0206894Y0056636D01*
X0206473Y0057216D01*
X0205966Y0057723D01*
X0205386Y0058144D01*
X0204748Y0058469D01*
X0204066Y0058691D01*
X0203384Y0058799D01*
X0203384Y0054634D01*
X0202616Y0054634D01*
X0202616Y0053866D01*
X0198451Y0053866D01*
X0198559Y0053184D01*
X0198781Y0052502D01*
X0199106Y0051864D01*
X0199527Y0051284D01*
X0200034Y0050777D01*
X0200614Y0050356D01*
X0201252Y0050031D01*
X0201934Y0049809D01*
X0202616Y0049793D02*
X0203384Y0049793D01*
X0203966Y0049793D02*
X0387034Y0049793D01*
X0386934Y0049809D02*
X0387616Y0049701D01*
X0387616Y0053866D01*
X0388384Y0053866D01*
X0388384Y0049701D01*
X0389066Y0049809D01*
X0389748Y0050031D01*
X0390386Y0050356D01*
X0390966Y0050777D01*
X0391473Y0051284D01*
X0391894Y0051864D01*
X0392219Y0052502D01*
X0392441Y0053184D01*
X0392549Y0053866D01*
X0388384Y0053866D01*
X0388384Y0054634D01*
X0392549Y0054634D01*
X0392441Y0055316D01*
X0392219Y0055998D01*
X0391894Y0056636D01*
X0391473Y0057216D01*
X0390966Y0057723D01*
X0390386Y0058144D01*
X0389748Y0058469D01*
X0389066Y0058691D01*
X0388384Y0058799D01*
X0388384Y0054634D01*
X0387616Y0054634D01*
X0387616Y0053866D01*
X0383451Y0053866D01*
X0383559Y0053184D01*
X0383781Y0052502D01*
X0384106Y0051864D01*
X0384527Y0051284D01*
X0385034Y0050777D01*
X0385614Y0050356D01*
X0386252Y0050031D01*
X0386934Y0049809D01*
X0387616Y0049793D02*
X0388384Y0049793D01*
X0388966Y0049793D02*
X0397034Y0049793D01*
X0396934Y0049809D02*
X0397616Y0049701D01*
X0397616Y0053866D01*
X0398384Y0053866D01*
X0398384Y0049701D01*
X0399066Y0049809D01*
X0399748Y0050031D01*
X0400386Y0050356D01*
X0400966Y0050777D01*
X0401473Y0051284D01*
X0401894Y0051864D01*
X0402219Y0052502D01*
X0402441Y0053184D01*
X0402549Y0053866D01*
X0398384Y0053866D01*
X0398384Y0054634D01*
X0402549Y0054634D01*
X0402441Y0055316D01*
X0402219Y0055998D01*
X0401894Y0056636D01*
X0401473Y0057216D01*
X0400966Y0057723D01*
X0400386Y0058144D01*
X0399748Y0058469D01*
X0399066Y0058691D01*
X0398384Y0058799D01*
X0398384Y0054634D01*
X0397616Y0054634D01*
X0397616Y0053866D01*
X0393451Y0053866D01*
X0393559Y0053184D01*
X0393781Y0052502D01*
X0394106Y0051864D01*
X0394527Y0051284D01*
X0395034Y0050777D01*
X0395614Y0050356D01*
X0396252Y0050031D01*
X0396934Y0049809D01*
X0397616Y0049793D02*
X0398384Y0049793D01*
X0398966Y0049793D02*
X0403000Y0049793D01*
X0403000Y0050992D02*
X0401180Y0050992D01*
X0402060Y0052190D02*
X0403000Y0052190D01*
X0403000Y0053389D02*
X0402473Y0053389D01*
X0403000Y0054587D02*
X0398384Y0054587D01*
X0397616Y0054587D02*
X0388384Y0054587D01*
X0387616Y0054587D02*
X0203384Y0054587D01*
X0202616Y0054587D02*
X0193384Y0054587D01*
X0192616Y0054587D02*
X0094983Y0054587D01*
X0096712Y0048595D02*
X0183000Y0048595D01*
X0183000Y0047396D02*
X0096662Y0047396D01*
X0096165Y0046198D02*
X0183000Y0046198D01*
X0183000Y0044999D02*
X0095669Y0044999D01*
X0094871Y0043801D02*
X0183000Y0043801D01*
X0183000Y0042602D02*
X0093673Y0042602D01*
X0091823Y0041404D02*
X0183000Y0041404D01*
X0183000Y0040205D02*
X0059107Y0040205D01*
X0058600Y0040205D02*
X0057400Y0040205D01*
X0057400Y0040139D02*
X0057400Y0048650D01*
X0048889Y0048650D01*
X0049044Y0047469D01*
X0049353Y0046315D01*
X0049810Y0045211D01*
X0050408Y0044177D01*
X0051135Y0043229D01*
X0051979Y0042385D01*
X0052927Y0041658D01*
X0053961Y0041060D01*
X0055065Y0040603D01*
X0056219Y0040294D01*
X0057400Y0040139D01*
X0056893Y0040205D02*
X0033000Y0040205D01*
X0033000Y0039007D02*
X0183000Y0039007D01*
X0183000Y0037808D02*
X0033000Y0037808D01*
X0033000Y0036610D02*
X0183000Y0036610D01*
X0183000Y0035411D02*
X0033000Y0035411D01*
X0033000Y0034213D02*
X0183000Y0034213D01*
X0183000Y0033014D02*
X0045497Y0033014D01*
X0045935Y0032897D02*
X0044781Y0033206D01*
X0043600Y0033361D01*
X0043600Y0024850D01*
X0052111Y0024850D01*
X0051956Y0026031D01*
X0051647Y0027185D01*
X0051190Y0028289D01*
X0050592Y0029323D01*
X0049865Y0030271D01*
X0049021Y0031115D01*
X0048073Y0031842D01*
X0047039Y0032440D01*
X0045935Y0032897D01*
X0043600Y0033014D02*
X0042400Y0033014D01*
X0042400Y0033361D02*
X0041219Y0033206D01*
X0040065Y0032897D01*
X0038961Y0032440D01*
X0037927Y0031842D01*
X0036979Y0031115D01*
X0036135Y0030271D01*
X0035408Y0029323D01*
X0034810Y0028289D01*
X0034353Y0027185D01*
X0034044Y0026031D01*
X0033889Y0024850D01*
X0042400Y0024850D01*
X0042400Y0033361D01*
X0042400Y0031816D02*
X0043600Y0031816D01*
X0043600Y0030617D02*
X0042400Y0030617D01*
X0042400Y0029419D02*
X0043600Y0029419D01*
X0043600Y0028220D02*
X0042400Y0028220D01*
X0042400Y0027022D02*
X0043600Y0027022D01*
X0043600Y0025823D02*
X0042400Y0025823D01*
X0042400Y0024850D02*
X0043600Y0024850D01*
X0043600Y0023650D01*
X0052111Y0023650D01*
X0051956Y0022469D01*
X0051647Y0021315D01*
X0051190Y0020211D01*
X0050592Y0019177D01*
X0049865Y0018229D01*
X0049021Y0017385D01*
X0048073Y0016658D01*
X0047039Y0016060D01*
X0045935Y0015603D01*
X0044781Y0015294D01*
X0043600Y0015139D01*
X0043600Y0023650D01*
X0042400Y0023650D01*
X0042400Y0015139D01*
X0041219Y0015294D01*
X0040065Y0015603D01*
X0038961Y0016060D01*
X0037927Y0016658D01*
X0036979Y0017385D01*
X0036135Y0018229D01*
X0035408Y0019177D01*
X0034810Y0020211D01*
X0034353Y0021315D01*
X0034044Y0022469D01*
X0033889Y0023650D01*
X0042400Y0023650D01*
X0042400Y0024850D01*
X0042400Y0024625D02*
X0033000Y0024625D01*
X0033000Y0025823D02*
X0034017Y0025823D01*
X0034309Y0027022D02*
X0033000Y0027022D01*
X0033000Y0028220D02*
X0034782Y0028220D01*
X0035481Y0029419D02*
X0033000Y0029419D01*
X0033000Y0030617D02*
X0036481Y0030617D01*
X0037892Y0031816D02*
X0033000Y0031816D01*
X0033000Y0033014D02*
X0040503Y0033014D01*
X0048108Y0031816D02*
X0068500Y0031816D01*
X0068065Y0031636D02*
X0065614Y0029185D01*
X0064288Y0025983D01*
X0064288Y0022517D01*
X0065614Y0019315D01*
X0068065Y0016864D01*
X0071267Y0015538D01*
X0074733Y0015538D01*
X0077935Y0016864D01*
X0080386Y0019315D01*
X0081712Y0022517D01*
X0081712Y0025983D01*
X0080386Y0029185D01*
X0077935Y0031636D01*
X0074733Y0032962D01*
X0071267Y0032962D01*
X0068065Y0031636D01*
X0067047Y0030617D02*
X0049519Y0030617D01*
X0050519Y0029419D02*
X0065848Y0029419D01*
X0065215Y0028220D02*
X0051218Y0028220D01*
X0051691Y0027022D02*
X0064718Y0027022D01*
X0064288Y0025823D02*
X0051983Y0025823D01*
X0052082Y0023426D02*
X0064288Y0023426D01*
X0064288Y0024625D02*
X0043600Y0024625D01*
X0043600Y0023426D02*
X0042400Y0023426D01*
X0042400Y0022228D02*
X0043600Y0022228D01*
X0043600Y0021029D02*
X0042400Y0021029D01*
X0042400Y0019831D02*
X0043600Y0019831D01*
X0043600Y0018632D02*
X0042400Y0018632D01*
X0042400Y0017434D02*
X0043600Y0017434D01*
X0043600Y0016235D02*
X0042400Y0016235D01*
X0038659Y0016235D02*
X0033000Y0016235D01*
X0033000Y0015037D02*
X0183000Y0015037D01*
X0183000Y0016235D02*
X0076415Y0016235D01*
X0078504Y0017434D02*
X0183000Y0017434D01*
X0183000Y0018632D02*
X0079702Y0018632D01*
X0080599Y0019831D02*
X0183000Y0019831D01*
X0183000Y0021029D02*
X0081095Y0021029D01*
X0081592Y0022228D02*
X0183000Y0022228D01*
X0183000Y0023426D02*
X0081712Y0023426D01*
X0081712Y0024625D02*
X0183000Y0024625D01*
X0183000Y0025823D02*
X0081712Y0025823D01*
X0081282Y0027022D02*
X0183000Y0027022D01*
X0183000Y0028220D02*
X0080785Y0028220D01*
X0080152Y0029419D02*
X0183000Y0029419D01*
X0183000Y0030617D02*
X0078953Y0030617D01*
X0077500Y0031816D02*
X0183000Y0031816D01*
X0193000Y0024250D02*
X0198000Y0029250D01*
X0383000Y0029250D01*
X0388000Y0024250D01*
X0393000Y0029250D01*
X0588000Y0029250D01*
X0593000Y0024250D01*
X0598000Y0019250D02*
X0403000Y0019250D01*
X0398000Y0024250D01*
X0393000Y0019250D01*
X0208000Y0019250D01*
X0203000Y0024250D01*
X0203000Y0034250D02*
X0380000Y0034250D01*
X0385000Y0039250D01*
X0393000Y0039250D01*
X0398000Y0034250D01*
X0585000Y0034250D01*
X0590000Y0039250D01*
X0598000Y0039250D01*
X0603000Y0034250D01*
X0603000Y0024250D02*
X0598000Y0019250D01*
X0403000Y0055786D02*
X0402288Y0055786D01*
X0401641Y0056984D02*
X0403000Y0056984D01*
X0403000Y0058183D02*
X0400309Y0058183D01*
X0398384Y0058183D02*
X0397616Y0058183D01*
X0397616Y0058799D02*
X0397616Y0054634D01*
X0393451Y0054634D01*
X0393559Y0055316D01*
X0393781Y0055998D01*
X0394106Y0056636D01*
X0394527Y0057216D01*
X0395034Y0057723D01*
X0395614Y0058144D01*
X0396252Y0058469D01*
X0396934Y0058691D01*
X0397616Y0058799D01*
X0397616Y0059701D02*
X0397616Y0063866D01*
X0398384Y0063866D01*
X0398384Y0059701D01*
X0399066Y0059809D01*
X0399748Y0060031D01*
X0400386Y0060356D01*
X0400966Y0060777D01*
X0401473Y0061284D01*
X0401894Y0061864D01*
X0402219Y0062502D01*
X0402441Y0063184D01*
X0402549Y0063866D01*
X0398384Y0063866D01*
X0398384Y0064634D01*
X0402549Y0064634D01*
X0402441Y0065316D01*
X0402219Y0065998D01*
X0401894Y0066636D01*
X0401473Y0067216D01*
X0400966Y0067723D01*
X0400386Y0068144D01*
X0399748Y0068469D01*
X0399066Y0068691D01*
X0398384Y0068799D01*
X0398384Y0064634D01*
X0397616Y0064634D01*
X0397616Y0063866D01*
X0393451Y0063866D01*
X0393559Y0063184D01*
X0393781Y0062502D01*
X0394106Y0061864D01*
X0394527Y0061284D01*
X0395034Y0060777D01*
X0395614Y0060356D01*
X0396252Y0060031D01*
X0396934Y0059809D01*
X0397616Y0059701D01*
X0397616Y0060580D02*
X0398384Y0060580D01*
X0398384Y0061779D02*
X0397616Y0061779D01*
X0397616Y0062977D02*
X0398384Y0062977D01*
X0398384Y0064176D02*
X0403000Y0064176D01*
X0403000Y0065374D02*
X0402422Y0065374D01*
X0401926Y0066573D02*
X0403000Y0066573D01*
X0403000Y0067771D02*
X0400899Y0067771D01*
X0403000Y0068970D02*
X0080040Y0068970D01*
X0080386Y0069315D02*
X0081712Y0072517D01*
X0081712Y0075983D01*
X0080386Y0079185D01*
X0077935Y0081636D01*
X0074733Y0082962D01*
X0071267Y0082962D01*
X0068065Y0081636D01*
X0065614Y0079185D01*
X0064288Y0075983D01*
X0064288Y0072517D01*
X0065614Y0069315D01*
X0068065Y0066864D01*
X0071267Y0065538D01*
X0074733Y0065538D01*
X0077935Y0066864D01*
X0080386Y0069315D01*
X0080739Y0070168D02*
X0190983Y0070168D01*
X0191252Y0070031D02*
X0191934Y0069809D01*
X0192616Y0069701D01*
X0192616Y0073866D01*
X0193384Y0073866D01*
X0193384Y0069701D01*
X0194066Y0069809D01*
X0194748Y0070031D01*
X0195386Y0070356D01*
X0195966Y0070777D01*
X0196473Y0071284D01*
X0196894Y0071864D01*
X0197219Y0072502D01*
X0197441Y0073184D01*
X0197549Y0073866D01*
X0193384Y0073866D01*
X0193384Y0074634D01*
X0197549Y0074634D01*
X0197441Y0075316D01*
X0197219Y0075998D01*
X0196894Y0076636D01*
X0196473Y0077216D01*
X0195966Y0077723D01*
X0195386Y0078144D01*
X0194748Y0078469D01*
X0194066Y0078691D01*
X0193384Y0078799D01*
X0193384Y0074634D01*
X0192616Y0074634D01*
X0192616Y0073866D01*
X0188451Y0073866D01*
X0188559Y0073184D01*
X0188781Y0072502D01*
X0189106Y0071864D01*
X0189527Y0071284D01*
X0190034Y0070777D01*
X0190614Y0070356D01*
X0191252Y0070031D01*
X0192616Y0070168D02*
X0193384Y0070168D01*
X0193384Y0071367D02*
X0192616Y0071367D01*
X0192616Y0072565D02*
X0193384Y0072565D01*
X0193384Y0073764D02*
X0192616Y0073764D01*
X0192616Y0074634D02*
X0188451Y0074634D01*
X0188559Y0075316D01*
X0188781Y0075998D01*
X0189106Y0076636D01*
X0189527Y0077216D01*
X0190034Y0077723D01*
X0190614Y0078144D01*
X0191252Y0078469D01*
X0191934Y0078691D01*
X0192616Y0078799D01*
X0192616Y0074634D01*
X0192616Y0074962D02*
X0193384Y0074962D01*
X0193384Y0076161D02*
X0192616Y0076161D01*
X0192616Y0077359D02*
X0193384Y0077359D01*
X0193384Y0078558D02*
X0192616Y0078558D01*
X0191525Y0078558D02*
X0080645Y0078558D01*
X0081142Y0077359D02*
X0189671Y0077359D01*
X0188864Y0076161D02*
X0081638Y0076161D01*
X0081712Y0074962D02*
X0188503Y0074962D01*
X0188468Y0073764D02*
X0081712Y0073764D01*
X0081712Y0072565D02*
X0188760Y0072565D01*
X0189467Y0071367D02*
X0081235Y0071367D01*
X0078841Y0067771D02*
X0190101Y0067771D01*
X0190034Y0067723D02*
X0189527Y0067216D01*
X0189106Y0066636D01*
X0188781Y0065998D01*
X0188559Y0065316D01*
X0188451Y0064634D01*
X0192616Y0064634D01*
X0192616Y0063866D01*
X0193384Y0063866D01*
X0193384Y0059701D01*
X0194066Y0059809D01*
X0194748Y0060031D01*
X0195386Y0060356D01*
X0195966Y0060777D01*
X0196473Y0061284D01*
X0196894Y0061864D01*
X0197219Y0062502D01*
X0197441Y0063184D01*
X0197549Y0063866D01*
X0193384Y0063866D01*
X0193384Y0064634D01*
X0197549Y0064634D01*
X0197441Y0065316D01*
X0197219Y0065998D01*
X0196894Y0066636D01*
X0196473Y0067216D01*
X0195966Y0067723D01*
X0195386Y0068144D01*
X0194748Y0068469D01*
X0194066Y0068691D01*
X0193384Y0068799D01*
X0193384Y0064634D01*
X0192616Y0064634D01*
X0192616Y0068799D01*
X0191934Y0068691D01*
X0191252Y0068469D01*
X0190614Y0068144D01*
X0190034Y0067723D01*
X0189074Y0066573D02*
X0077230Y0066573D01*
X0068770Y0066573D02*
X0047926Y0066573D01*
X0048073Y0066658D02*
X0049021Y0067385D01*
X0049865Y0068229D01*
X0050592Y0069177D01*
X0051190Y0070211D01*
X0051647Y0071315D01*
X0051956Y0072469D01*
X0052111Y0073650D01*
X0043600Y0073650D01*
X0043600Y0074850D01*
X0052111Y0074850D01*
X0051956Y0076031D01*
X0051647Y0077185D01*
X0051190Y0078289D01*
X0050592Y0079323D01*
X0049865Y0080271D01*
X0049021Y0081115D01*
X0048073Y0081842D01*
X0047039Y0082440D01*
X0045935Y0082897D01*
X0044781Y0083206D01*
X0043600Y0083361D01*
X0043600Y0074850D01*
X0042400Y0074850D01*
X0042400Y0083361D01*
X0041219Y0083206D01*
X0040065Y0082897D01*
X0038961Y0082440D01*
X0037927Y0081842D01*
X0036979Y0081115D01*
X0036135Y0080271D01*
X0035408Y0079323D01*
X0034810Y0078289D01*
X0034353Y0077185D01*
X0034044Y0076031D01*
X0033889Y0074850D01*
X0042400Y0074850D01*
X0042400Y0073650D01*
X0043600Y0073650D01*
X0043600Y0065139D01*
X0044781Y0065294D01*
X0045935Y0065603D01*
X0047039Y0066060D01*
X0048073Y0066658D01*
X0049407Y0067771D02*
X0067159Y0067771D01*
X0065960Y0068970D02*
X0050433Y0068970D01*
X0051165Y0070168D02*
X0065261Y0070168D01*
X0064765Y0071367D02*
X0051661Y0071367D01*
X0051969Y0072565D02*
X0064288Y0072565D01*
X0064288Y0073764D02*
X0043600Y0073764D01*
X0043600Y0074962D02*
X0042400Y0074962D01*
X0042400Y0073764D02*
X0033000Y0073764D01*
X0033889Y0073650D02*
X0034044Y0072469D01*
X0034353Y0071315D01*
X0034810Y0070211D01*
X0035408Y0069177D01*
X0036135Y0068229D01*
X0036979Y0067385D01*
X0037927Y0066658D01*
X0038961Y0066060D01*
X0040065Y0065603D01*
X0041219Y0065294D01*
X0042400Y0065139D01*
X0042400Y0073650D01*
X0033889Y0073650D01*
X0034031Y0072565D02*
X0033000Y0072565D01*
X0033000Y0071367D02*
X0034339Y0071367D01*
X0034835Y0070168D02*
X0033000Y0070168D01*
X0033000Y0068970D02*
X0035567Y0068970D01*
X0036593Y0067771D02*
X0033000Y0067771D01*
X0033000Y0066573D02*
X0038074Y0066573D01*
X0040920Y0065374D02*
X0033000Y0065374D01*
X0033000Y0064176D02*
X0192616Y0064176D01*
X0192616Y0063866D02*
X0188451Y0063866D01*
X0188559Y0063184D01*
X0188781Y0062502D01*
X0189106Y0061864D01*
X0189527Y0061284D01*
X0190034Y0060777D01*
X0190614Y0060356D01*
X0191252Y0060031D01*
X0191934Y0059809D01*
X0192616Y0059701D01*
X0192616Y0063866D01*
X0193384Y0064176D02*
X0202616Y0064176D01*
X0202616Y0063866D02*
X0198451Y0063866D01*
X0198559Y0063184D01*
X0198781Y0062502D01*
X0199106Y0061864D01*
X0199527Y0061284D01*
X0200034Y0060777D01*
X0200614Y0060356D01*
X0201252Y0060031D01*
X0201934Y0059809D01*
X0202616Y0059701D01*
X0202616Y0063866D01*
X0203384Y0063866D01*
X0203384Y0059701D01*
X0204066Y0059809D01*
X0204748Y0060031D01*
X0205386Y0060356D01*
X0205966Y0060777D01*
X0206473Y0061284D01*
X0206894Y0061864D01*
X0207219Y0062502D01*
X0207441Y0063184D01*
X0207549Y0063866D01*
X0203384Y0063866D01*
X0203384Y0064634D01*
X0207549Y0064634D01*
X0207441Y0065316D01*
X0207219Y0065998D01*
X0206894Y0066636D01*
X0206473Y0067216D01*
X0205966Y0067723D01*
X0205386Y0068144D01*
X0204748Y0068469D01*
X0204066Y0068691D01*
X0203384Y0068799D01*
X0203384Y0064634D01*
X0202616Y0064634D01*
X0202616Y0063866D01*
X0202616Y0064634D02*
X0198451Y0064634D01*
X0198559Y0065316D01*
X0198781Y0065998D01*
X0199106Y0066636D01*
X0199527Y0067216D01*
X0200034Y0067723D01*
X0200614Y0068144D01*
X0201252Y0068469D01*
X0201934Y0068691D01*
X0202616Y0068799D01*
X0202616Y0064634D01*
X0202616Y0065374D02*
X0203384Y0065374D01*
X0203384Y0064176D02*
X0387616Y0064176D01*
X0387616Y0063866D02*
X0383451Y0063866D01*
X0383559Y0063184D01*
X0383781Y0062502D01*
X0384106Y0061864D01*
X0384527Y0061284D01*
X0385034Y0060777D01*
X0385614Y0060356D01*
X0386252Y0060031D01*
X0386934Y0059809D01*
X0387616Y0059701D01*
X0387616Y0063866D01*
X0388384Y0063866D01*
X0388384Y0059701D01*
X0389066Y0059809D01*
X0389748Y0060031D01*
X0390386Y0060356D01*
X0390966Y0060777D01*
X0391473Y0061284D01*
X0391894Y0061864D01*
X0392219Y0062502D01*
X0392441Y0063184D01*
X0392549Y0063866D01*
X0388384Y0063866D01*
X0388384Y0064634D01*
X0392549Y0064634D01*
X0392441Y0065316D01*
X0392219Y0065998D01*
X0391894Y0066636D01*
X0391473Y0067216D01*
X0390966Y0067723D01*
X0390386Y0068144D01*
X0389748Y0068469D01*
X0389066Y0068691D01*
X0388384Y0068799D01*
X0388384Y0064634D01*
X0387616Y0064634D01*
X0387616Y0063866D01*
X0387616Y0064634D02*
X0383451Y0064634D01*
X0383559Y0065316D01*
X0383781Y0065998D01*
X0384106Y0066636D01*
X0384527Y0067216D01*
X0385034Y0067723D01*
X0385614Y0068144D01*
X0386252Y0068469D01*
X0386934Y0068691D01*
X0387616Y0068799D01*
X0387616Y0064634D01*
X0387616Y0065374D02*
X0388384Y0065374D01*
X0388384Y0064176D02*
X0397616Y0064176D01*
X0397616Y0064634D02*
X0393451Y0064634D01*
X0393559Y0065316D01*
X0393781Y0065998D01*
X0394106Y0066636D01*
X0394527Y0067216D01*
X0395034Y0067723D01*
X0395614Y0068144D01*
X0396252Y0068469D01*
X0396934Y0068691D01*
X0397616Y0068799D01*
X0397616Y0064634D01*
X0397616Y0065374D02*
X0398384Y0065374D01*
X0398384Y0066573D02*
X0397616Y0066573D01*
X0397616Y0067771D02*
X0398384Y0067771D01*
X0398384Y0069701D02*
X0399066Y0069809D01*
X0399748Y0070031D01*
X0400386Y0070356D01*
X0400966Y0070777D01*
X0401473Y0071284D01*
X0401894Y0071864D01*
X0402219Y0072502D01*
X0402441Y0073184D01*
X0402549Y0073866D01*
X0398384Y0073866D01*
X0398384Y0069701D01*
X0398384Y0070168D02*
X0397616Y0070168D01*
X0397616Y0069701D02*
X0397616Y0073866D01*
X0398384Y0073866D01*
X0398384Y0074634D01*
X0402549Y0074634D01*
X0402441Y0075316D01*
X0402219Y0075998D01*
X0401894Y0076636D01*
X0401473Y0077216D01*
X0400966Y0077723D01*
X0400386Y0078144D01*
X0399748Y0078469D01*
X0399066Y0078691D01*
X0398384Y0078799D01*
X0398384Y0074634D01*
X0397616Y0074634D01*
X0397616Y0073866D01*
X0393451Y0073866D01*
X0393559Y0073184D01*
X0393781Y0072502D01*
X0394106Y0071864D01*
X0394527Y0071284D01*
X0395034Y0070777D01*
X0395614Y0070356D01*
X0396252Y0070031D01*
X0396934Y0069809D01*
X0397616Y0069701D01*
X0397616Y0071367D02*
X0398384Y0071367D01*
X0398384Y0072565D02*
X0397616Y0072565D01*
X0397616Y0073764D02*
X0398384Y0073764D01*
X0397616Y0074634D02*
X0393451Y0074634D01*
X0393559Y0075316D01*
X0393781Y0075998D01*
X0394106Y0076636D01*
X0394527Y0077216D01*
X0395034Y0077723D01*
X0395614Y0078144D01*
X0396252Y0078469D01*
X0396934Y0078691D01*
X0397616Y0078799D01*
X0397616Y0074634D01*
X0397616Y0074962D02*
X0398384Y0074962D01*
X0398384Y0076161D02*
X0397616Y0076161D01*
X0397616Y0077359D02*
X0398384Y0077359D01*
X0398384Y0078558D02*
X0397616Y0078558D01*
X0396525Y0078558D02*
X0389475Y0078558D01*
X0389748Y0078469D02*
X0389066Y0078691D01*
X0388384Y0078799D01*
X0388384Y0074634D01*
X0392549Y0074634D01*
X0392441Y0075316D01*
X0392219Y0075998D01*
X0391894Y0076636D01*
X0391473Y0077216D01*
X0390966Y0077723D01*
X0390386Y0078144D01*
X0389748Y0078469D01*
X0388384Y0078558D02*
X0387616Y0078558D01*
X0387616Y0078799D02*
X0386934Y0078691D01*
X0386252Y0078469D01*
X0385614Y0078144D01*
X0385034Y0077723D01*
X0384527Y0077216D01*
X0384106Y0076636D01*
X0383781Y0075998D01*
X0383559Y0075316D01*
X0383451Y0074634D01*
X0387616Y0074634D01*
X0387616Y0073866D01*
X0388384Y0073866D01*
X0388384Y0069701D01*
X0389066Y0069809D01*
X0389748Y0070031D01*
X0390386Y0070356D01*
X0390966Y0070777D01*
X0391473Y0071284D01*
X0391894Y0071864D01*
X0392219Y0072502D01*
X0392441Y0073184D01*
X0392549Y0073866D01*
X0388384Y0073866D01*
X0388384Y0074634D01*
X0387616Y0074634D01*
X0387616Y0078799D01*
X0387616Y0079701D02*
X0387616Y0083866D01*
X0388384Y0083866D01*
X0388384Y0079701D01*
X0389066Y0079809D01*
X0389748Y0080031D01*
X0390386Y0080356D01*
X0390966Y0080777D01*
X0391473Y0081284D01*
X0391894Y0081864D01*
X0392219Y0082502D01*
X0392441Y0083184D01*
X0392549Y0083866D01*
X0388384Y0083866D01*
X0388384Y0084634D01*
X0392549Y0084634D01*
X0392441Y0085316D01*
X0392219Y0085998D01*
X0391894Y0086636D01*
X0391473Y0087216D01*
X0390966Y0087723D01*
X0390386Y0088144D01*
X0389748Y0088469D01*
X0389066Y0088691D01*
X0388384Y0088799D01*
X0388384Y0084634D01*
X0387616Y0084634D01*
X0387616Y0083866D01*
X0383451Y0083866D01*
X0383559Y0083184D01*
X0383781Y0082502D01*
X0384106Y0081864D01*
X0384527Y0081284D01*
X0385034Y0080777D01*
X0385614Y0080356D01*
X0386252Y0080031D01*
X0386934Y0079809D01*
X0387616Y0079701D01*
X0387616Y0079756D02*
X0388384Y0079756D01*
X0388731Y0079756D02*
X0397269Y0079756D01*
X0396934Y0079809D02*
X0397616Y0079701D01*
X0397616Y0083866D01*
X0398384Y0083866D01*
X0398384Y0079701D01*
X0399066Y0079809D01*
X0399748Y0080031D01*
X0400386Y0080356D01*
X0400966Y0080777D01*
X0401473Y0081284D01*
X0401894Y0081864D01*
X0402219Y0082502D01*
X0402441Y0083184D01*
X0402549Y0083866D01*
X0398384Y0083866D01*
X0398384Y0084634D01*
X0402549Y0084634D01*
X0402441Y0085316D01*
X0402219Y0085998D01*
X0401894Y0086636D01*
X0401473Y0087216D01*
X0400966Y0087723D01*
X0400386Y0088144D01*
X0399748Y0088469D01*
X0399066Y0088691D01*
X0398384Y0088799D01*
X0398384Y0084634D01*
X0397616Y0084634D01*
X0397616Y0083866D01*
X0393451Y0083866D01*
X0393559Y0083184D01*
X0393781Y0082502D01*
X0394106Y0081864D01*
X0394527Y0081284D01*
X0395034Y0080777D01*
X0395614Y0080356D01*
X0396252Y0080031D01*
X0396934Y0079809D01*
X0397616Y0079756D02*
X0398384Y0079756D01*
X0398731Y0079756D02*
X0403000Y0079756D01*
X0403000Y0078558D02*
X0399475Y0078558D01*
X0401329Y0077359D02*
X0403000Y0077359D01*
X0403000Y0076161D02*
X0402136Y0076161D01*
X0402497Y0074962D02*
X0403000Y0074962D01*
X0403000Y0073764D02*
X0402532Y0073764D01*
X0402240Y0072565D02*
X0403000Y0072565D01*
X0403000Y0071367D02*
X0401533Y0071367D01*
X0403000Y0070168D02*
X0400017Y0070168D01*
X0395983Y0070168D02*
X0390017Y0070168D01*
X0388384Y0070168D02*
X0387616Y0070168D01*
X0387616Y0069701D02*
X0387616Y0073866D01*
X0383451Y0073866D01*
X0383559Y0073184D01*
X0383781Y0072502D01*
X0384106Y0071864D01*
X0384527Y0071284D01*
X0385034Y0070777D01*
X0385614Y0070356D01*
X0386252Y0070031D01*
X0386934Y0069809D01*
X0387616Y0069701D01*
X0387616Y0071367D02*
X0388384Y0071367D01*
X0388384Y0072565D02*
X0387616Y0072565D01*
X0387616Y0073764D02*
X0388384Y0073764D01*
X0388384Y0074962D02*
X0387616Y0074962D01*
X0387616Y0076161D02*
X0388384Y0076161D01*
X0388384Y0077359D02*
X0387616Y0077359D01*
X0386525Y0078558D02*
X0204475Y0078558D01*
X0204748Y0078469D02*
X0204066Y0078691D01*
X0203384Y0078799D01*
X0203384Y0074634D01*
X0207549Y0074634D01*
X0207441Y0075316D01*
X0207219Y0075998D01*
X0206894Y0076636D01*
X0206473Y0077216D01*
X0205966Y0077723D01*
X0205386Y0078144D01*
X0204748Y0078469D01*
X0203384Y0078558D02*
X0202616Y0078558D01*
X0202616Y0078799D02*
X0201934Y0078691D01*
X0201252Y0078469D01*
X0200614Y0078144D01*
X0200034Y0077723D01*
X0199527Y0077216D01*
X0199106Y0076636D01*
X0198781Y0075998D01*
X0198559Y0075316D01*
X0198451Y0074634D01*
X0202616Y0074634D01*
X0202616Y0073866D01*
X0203384Y0073866D01*
X0203384Y0069701D01*
X0204066Y0069809D01*
X0204748Y0070031D01*
X0205386Y0070356D01*
X0205966Y0070777D01*
X0206473Y0071284D01*
X0206894Y0071864D01*
X0207219Y0072502D01*
X0207441Y0073184D01*
X0207549Y0073866D01*
X0203384Y0073866D01*
X0203384Y0074634D01*
X0202616Y0074634D01*
X0202616Y0078799D01*
X0202616Y0079701D02*
X0202616Y0083866D01*
X0203384Y0083866D01*
X0203384Y0079701D01*
X0204066Y0079809D01*
X0204748Y0080031D01*
X0205386Y0080356D01*
X0205966Y0080777D01*
X0206473Y0081284D01*
X0206894Y0081864D01*
X0207219Y0082502D01*
X0207441Y0083184D01*
X0207549Y0083866D01*
X0203384Y0083866D01*
X0203384Y0084634D01*
X0207549Y0084634D01*
X0207441Y0085316D01*
X0207219Y0085998D01*
X0206894Y0086636D01*
X0206473Y0087216D01*
X0205966Y0087723D01*
X0205386Y0088144D01*
X0204748Y0088469D01*
X0204066Y0088691D01*
X0203384Y0088799D01*
X0203384Y0084634D01*
X0202616Y0084634D01*
X0202616Y0083866D01*
X0198451Y0083866D01*
X0198559Y0083184D01*
X0198781Y0082502D01*
X0199106Y0081864D01*
X0199527Y0081284D01*
X0200034Y0080777D01*
X0200614Y0080356D01*
X0201252Y0080031D01*
X0201934Y0079809D01*
X0202616Y0079701D01*
X0202616Y0079756D02*
X0203384Y0079756D01*
X0203731Y0079756D02*
X0387269Y0079756D01*
X0387616Y0080955D02*
X0388384Y0080955D01*
X0388384Y0082153D02*
X0387616Y0082153D01*
X0387616Y0083352D02*
X0388384Y0083352D01*
X0388384Y0084550D02*
X0397616Y0084550D01*
X0397616Y0084634D02*
X0393451Y0084634D01*
X0393559Y0085316D01*
X0393781Y0085998D01*
X0394106Y0086636D01*
X0394527Y0087216D01*
X0395034Y0087723D01*
X0395614Y0088144D01*
X0396252Y0088469D01*
X0396934Y0088691D01*
X0397616Y0088799D01*
X0397616Y0084634D01*
X0398384Y0084550D02*
X0403000Y0084550D01*
X0403000Y0083352D02*
X0402467Y0083352D01*
X0402041Y0082153D02*
X0403000Y0082153D01*
X0403000Y0080955D02*
X0401143Y0080955D01*
X0398384Y0080955D02*
X0397616Y0080955D01*
X0397616Y0082153D02*
X0398384Y0082153D01*
X0398384Y0083352D02*
X0397616Y0083352D01*
X0397616Y0085749D02*
X0398384Y0085749D01*
X0398384Y0086947D02*
X0397616Y0086947D01*
X0397616Y0088146D02*
X0398384Y0088146D01*
X0398384Y0089701D02*
X0399066Y0089809D01*
X0399748Y0090031D01*
X0400386Y0090356D01*
X0400966Y0090777D01*
X0401473Y0091284D01*
X0401894Y0091864D01*
X0402219Y0092502D01*
X0402441Y0093184D01*
X0402549Y0093866D01*
X0398384Y0093866D01*
X0398384Y0089701D01*
X0397616Y0089701D02*
X0397616Y0093866D01*
X0398384Y0093866D01*
X0398384Y0094634D01*
X0402549Y0094634D01*
X0402441Y0095316D01*
X0402219Y0095998D01*
X0401894Y0096636D01*
X0401473Y0097216D01*
X0400966Y0097723D01*
X0400386Y0098144D01*
X0399748Y0098469D01*
X0399066Y0098691D01*
X0398384Y0098799D01*
X0398384Y0094634D01*
X0397616Y0094634D01*
X0397616Y0093866D01*
X0393451Y0093866D01*
X0393559Y0093184D01*
X0393781Y0092502D01*
X0394106Y0091864D01*
X0394527Y0091284D01*
X0395034Y0090777D01*
X0395614Y0090356D01*
X0396252Y0090031D01*
X0396934Y0089809D01*
X0397616Y0089701D01*
X0397616Y0090543D02*
X0398384Y0090543D01*
X0398384Y0091741D02*
X0397616Y0091741D01*
X0397616Y0092940D02*
X0398384Y0092940D01*
X0398384Y0094138D02*
X0403000Y0094138D01*
X0403000Y0092940D02*
X0402361Y0092940D01*
X0401805Y0091741D02*
X0403000Y0091741D01*
X0403000Y0090543D02*
X0400643Y0090543D01*
X0400382Y0088146D02*
X0403000Y0088146D01*
X0403000Y0089344D02*
X0033000Y0089344D01*
X0033000Y0088146D02*
X0190618Y0088146D01*
X0190614Y0088144D02*
X0190034Y0087723D01*
X0189527Y0087216D01*
X0189106Y0086636D01*
X0188781Y0085998D01*
X0188559Y0085316D01*
X0188451Y0084634D01*
X0192616Y0084634D01*
X0192616Y0083866D01*
X0193384Y0083866D01*
X0193384Y0079701D01*
X0194066Y0079809D01*
X0194748Y0080031D01*
X0195386Y0080356D01*
X0195966Y0080777D01*
X0196473Y0081284D01*
X0196894Y0081864D01*
X0197219Y0082502D01*
X0197441Y0083184D01*
X0197549Y0083866D01*
X0193384Y0083866D01*
X0193384Y0084634D01*
X0197549Y0084634D01*
X0197441Y0085316D01*
X0197219Y0085998D01*
X0196894Y0086636D01*
X0196473Y0087216D01*
X0195966Y0087723D01*
X0195386Y0088144D01*
X0194748Y0088469D01*
X0194066Y0088691D01*
X0193384Y0088799D01*
X0193384Y0084634D01*
X0192616Y0084634D01*
X0192616Y0088799D01*
X0191934Y0088691D01*
X0191252Y0088469D01*
X0190614Y0088144D01*
X0189332Y0086947D02*
X0033000Y0086947D01*
X0033000Y0085749D02*
X0188700Y0085749D01*
X0188451Y0083866D02*
X0188559Y0083184D01*
X0188781Y0082502D01*
X0189106Y0081864D01*
X0189527Y0081284D01*
X0190034Y0080777D01*
X0190614Y0080356D01*
X0191252Y0080031D01*
X0191934Y0079809D01*
X0192616Y0079701D01*
X0192616Y0083866D01*
X0188451Y0083866D01*
X0188533Y0083352D02*
X0043674Y0083352D01*
X0043600Y0083352D02*
X0042400Y0083352D01*
X0042326Y0083352D02*
X0033000Y0083352D01*
X0033000Y0084550D02*
X0192616Y0084550D01*
X0193384Y0084550D02*
X0202616Y0084550D01*
X0202616Y0084634D02*
X0198451Y0084634D01*
X0198559Y0085316D01*
X0198781Y0085998D01*
X0199106Y0086636D01*
X0199527Y0087216D01*
X0200034Y0087723D01*
X0200614Y0088144D01*
X0201252Y0088469D01*
X0201934Y0088691D01*
X0202616Y0088799D01*
X0202616Y0084634D01*
X0203384Y0084550D02*
X0387616Y0084550D01*
X0387616Y0084634D02*
X0383451Y0084634D01*
X0383559Y0085316D01*
X0383781Y0085998D01*
X0384106Y0086636D01*
X0384527Y0087216D01*
X0385034Y0087723D01*
X0385614Y0088144D01*
X0386252Y0088469D01*
X0386934Y0088691D01*
X0387616Y0088799D01*
X0387616Y0084634D01*
X0387616Y0085749D02*
X0388384Y0085749D01*
X0388384Y0086947D02*
X0387616Y0086947D01*
X0387616Y0088146D02*
X0388384Y0088146D01*
X0388384Y0089701D02*
X0389066Y0089809D01*
X0389748Y0090031D01*
X0390386Y0090356D01*
X0390966Y0090777D01*
X0391473Y0091284D01*
X0391894Y0091864D01*
X0392219Y0092502D01*
X0392441Y0093184D01*
X0392549Y0093866D01*
X0388384Y0093866D01*
X0388384Y0089701D01*
X0387616Y0089701D02*
X0387616Y0093866D01*
X0388384Y0093866D01*
X0388384Y0094634D01*
X0392549Y0094634D01*
X0392441Y0095316D01*
X0392219Y0095998D01*
X0391894Y0096636D01*
X0391473Y0097216D01*
X0390966Y0097723D01*
X0390386Y0098144D01*
X0389748Y0098469D01*
X0389066Y0098691D01*
X0388384Y0098799D01*
X0388384Y0094634D01*
X0387616Y0094634D01*
X0387616Y0093866D01*
X0383451Y0093866D01*
X0383559Y0093184D01*
X0383781Y0092502D01*
X0384106Y0091864D01*
X0384527Y0091284D01*
X0385034Y0090777D01*
X0385614Y0090356D01*
X0386252Y0090031D01*
X0386934Y0089809D01*
X0387616Y0089701D01*
X0387616Y0090543D02*
X0388384Y0090543D01*
X0388384Y0091741D02*
X0387616Y0091741D01*
X0387616Y0092940D02*
X0388384Y0092940D01*
X0388384Y0094138D02*
X0397616Y0094138D01*
X0397616Y0094634D02*
X0393451Y0094634D01*
X0393559Y0095316D01*
X0393781Y0095998D01*
X0394106Y0096636D01*
X0394527Y0097216D01*
X0395034Y0097723D01*
X0395614Y0098144D01*
X0396252Y0098469D01*
X0396934Y0098691D01*
X0397616Y0098799D01*
X0397616Y0094634D01*
X0397616Y0095337D02*
X0398384Y0095337D01*
X0398384Y0096535D02*
X0397616Y0096535D01*
X0397616Y0097734D02*
X0398384Y0097734D01*
X0398384Y0099701D02*
X0399066Y0099809D01*
X0399748Y0100031D01*
X0400386Y0100356D01*
X0400966Y0100777D01*
X0401473Y0101284D01*
X0401894Y0101864D01*
X0402219Y0102502D01*
X0402441Y0103184D01*
X0402549Y0103866D01*
X0398384Y0103866D01*
X0398384Y0099701D01*
X0398384Y0100131D02*
X0397616Y0100131D01*
X0397616Y0099701D02*
X0397616Y0103866D01*
X0398384Y0103866D01*
X0398384Y0104634D01*
X0402549Y0104634D01*
X0402441Y0105316D01*
X0402219Y0105998D01*
X0401894Y0106636D01*
X0401473Y0107216D01*
X0400966Y0107723D01*
X0400386Y0108144D01*
X0399748Y0108469D01*
X0399066Y0108691D01*
X0398384Y0108799D01*
X0398384Y0104634D01*
X0397616Y0104634D01*
X0397616Y0103866D01*
X0393451Y0103866D01*
X0393559Y0103184D01*
X0393781Y0102502D01*
X0394106Y0101864D01*
X0394527Y0101284D01*
X0395034Y0100777D01*
X0395614Y0100356D01*
X0396252Y0100031D01*
X0396934Y0099809D01*
X0397616Y0099701D01*
X0396056Y0100131D02*
X0389944Y0100131D01*
X0389748Y0100031D02*
X0390386Y0100356D01*
X0390966Y0100777D01*
X0391473Y0101284D01*
X0391894Y0101864D01*
X0392219Y0102502D01*
X0392441Y0103184D01*
X0392549Y0103866D01*
X0388384Y0103866D01*
X0388384Y0099701D01*
X0389066Y0099809D01*
X0389748Y0100031D01*
X0388384Y0100131D02*
X0387616Y0100131D01*
X0387616Y0099701D02*
X0387616Y0103866D01*
X0388384Y0103866D01*
X0388384Y0104634D01*
X0392549Y0104634D01*
X0392441Y0105316D01*
X0392219Y0105998D01*
X0391894Y0106636D01*
X0391473Y0107216D01*
X0390966Y0107723D01*
X0390386Y0108144D01*
X0389748Y0108469D01*
X0389066Y0108691D01*
X0388384Y0108799D01*
X0388384Y0104634D01*
X0387616Y0104634D01*
X0387616Y0103866D01*
X0383451Y0103866D01*
X0383559Y0103184D01*
X0383781Y0102502D01*
X0384106Y0101864D01*
X0384527Y0101284D01*
X0385034Y0100777D01*
X0385614Y0100356D01*
X0386252Y0100031D01*
X0386934Y0099809D01*
X0387616Y0099701D01*
X0387616Y0098799D02*
X0386934Y0098691D01*
X0386252Y0098469D01*
X0385614Y0098144D01*
X0385034Y0097723D01*
X0384527Y0097216D01*
X0384106Y0096636D01*
X0383781Y0095998D01*
X0383559Y0095316D01*
X0383451Y0094634D01*
X0387616Y0094634D01*
X0387616Y0098799D01*
X0387616Y0097734D02*
X0388384Y0097734D01*
X0388384Y0096535D02*
X0387616Y0096535D01*
X0387616Y0095337D02*
X0388384Y0095337D01*
X0387616Y0094138D02*
X0203384Y0094138D01*
X0203384Y0093866D02*
X0203384Y0094634D01*
X0207549Y0094634D01*
X0207441Y0095316D01*
X0207219Y0095998D01*
X0206894Y0096636D01*
X0206473Y0097216D01*
X0205966Y0097723D01*
X0205386Y0098144D01*
X0204748Y0098469D01*
X0204066Y0098691D01*
X0203384Y0098799D01*
X0203384Y0094634D01*
X0202616Y0094634D01*
X0202616Y0093866D01*
X0203384Y0093866D01*
X0203384Y0089701D01*
X0204066Y0089809D01*
X0204748Y0090031D01*
X0205386Y0090356D01*
X0205966Y0090777D01*
X0206473Y0091284D01*
X0206894Y0091864D01*
X0207219Y0092502D01*
X0207441Y0093184D01*
X0207549Y0093866D01*
X0203384Y0093866D01*
X0202616Y0093866D02*
X0202616Y0089701D01*
X0201934Y0089809D01*
X0201252Y0090031D01*
X0200614Y0090356D01*
X0200034Y0090777D01*
X0199527Y0091284D01*
X0199106Y0091864D01*
X0198781Y0092502D01*
X0198559Y0093184D01*
X0198451Y0093866D01*
X0202616Y0093866D01*
X0202616Y0094138D02*
X0193384Y0094138D01*
X0193384Y0093866D02*
X0193384Y0094634D01*
X0197549Y0094634D01*
X0197441Y0095316D01*
X0197219Y0095998D01*
X0196894Y0096636D01*
X0196473Y0097216D01*
X0195966Y0097723D01*
X0195386Y0098144D01*
X0194748Y0098469D01*
X0194066Y0098691D01*
X0193384Y0098799D01*
X0193384Y0094634D01*
X0192616Y0094634D01*
X0192616Y0093866D01*
X0193384Y0093866D01*
X0193384Y0089701D01*
X0194066Y0089809D01*
X0194748Y0090031D01*
X0195386Y0090356D01*
X0195966Y0090777D01*
X0196473Y0091284D01*
X0196894Y0091864D01*
X0197219Y0092502D01*
X0197441Y0093184D01*
X0197549Y0093866D01*
X0193384Y0093866D01*
X0192616Y0093866D02*
X0192616Y0089701D01*
X0191934Y0089809D01*
X0191252Y0090031D01*
X0190614Y0090356D01*
X0190034Y0090777D01*
X0189527Y0091284D01*
X0189106Y0091864D01*
X0188781Y0092502D01*
X0188559Y0093184D01*
X0188451Y0093866D01*
X0192616Y0093866D01*
X0192616Y0094138D02*
X0095209Y0094138D01*
X0095386Y0094315D02*
X0096712Y0097517D01*
X0096712Y0100983D01*
X0095386Y0104185D01*
X0092935Y0106636D01*
X0089733Y0107962D01*
X0086267Y0107962D01*
X0083065Y0106636D01*
X0080614Y0104185D01*
X0079288Y0100983D01*
X0079288Y0097517D01*
X0080614Y0094315D01*
X0083065Y0091864D01*
X0086267Y0090538D01*
X0089733Y0090538D01*
X0092935Y0091864D01*
X0095386Y0094315D01*
X0095809Y0095337D02*
X0188566Y0095337D01*
X0188559Y0095316D02*
X0188451Y0094634D01*
X0192616Y0094634D01*
X0192616Y0098799D01*
X0191934Y0098691D01*
X0191252Y0098469D01*
X0190614Y0098144D01*
X0190034Y0097723D01*
X0189527Y0097216D01*
X0189106Y0096636D01*
X0188781Y0095998D01*
X0188559Y0095316D01*
X0189055Y0096535D02*
X0096305Y0096535D01*
X0096712Y0097734D02*
X0190050Y0097734D01*
X0192616Y0097734D02*
X0193384Y0097734D01*
X0193384Y0096535D02*
X0192616Y0096535D01*
X0192616Y0095337D02*
X0193384Y0095337D01*
X0193384Y0092940D02*
X0192616Y0092940D01*
X0192616Y0091741D02*
X0193384Y0091741D01*
X0193384Y0090543D02*
X0192616Y0090543D01*
X0190357Y0090543D02*
X0089744Y0090543D01*
X0092638Y0091741D02*
X0189195Y0091741D01*
X0188639Y0092940D02*
X0094010Y0092940D01*
X0086256Y0090543D02*
X0060710Y0090543D01*
X0060935Y0090603D02*
X0062039Y0091060D01*
X0063073Y0091658D01*
X0064021Y0092385D01*
X0064865Y0093229D01*
X0065592Y0094177D01*
X0066190Y0095211D01*
X0066647Y0096315D01*
X0066956Y0097469D01*
X0067111Y0098650D01*
X0058600Y0098650D01*
X0058600Y0099850D01*
X0067111Y0099850D01*
X0066956Y0101031D01*
X0066647Y0102185D01*
X0066190Y0103289D01*
X0065592Y0104323D01*
X0064865Y0105271D01*
X0064021Y0106115D01*
X0063073Y0106842D01*
X0062039Y0107440D01*
X0060935Y0107897D01*
X0059781Y0108206D01*
X0058600Y0108361D01*
X0058600Y0099850D01*
X0057400Y0099850D01*
X0057400Y0108361D01*
X0056219Y0108206D01*
X0055065Y0107897D01*
X0053961Y0107440D01*
X0052927Y0106842D01*
X0051979Y0106115D01*
X0051135Y0105271D01*
X0050408Y0104323D01*
X0049810Y0103289D01*
X0049353Y0102185D01*
X0049044Y0101031D01*
X0048889Y0099850D01*
X0057400Y0099850D01*
X0057400Y0098650D01*
X0058600Y0098650D01*
X0058600Y0090139D01*
X0059781Y0090294D01*
X0060935Y0090603D01*
X0058600Y0090543D02*
X0057400Y0090543D01*
X0057400Y0090139D02*
X0057400Y0098650D01*
X0048889Y0098650D01*
X0049044Y0097469D01*
X0049353Y0096315D01*
X0049810Y0095211D01*
X0050408Y0094177D01*
X0051135Y0093229D01*
X0051979Y0092385D01*
X0052927Y0091658D01*
X0053961Y0091060D01*
X0055065Y0090603D01*
X0056219Y0090294D01*
X0057400Y0090139D01*
X0057400Y0091741D02*
X0058600Y0091741D01*
X0058600Y0092940D02*
X0057400Y0092940D01*
X0057400Y0094138D02*
X0058600Y0094138D01*
X0058600Y0095337D02*
X0057400Y0095337D01*
X0057400Y0096535D02*
X0058600Y0096535D01*
X0058600Y0097734D02*
X0057400Y0097734D01*
X0057400Y0098932D02*
X0033000Y0098932D01*
X0033000Y0097734D02*
X0049009Y0097734D01*
X0049294Y0096535D02*
X0033000Y0096535D01*
X0033000Y0095337D02*
X0049758Y0095337D01*
X0050437Y0094138D02*
X0033000Y0094138D01*
X0033000Y0092940D02*
X0051424Y0092940D01*
X0052818Y0091741D02*
X0033000Y0091741D01*
X0033000Y0090543D02*
X0055290Y0090543D01*
X0063182Y0091741D02*
X0083362Y0091741D01*
X0081990Y0092940D02*
X0064576Y0092940D01*
X0065563Y0094138D02*
X0080791Y0094138D01*
X0080191Y0095337D02*
X0066242Y0095337D01*
X0066706Y0096535D02*
X0079695Y0096535D01*
X0079288Y0097734D02*
X0066991Y0097734D01*
X0067074Y0100131D02*
X0079288Y0100131D01*
X0079288Y0098932D02*
X0058600Y0098932D01*
X0058600Y0100131D02*
X0057400Y0100131D01*
X0057400Y0101329D02*
X0058600Y0101329D01*
X0058600Y0102528D02*
X0057400Y0102528D01*
X0057400Y0103726D02*
X0058600Y0103726D01*
X0058600Y0104925D02*
X0057400Y0104925D01*
X0057400Y0106123D02*
X0058600Y0106123D01*
X0058600Y0107322D02*
X0057400Y0107322D01*
X0053757Y0107322D02*
X0033000Y0107322D01*
X0033000Y0108520D02*
X0191410Y0108520D01*
X0191252Y0108469D02*
X0190614Y0108144D01*
X0190034Y0107723D01*
X0189527Y0107216D01*
X0189106Y0106636D01*
X0188781Y0105998D01*
X0188559Y0105316D01*
X0188451Y0104634D01*
X0192616Y0104634D01*
X0192616Y0103866D01*
X0193384Y0103866D01*
X0193384Y0099701D01*
X0194066Y0099809D01*
X0194748Y0100031D01*
X0195386Y0100356D01*
X0195966Y0100777D01*
X0196473Y0101284D01*
X0196894Y0101864D01*
X0197219Y0102502D01*
X0197441Y0103184D01*
X0197549Y0103866D01*
X0193384Y0103866D01*
X0193384Y0104634D01*
X0197549Y0104634D01*
X0197441Y0105316D01*
X0197219Y0105998D01*
X0196894Y0106636D01*
X0196473Y0107216D01*
X0195966Y0107723D01*
X0195386Y0108144D01*
X0194748Y0108469D01*
X0194066Y0108691D01*
X0193384Y0108799D01*
X0193384Y0104634D01*
X0192616Y0104634D01*
X0192616Y0108799D01*
X0191934Y0108691D01*
X0191252Y0108469D01*
X0192616Y0108520D02*
X0193384Y0108520D01*
X0193384Y0107322D02*
X0192616Y0107322D01*
X0192616Y0106123D02*
X0193384Y0106123D01*
X0193384Y0104925D02*
X0192616Y0104925D01*
X0192616Y0103866D02*
X0188451Y0103866D01*
X0188559Y0103184D01*
X0188781Y0102502D01*
X0189106Y0101864D01*
X0189527Y0101284D01*
X0190034Y0100777D01*
X0190614Y0100356D01*
X0191252Y0100031D01*
X0191934Y0099809D01*
X0192616Y0099701D01*
X0192616Y0103866D01*
X0192616Y0103726D02*
X0193384Y0103726D01*
X0193384Y0102528D02*
X0192616Y0102528D01*
X0192616Y0101329D02*
X0193384Y0101329D01*
X0193384Y0100131D02*
X0192616Y0100131D01*
X0191056Y0100131D02*
X0096712Y0100131D01*
X0096712Y0098932D02*
X0403000Y0098932D01*
X0403000Y0097734D02*
X0400950Y0097734D01*
X0401945Y0096535D02*
X0403000Y0096535D01*
X0403000Y0095337D02*
X0402434Y0095337D01*
X0403000Y0100131D02*
X0399944Y0100131D01*
X0398384Y0101329D02*
X0397616Y0101329D01*
X0397616Y0102528D02*
X0398384Y0102528D01*
X0398384Y0103726D02*
X0397616Y0103726D01*
X0397616Y0104634D02*
X0393451Y0104634D01*
X0393559Y0105316D01*
X0393781Y0105998D01*
X0394106Y0106636D01*
X0394527Y0107216D01*
X0395034Y0107723D01*
X0395614Y0108144D01*
X0396252Y0108469D01*
X0396934Y0108691D01*
X0397616Y0108799D01*
X0397616Y0104634D01*
X0397616Y0104925D02*
X0398384Y0104925D01*
X0398384Y0106123D02*
X0397616Y0106123D01*
X0397616Y0107322D02*
X0398384Y0107322D01*
X0398384Y0108520D02*
X0397616Y0108520D01*
X0397616Y0109719D02*
X0398384Y0109719D01*
X0398496Y0109719D02*
X0403000Y0109719D01*
X0403000Y0108520D02*
X0399590Y0108520D01*
X0401367Y0107322D02*
X0403000Y0107322D01*
X0403000Y0106123D02*
X0402155Y0106123D01*
X0402503Y0104925D02*
X0403000Y0104925D01*
X0403000Y0103726D02*
X0402527Y0103726D01*
X0402227Y0102528D02*
X0403000Y0102528D01*
X0403000Y0101329D02*
X0401506Y0101329D01*
X0394494Y0101329D02*
X0391506Y0101329D01*
X0392227Y0102528D02*
X0393772Y0102528D01*
X0393473Y0103726D02*
X0392527Y0103726D01*
X0392503Y0104925D02*
X0393497Y0104925D01*
X0393845Y0106123D02*
X0392155Y0106123D01*
X0391367Y0107322D02*
X0394633Y0107322D01*
X0396410Y0108520D02*
X0389590Y0108520D01*
X0388384Y0108520D02*
X0387616Y0108520D01*
X0387616Y0108799D02*
X0386934Y0108691D01*
X0386252Y0108469D01*
X0385614Y0108144D01*
X0385034Y0107723D01*
X0384527Y0107216D01*
X0384106Y0106636D01*
X0383781Y0105998D01*
X0383559Y0105316D01*
X0383451Y0104634D01*
X0387616Y0104634D01*
X0387616Y0108799D01*
X0387616Y0109719D02*
X0388384Y0109719D01*
X0388496Y0109719D02*
X0397504Y0109719D01*
X0397616Y0110918D02*
X0398384Y0110918D01*
X0398384Y0112116D02*
X0397616Y0112116D01*
X0397616Y0113315D02*
X0398384Y0113315D01*
X0398384Y0115712D02*
X0397616Y0115712D01*
X0397616Y0116910D02*
X0398384Y0116910D01*
X0398384Y0118109D02*
X0397616Y0118109D01*
X0397616Y0119701D02*
X0397616Y0123866D01*
X0393451Y0123866D01*
X0393559Y0123184D01*
X0393781Y0122502D01*
X0394106Y0121864D01*
X0394527Y0121284D01*
X0395034Y0120777D01*
X0395614Y0120356D01*
X0396252Y0120031D01*
X0396934Y0119809D01*
X0397616Y0119701D01*
X0397616Y0120506D02*
X0398384Y0120506D01*
X0397616Y0120506D01*
X0397616Y0121704D02*
X0398384Y0121704D01*
X0397616Y0121704D01*
X0397616Y0122903D02*
X0398384Y0122903D01*
X0397616Y0122903D01*
X0397616Y0124101D02*
X0388384Y0124101D01*
X0397616Y0124101D01*
X0397616Y0125300D02*
X0398384Y0125300D01*
X0397616Y0125300D01*
X0397616Y0126498D02*
X0398384Y0126498D01*
X0397616Y0126498D01*
X0397616Y0127697D02*
X0398384Y0127697D01*
X0397616Y0127697D01*
X0395008Y0127697D02*
X0390992Y0127697D01*
X0395008Y0127697D01*
X0394036Y0126498D02*
X0391964Y0126498D01*
X0394036Y0126498D01*
X0393557Y0125300D02*
X0392443Y0125300D01*
X0393557Y0125300D01*
X0393651Y0122903D02*
X0392349Y0122903D01*
X0393651Y0122903D01*
X0394222Y0121704D02*
X0391778Y0121704D01*
X0394222Y0121704D01*
X0395408Y0120506D02*
X0390592Y0120506D01*
X0395408Y0120506D01*
X0395565Y0118109D02*
X0390435Y0118109D01*
X0391695Y0116910D02*
X0394305Y0116910D01*
X0393688Y0115712D02*
X0392312Y0115712D01*
X0392461Y0113315D02*
X0393539Y0113315D01*
X0393978Y0112116D02*
X0392022Y0112116D01*
X0391106Y0110918D02*
X0394894Y0110918D01*
X0401106Y0110918D02*
X0403000Y0110918D01*
X0403000Y0112116D02*
X0402022Y0112116D01*
X0402461Y0113315D02*
X0403000Y0113315D01*
X0388384Y0113315D02*
X0387616Y0113315D01*
X0387616Y0112116D02*
X0388384Y0112116D01*
X0388384Y0110918D02*
X0387616Y0110918D01*
X0387504Y0109719D02*
X0203496Y0109719D01*
X0203384Y0109719D02*
X0202616Y0109719D01*
X0202504Y0109719D02*
X0193496Y0109719D01*
X0193384Y0109719D02*
X0192616Y0109719D01*
X0192504Y0109719D02*
X0033000Y0109719D01*
X0033000Y0106123D02*
X0051990Y0106123D01*
X0050869Y0104925D02*
X0033000Y0104925D01*
X0033000Y0103726D02*
X0050063Y0103726D01*
X0049495Y0102528D02*
X0033000Y0102528D01*
X0033000Y0101329D02*
X0049124Y0101329D01*
X0048926Y0100131D02*
X0033000Y0100131D01*
X0024000Y0110250D02*
X0024000Y0310250D01*
X0029000Y0315250D01*
X0450000Y0315250D01*
X0450000Y0315150D01*
X0457900Y0307250D01*
X0467000Y0307250D01*
X0465000Y0312250D02*
X0468000Y0315250D01*
X0471000Y0315250D01*
X0465000Y0312250D02*
X0459000Y0312250D01*
X0454000Y0317250D01*
X0028000Y0317250D01*
X0022000Y0311250D01*
X0022000Y0133250D01*
X0013000Y0124250D01*
X0033000Y0122903D02*
X0033987Y0122903D01*
X0034249Y0121704D02*
X0033000Y0121704D01*
X0033000Y0120506D02*
X0034688Y0120506D01*
X0035332Y0119307D02*
X0033000Y0119307D01*
X0033000Y0118109D02*
X0036255Y0118109D01*
X0037598Y0116910D02*
X0033000Y0116910D01*
X0033000Y0115712D02*
X0039803Y0115712D01*
X0024000Y0110250D02*
X0013000Y0099250D01*
X0026000Y0087250D02*
X0026000Y0309250D01*
X0030000Y0313250D01*
X0447000Y0313250D01*
X0458000Y0302250D01*
X0472000Y0302250D01*
X0474000Y0304250D01*
X0462300Y0316650D02*
X0459700Y0319250D01*
X0027000Y0319250D01*
X0020000Y0312250D01*
X0020000Y0156250D01*
X0013000Y0149250D01*
X0033000Y0151667D02*
X0049214Y0151667D01*
X0049635Y0152865D02*
X0033000Y0152865D01*
X0033000Y0154064D02*
X0050258Y0154064D01*
X0051128Y0155262D02*
X0033000Y0155262D01*
X0033000Y0156461D02*
X0052430Y0156461D01*
X0054492Y0157659D02*
X0033000Y0157659D01*
X0033000Y0158858D02*
X0073000Y0158858D01*
X0073000Y0160056D02*
X0033000Y0160056D01*
X0033000Y0161255D02*
X0073000Y0161255D01*
X0073000Y0162453D02*
X0033000Y0162453D01*
X0033000Y0163652D02*
X0073000Y0163652D01*
X0073000Y0164851D02*
X0033000Y0164851D01*
X0033000Y0166049D02*
X0038989Y0166049D01*
X0038961Y0166060D02*
X0040065Y0165603D01*
X0041219Y0165294D01*
X0042400Y0165139D01*
X0042400Y0173650D01*
X0043600Y0173650D01*
X0043600Y0174850D01*
X0052111Y0174850D01*
X0051956Y0176031D01*
X0051647Y0177185D01*
X0051190Y0178289D01*
X0050592Y0179323D01*
X0049865Y0180271D01*
X0049021Y0181115D01*
X0048073Y0181842D01*
X0047039Y0182440D01*
X0045935Y0182897D01*
X0044781Y0183206D01*
X0043600Y0183361D01*
X0043600Y0174850D01*
X0042400Y0174850D01*
X0042400Y0183361D01*
X0041219Y0183206D01*
X0040065Y0182897D01*
X0038961Y0182440D01*
X0037927Y0181842D01*
X0036979Y0181115D01*
X0036135Y0180271D01*
X0035408Y0179323D01*
X0034810Y0178289D01*
X0034353Y0177185D01*
X0034044Y0176031D01*
X0033889Y0174850D01*
X0042400Y0174850D01*
X0042400Y0173650D01*
X0033889Y0173650D01*
X0034044Y0172469D01*
X0034353Y0171315D01*
X0034810Y0170211D01*
X0035408Y0169177D01*
X0036135Y0168229D01*
X0036979Y0167385D01*
X0037927Y0166658D01*
X0038961Y0166060D01*
X0037158Y0167248D02*
X0033000Y0167248D01*
X0033000Y0168446D02*
X0035968Y0168446D01*
X0035138Y0169645D02*
X0033000Y0169645D01*
X0033000Y0170843D02*
X0034549Y0170843D01*
X0034158Y0172042D02*
X0033000Y0172042D01*
X0033000Y0173240D02*
X0033943Y0173240D01*
X0033000Y0174439D02*
X0042400Y0174439D01*
X0042400Y0175637D02*
X0043600Y0175637D01*
X0043600Y0174439D02*
X0064288Y0174439D01*
X0064288Y0175637D02*
X0052008Y0175637D01*
X0051740Y0176836D02*
X0064641Y0176836D01*
X0065138Y0178034D02*
X0051295Y0178034D01*
X0050645Y0179233D02*
X0065662Y0179233D01*
X0066861Y0180431D02*
X0049705Y0180431D01*
X0048350Y0181630D02*
X0068059Y0181630D01*
X0070945Y0182828D02*
X0046101Y0182828D01*
X0043600Y0182828D02*
X0042400Y0182828D01*
X0042400Y0181630D02*
X0043600Y0181630D01*
X0043600Y0180431D02*
X0042400Y0180431D01*
X0042400Y0179233D02*
X0043600Y0179233D01*
X0043600Y0178034D02*
X0042400Y0178034D01*
X0042400Y0176836D02*
X0043600Y0176836D01*
X0043600Y0173650D02*
X0052111Y0173650D01*
X0051956Y0172469D01*
X0051647Y0171315D01*
X0051190Y0170211D01*
X0050592Y0169177D01*
X0049865Y0168229D01*
X0049021Y0167385D01*
X0048073Y0166658D01*
X0047039Y0166060D01*
X0045935Y0165603D01*
X0044781Y0165294D01*
X0043600Y0165139D01*
X0043600Y0173650D01*
X0043600Y0173240D02*
X0042400Y0173240D01*
X0042400Y0172042D02*
X0043600Y0172042D01*
X0043600Y0170843D02*
X0042400Y0170843D01*
X0042400Y0169645D02*
X0043600Y0169645D01*
X0043600Y0168446D02*
X0042400Y0168446D01*
X0042400Y0167248D02*
X0043600Y0167248D01*
X0043600Y0166049D02*
X0042400Y0166049D01*
X0047011Y0166049D02*
X0070034Y0166049D01*
X0067682Y0167248D02*
X0048842Y0167248D01*
X0050032Y0168446D02*
X0066484Y0168446D01*
X0065478Y0169645D02*
X0050862Y0169645D01*
X0051451Y0170843D02*
X0064982Y0170843D01*
X0064485Y0172042D02*
X0051841Y0172042D01*
X0052057Y0173240D02*
X0064288Y0173240D01*
X0073000Y0184027D02*
X0033000Y0184027D01*
X0033000Y0185225D02*
X0073000Y0185225D01*
X0073000Y0186424D02*
X0033000Y0186424D01*
X0033000Y0187622D02*
X0073000Y0187622D01*
X0073000Y0188821D02*
X0033000Y0188821D01*
X0033000Y0190019D02*
X0073000Y0190019D01*
X0073000Y0191218D02*
X0062311Y0191218D01*
X0062039Y0191060D02*
X0063073Y0191658D01*
X0064021Y0192385D01*
X0064865Y0193229D01*
X0065592Y0194177D01*
X0066190Y0195211D01*
X0066647Y0196315D01*
X0066956Y0197469D01*
X0067111Y0198650D01*
X0058600Y0198650D01*
X0058600Y0199850D01*
X0067111Y0199850D01*
X0066956Y0201031D01*
X0066647Y0202185D01*
X0066190Y0203289D01*
X0065592Y0204323D01*
X0064865Y0205271D01*
X0064021Y0206115D01*
X0063073Y0206842D01*
X0062039Y0207440D01*
X0060935Y0207897D01*
X0059781Y0208206D01*
X0058600Y0208361D01*
X0058600Y0199850D01*
X0057400Y0199850D01*
X0057400Y0208361D01*
X0056219Y0208206D01*
X0055065Y0207897D01*
X0053961Y0207440D01*
X0052927Y0206842D01*
X0051979Y0206115D01*
X0051135Y0205271D01*
X0050408Y0204323D01*
X0049810Y0203289D01*
X0049353Y0202185D01*
X0049044Y0201031D01*
X0048889Y0199850D01*
X0057400Y0199850D01*
X0057400Y0198650D01*
X0058600Y0198650D01*
X0058600Y0190139D01*
X0059781Y0190294D01*
X0060935Y0190603D01*
X0062039Y0191060D01*
X0064052Y0192416D02*
X0073000Y0192416D01*
X0073000Y0193615D02*
X0065161Y0193615D01*
X0065960Y0194813D02*
X0073000Y0194813D01*
X0073000Y0196012D02*
X0066521Y0196012D01*
X0066887Y0197210D02*
X0073000Y0197210D01*
X0073000Y0198409D02*
X0067080Y0198409D01*
X0066986Y0200806D02*
X0073000Y0200806D01*
X0073000Y0202004D02*
X0066695Y0202004D01*
X0066225Y0203203D02*
X0073000Y0203203D01*
X0073000Y0204401D02*
X0065532Y0204401D01*
X0064536Y0205600D02*
X0073000Y0205600D01*
X0073000Y0206798D02*
X0063130Y0206798D01*
X0060561Y0207997D02*
X0073000Y0207997D01*
X0073000Y0209195D02*
X0033000Y0209195D01*
X0033000Y0207997D02*
X0055439Y0207997D01*
X0057400Y0207997D02*
X0058600Y0207997D01*
X0058600Y0206798D02*
X0057400Y0206798D01*
X0057400Y0205600D02*
X0058600Y0205600D01*
X0058600Y0204401D02*
X0057400Y0204401D01*
X0057400Y0203203D02*
X0058600Y0203203D01*
X0058600Y0202004D02*
X0057400Y0202004D01*
X0057400Y0200806D02*
X0058600Y0200806D01*
X0058600Y0199607D02*
X0073000Y0199607D01*
X0058600Y0198409D02*
X0057400Y0198409D01*
X0057400Y0198650D02*
X0057400Y0190139D01*
X0056219Y0190294D01*
X0055065Y0190603D01*
X0053961Y0191060D01*
X0052927Y0191658D01*
X0051979Y0192385D01*
X0051135Y0193229D01*
X0050408Y0194177D01*
X0049810Y0195211D01*
X0049353Y0196315D01*
X0049044Y0197469D01*
X0048889Y0198650D01*
X0057400Y0198650D01*
X0057400Y0199607D02*
X0033000Y0199607D01*
X0033000Y0198409D02*
X0048920Y0198409D01*
X0049113Y0197210D02*
X0033000Y0197210D01*
X0033000Y0196012D02*
X0049479Y0196012D01*
X0050040Y0194813D02*
X0033000Y0194813D01*
X0033000Y0193615D02*
X0050839Y0193615D01*
X0051948Y0192416D02*
X0033000Y0192416D01*
X0033000Y0191218D02*
X0053689Y0191218D01*
X0057400Y0191218D02*
X0058600Y0191218D01*
X0058600Y0192416D02*
X0057400Y0192416D01*
X0057400Y0193615D02*
X0058600Y0193615D01*
X0058600Y0194813D02*
X0057400Y0194813D01*
X0057400Y0196012D02*
X0058600Y0196012D01*
X0058600Y0197210D02*
X0057400Y0197210D01*
X0049014Y0200806D02*
X0033000Y0200806D01*
X0033000Y0202004D02*
X0049305Y0202004D01*
X0049775Y0203203D02*
X0033000Y0203203D01*
X0033000Y0204401D02*
X0050468Y0204401D01*
X0051464Y0205600D02*
X0033000Y0205600D01*
X0033000Y0206798D02*
X0052870Y0206798D01*
X0047604Y0216387D02*
X0069219Y0216387D01*
X0067345Y0217585D02*
X0049221Y0217585D01*
X0049021Y0217385D02*
X0049865Y0218229D01*
X0050592Y0219177D01*
X0051190Y0220211D01*
X0051647Y0221315D01*
X0051956Y0222469D01*
X0052111Y0223650D01*
X0043600Y0223650D01*
X0043600Y0224850D01*
X0052111Y0224850D01*
X0051956Y0226031D01*
X0051647Y0227185D01*
X0051190Y0228289D01*
X0050592Y0229323D01*
X0049865Y0230271D01*
X0049021Y0231115D01*
X0048073Y0231842D01*
X0047039Y0232440D01*
X0045935Y0232897D01*
X0044781Y0233206D01*
X0043600Y0233361D01*
X0043600Y0224850D01*
X0042400Y0224850D01*
X0042400Y0233361D01*
X0041219Y0233206D01*
X0040065Y0232897D01*
X0038961Y0232440D01*
X0037927Y0231842D01*
X0036979Y0231115D01*
X0036135Y0230271D01*
X0035408Y0229323D01*
X0034810Y0228289D01*
X0034353Y0227185D01*
X0034044Y0226031D01*
X0033889Y0224850D01*
X0042400Y0224850D01*
X0042400Y0223650D01*
X0043600Y0223650D01*
X0043600Y0215139D01*
X0044781Y0215294D01*
X0045935Y0215603D01*
X0047039Y0216060D01*
X0048073Y0216658D01*
X0049021Y0217385D01*
X0050291Y0218784D02*
X0066146Y0218784D01*
X0065338Y0219982D02*
X0051057Y0219982D01*
X0051591Y0221181D02*
X0064842Y0221181D01*
X0064345Y0222379D02*
X0051932Y0222379D01*
X0052102Y0223578D02*
X0064288Y0223578D01*
X0064288Y0224776D02*
X0043600Y0224776D01*
X0043600Y0223578D02*
X0042400Y0223578D01*
X0042400Y0223650D02*
X0042400Y0215139D01*
X0041219Y0215294D01*
X0040065Y0215603D01*
X0038961Y0216060D01*
X0037927Y0216658D01*
X0036979Y0217385D01*
X0036135Y0218229D01*
X0035408Y0219177D01*
X0034810Y0220211D01*
X0034353Y0221315D01*
X0034044Y0222469D01*
X0033889Y0223650D01*
X0042400Y0223650D01*
X0042400Y0224776D02*
X0033000Y0224776D01*
X0033000Y0223578D02*
X0033898Y0223578D01*
X0034068Y0222379D02*
X0033000Y0222379D01*
X0033000Y0221181D02*
X0034409Y0221181D01*
X0034943Y0219982D02*
X0033000Y0219982D01*
X0033000Y0218784D02*
X0035709Y0218784D01*
X0036779Y0217585D02*
X0033000Y0217585D01*
X0033000Y0216387D02*
X0038396Y0216387D01*
X0042024Y0215188D02*
X0033000Y0215188D01*
X0033000Y0213989D02*
X0073000Y0213989D01*
X0073000Y0212791D02*
X0033000Y0212791D01*
X0033000Y0211592D02*
X0073000Y0211592D01*
X0073000Y0210394D02*
X0033000Y0210394D01*
X0042400Y0215188D02*
X0043600Y0215188D01*
X0043976Y0215188D02*
X0073000Y0215188D01*
X0064288Y0225975D02*
X0051963Y0225975D01*
X0051650Y0227173D02*
X0064781Y0227173D01*
X0065278Y0228372D02*
X0051142Y0228372D01*
X0050403Y0229570D02*
X0066000Y0229570D01*
X0067198Y0230769D02*
X0049367Y0230769D01*
X0047857Y0231967D02*
X0068866Y0231967D01*
X0073000Y0233166D02*
X0044932Y0233166D01*
X0043600Y0233166D02*
X0042400Y0233166D01*
X0042400Y0231967D02*
X0043600Y0231967D01*
X0043600Y0230769D02*
X0042400Y0230769D01*
X0042400Y0229570D02*
X0043600Y0229570D01*
X0043600Y0228372D02*
X0042400Y0228372D01*
X0042400Y0227173D02*
X0043600Y0227173D01*
X0043600Y0225975D02*
X0042400Y0225975D01*
X0042400Y0222379D02*
X0043600Y0222379D01*
X0043600Y0221181D02*
X0042400Y0221181D01*
X0042400Y0219982D02*
X0043600Y0219982D01*
X0043600Y0218784D02*
X0042400Y0218784D01*
X0042400Y0217585D02*
X0043600Y0217585D01*
X0043600Y0216387D02*
X0042400Y0216387D01*
X0034037Y0225975D02*
X0033000Y0225975D01*
X0033000Y0227173D02*
X0034350Y0227173D01*
X0034858Y0228372D02*
X0033000Y0228372D01*
X0033000Y0229570D02*
X0035597Y0229570D01*
X0036633Y0230769D02*
X0033000Y0230769D01*
X0033000Y0231967D02*
X0038143Y0231967D01*
X0041068Y0233166D02*
X0033000Y0233166D01*
X0033000Y0234364D02*
X0073000Y0234364D01*
X0073000Y0235563D02*
X0033000Y0235563D01*
X0033000Y0236761D02*
X0073000Y0236761D01*
X0073000Y0237960D02*
X0033000Y0237960D01*
X0033000Y0239158D02*
X0073000Y0239158D01*
X0073000Y0240357D02*
X0060015Y0240357D01*
X0059781Y0240294D02*
X0060935Y0240603D01*
X0062039Y0241060D01*
X0063073Y0241658D01*
X0064021Y0242385D01*
X0064865Y0243229D01*
X0065592Y0244177D01*
X0066190Y0245211D01*
X0066647Y0246315D01*
X0066956Y0247469D01*
X0067111Y0248650D01*
X0058600Y0248650D01*
X0058600Y0249850D01*
X0067111Y0249850D01*
X0066956Y0251031D01*
X0066647Y0252185D01*
X0066190Y0253289D01*
X0065592Y0254323D01*
X0064865Y0255271D01*
X0064021Y0256115D01*
X0063073Y0256842D01*
X0062039Y0257440D01*
X0060935Y0257897D01*
X0059781Y0258206D01*
X0058600Y0258361D01*
X0058600Y0249850D01*
X0057400Y0249850D01*
X0057400Y0258361D01*
X0056219Y0258206D01*
X0055065Y0257897D01*
X0053961Y0257440D01*
X0052927Y0256842D01*
X0051979Y0256115D01*
X0051135Y0255271D01*
X0050408Y0254323D01*
X0049810Y0253289D01*
X0049353Y0252185D01*
X0049044Y0251031D01*
X0048889Y0249850D01*
X0057400Y0249850D01*
X0057400Y0248650D01*
X0058600Y0248650D01*
X0058600Y0240139D01*
X0059781Y0240294D01*
X0058600Y0240357D02*
X0057400Y0240357D01*
X0057400Y0240139D02*
X0057400Y0248650D01*
X0048889Y0248650D01*
X0049044Y0247469D01*
X0049353Y0246315D01*
X0049810Y0245211D01*
X0050408Y0244177D01*
X0051135Y0243229D01*
X0051979Y0242385D01*
X0052927Y0241658D01*
X0053961Y0241060D01*
X0055065Y0240603D01*
X0056219Y0240294D01*
X0057400Y0240139D01*
X0057400Y0241555D02*
X0058600Y0241555D01*
X0058600Y0242754D02*
X0057400Y0242754D01*
X0057400Y0243952D02*
X0058600Y0243952D01*
X0058600Y0245151D02*
X0057400Y0245151D01*
X0057400Y0246349D02*
X0058600Y0246349D01*
X0058600Y0247548D02*
X0057400Y0247548D01*
X0057400Y0248746D02*
X0033000Y0248746D01*
X0033000Y0247548D02*
X0049034Y0247548D01*
X0049344Y0246349D02*
X0033000Y0246349D01*
X0033000Y0245151D02*
X0049845Y0245151D01*
X0050580Y0243952D02*
X0033000Y0243952D01*
X0033000Y0242754D02*
X0051610Y0242754D01*
X0053104Y0241555D02*
X0033000Y0241555D01*
X0033000Y0240357D02*
X0055985Y0240357D01*
X0062896Y0241555D02*
X0073000Y0241555D01*
X0073000Y0242754D02*
X0064390Y0242754D01*
X0065420Y0243952D02*
X0073000Y0243952D01*
X0073000Y0245151D02*
X0066155Y0245151D01*
X0066656Y0246349D02*
X0073000Y0246349D01*
X0073000Y0247548D02*
X0066966Y0247548D01*
X0067099Y0249945D02*
X0073000Y0249945D01*
X0073000Y0251143D02*
X0066926Y0251143D01*
X0066582Y0252342D02*
X0073000Y0252342D01*
X0073000Y0253540D02*
X0066044Y0253540D01*
X0065273Y0254739D02*
X0073000Y0254739D01*
X0073000Y0255937D02*
X0064199Y0255937D01*
X0062565Y0257136D02*
X0073000Y0257136D01*
X0073000Y0258334D02*
X0058805Y0258334D01*
X0058600Y0258334D02*
X0057400Y0258334D01*
X0057195Y0258334D02*
X0033000Y0258334D01*
X0033000Y0257136D02*
X0053435Y0257136D01*
X0051801Y0255937D02*
X0033000Y0255937D01*
X0033000Y0254739D02*
X0050727Y0254739D01*
X0049956Y0253540D02*
X0033000Y0253540D01*
X0033000Y0252342D02*
X0049418Y0252342D01*
X0049074Y0251143D02*
X0033000Y0251143D01*
X0033000Y0249945D02*
X0048901Y0249945D01*
X0057400Y0249945D02*
X0058600Y0249945D01*
X0058600Y0251143D02*
X0057400Y0251143D01*
X0057400Y0252342D02*
X0058600Y0252342D01*
X0058600Y0253540D02*
X0057400Y0253540D01*
X0057400Y0254739D02*
X0058600Y0254739D01*
X0058600Y0255937D02*
X0057400Y0255937D01*
X0057400Y0257136D02*
X0058600Y0257136D01*
X0068404Y0266724D02*
X0048160Y0266724D01*
X0048073Y0266658D02*
X0049021Y0267385D01*
X0049865Y0268229D01*
X0050592Y0269177D01*
X0051190Y0270211D01*
X0051647Y0271315D01*
X0051956Y0272469D01*
X0052111Y0273650D01*
X0043600Y0273650D01*
X0043600Y0274850D01*
X0052111Y0274850D01*
X0051956Y0276031D01*
X0051647Y0277185D01*
X0051190Y0278289D01*
X0050592Y0279323D01*
X0049865Y0280271D01*
X0049021Y0281115D01*
X0048073Y0281842D01*
X0047039Y0282440D01*
X0045935Y0282897D01*
X0044781Y0283206D01*
X0043600Y0283361D01*
X0043600Y0274850D01*
X0042400Y0274850D01*
X0042400Y0283361D01*
X0041219Y0283206D01*
X0040065Y0282897D01*
X0038961Y0282440D01*
X0037927Y0281842D01*
X0036979Y0281115D01*
X0036135Y0280271D01*
X0035408Y0279323D01*
X0034810Y0278289D01*
X0034353Y0277185D01*
X0034044Y0276031D01*
X0033889Y0274850D01*
X0042400Y0274850D01*
X0042400Y0273650D01*
X0043600Y0273650D01*
X0043600Y0265139D01*
X0044781Y0265294D01*
X0045935Y0265603D01*
X0047039Y0266060D01*
X0048073Y0266658D01*
X0049559Y0267922D02*
X0067007Y0267922D01*
X0065809Y0269121D02*
X0050550Y0269121D01*
X0051234Y0270320D02*
X0065198Y0270320D01*
X0064702Y0271518D02*
X0051701Y0271518D01*
X0051989Y0272717D02*
X0064288Y0272717D01*
X0064288Y0273915D02*
X0043600Y0273915D01*
X0043600Y0272717D02*
X0042400Y0272717D01*
X0042400Y0273650D02*
X0042400Y0265139D01*
X0041219Y0265294D01*
X0040065Y0265603D01*
X0038961Y0266060D01*
X0037927Y0266658D01*
X0036979Y0267385D01*
X0036135Y0268229D01*
X0035408Y0269177D01*
X0034810Y0270211D01*
X0034353Y0271315D01*
X0034044Y0272469D01*
X0033889Y0273650D01*
X0042400Y0273650D01*
X0042400Y0273915D02*
X0033000Y0273915D01*
X0033000Y0272717D02*
X0034011Y0272717D01*
X0034299Y0271518D02*
X0033000Y0271518D01*
X0033000Y0270320D02*
X0034766Y0270320D01*
X0035450Y0269121D02*
X0033000Y0269121D01*
X0033000Y0267922D02*
X0036441Y0267922D01*
X0037840Y0266724D02*
X0033000Y0266724D01*
X0033000Y0265525D02*
X0040355Y0265525D01*
X0042400Y0265525D02*
X0043600Y0265525D01*
X0043600Y0266724D02*
X0042400Y0266724D01*
X0042400Y0267922D02*
X0043600Y0267922D01*
X0043600Y0269121D02*
X0042400Y0269121D01*
X0042400Y0270320D02*
X0043600Y0270320D01*
X0043600Y0271518D02*
X0042400Y0271518D01*
X0042400Y0275114D02*
X0043600Y0275114D01*
X0043600Y0276312D02*
X0042400Y0276312D01*
X0042400Y0277511D02*
X0043600Y0277511D01*
X0043600Y0278709D02*
X0042400Y0278709D01*
X0042400Y0279908D02*
X0043600Y0279908D01*
X0043600Y0281106D02*
X0042400Y0281106D01*
X0042400Y0282305D02*
X0043600Y0282305D01*
X0047273Y0282305D02*
X0069681Y0282305D01*
X0067536Y0281106D02*
X0049030Y0281106D01*
X0050144Y0279908D02*
X0066337Y0279908D01*
X0065417Y0278709D02*
X0050947Y0278709D01*
X0051512Y0277511D02*
X0064921Y0277511D01*
X0064425Y0276312D02*
X0051881Y0276312D01*
X0052077Y0275114D02*
X0064288Y0275114D01*
X0073000Y0283503D02*
X0033000Y0283503D01*
X0033000Y0282305D02*
X0038727Y0282305D01*
X0036970Y0281106D02*
X0033000Y0281106D01*
X0033000Y0279908D02*
X0035856Y0279908D01*
X0035053Y0278709D02*
X0033000Y0278709D01*
X0033000Y0277511D02*
X0034488Y0277511D01*
X0034119Y0276312D02*
X0033000Y0276312D01*
X0033000Y0275114D02*
X0033923Y0275114D01*
X0033000Y0284702D02*
X0073000Y0284702D01*
X0073000Y0285900D02*
X0033000Y0285900D01*
X0033000Y0287099D02*
X0073000Y0287099D01*
X0073000Y0288297D02*
X0033000Y0288297D01*
X0033000Y0289496D02*
X0073000Y0289496D01*
X0073000Y0290694D02*
X0061155Y0290694D01*
X0060935Y0290603D02*
X0062039Y0291060D01*
X0063073Y0291658D01*
X0064021Y0292385D01*
X0064865Y0293229D01*
X0065592Y0294177D01*
X0066190Y0295211D01*
X0066647Y0296315D01*
X0066956Y0297469D01*
X0067111Y0298650D01*
X0058600Y0298650D01*
X0058600Y0290139D01*
X0059781Y0290294D01*
X0060935Y0290603D01*
X0058600Y0290694D02*
X0057400Y0290694D01*
X0057400Y0290139D02*
X0057400Y0298650D01*
X0048889Y0298650D01*
X0049044Y0297469D01*
X0049353Y0296315D01*
X0049810Y0295211D01*
X0050408Y0294177D01*
X0051135Y0293229D01*
X0051979Y0292385D01*
X0052927Y0291658D01*
X0053961Y0291060D01*
X0055065Y0290603D01*
X0056219Y0290294D01*
X0057400Y0290139D01*
X0057400Y0291893D02*
X0058600Y0291893D01*
X0058600Y0293091D02*
X0057400Y0293091D01*
X0057400Y0294290D02*
X0058600Y0294290D01*
X0058600Y0295488D02*
X0057400Y0295488D01*
X0057400Y0296687D02*
X0058600Y0296687D01*
X0058600Y0297885D02*
X0057400Y0297885D01*
X0057400Y0299084D02*
X0033000Y0299084D01*
X0033000Y0297885D02*
X0048989Y0297885D01*
X0049254Y0296687D02*
X0033000Y0296687D01*
X0033000Y0295488D02*
X0049696Y0295488D01*
X0050342Y0294290D02*
X0033000Y0294290D01*
X0033000Y0293091D02*
X0051273Y0293091D01*
X0052620Y0291893D02*
X0033000Y0291893D01*
X0033000Y0290694D02*
X0054845Y0290694D01*
X0063380Y0291893D02*
X0073000Y0291893D01*
X0073000Y0293091D02*
X0064727Y0293091D01*
X0065658Y0294290D02*
X0073000Y0294290D01*
X0073000Y0295488D02*
X0066304Y0295488D01*
X0066746Y0296687D02*
X0073000Y0296687D01*
X0073000Y0297885D02*
X0067011Y0297885D01*
X0073000Y0299084D02*
X0058600Y0299084D01*
X0009000Y0321250D02*
X0481000Y0321250D01*
X0484000Y0318250D01*
X0425095Y0267922D02*
X0586864Y0267922D01*
X0586857Y0266724D02*
X0425591Y0266724D01*
X0425653Y0265525D02*
X0586850Y0265525D01*
X0586843Y0264327D02*
X0425405Y0264327D01*
X0424751Y0263128D02*
X0586837Y0263128D01*
X0586830Y0261930D02*
X0423129Y0261930D01*
X0480500Y0236750D02*
X0490000Y0227250D01*
X0566000Y0227250D01*
X0570153Y0227173D02*
X0586627Y0227173D01*
X0586620Y0225975D02*
X0569967Y0225975D01*
X0569399Y0224776D02*
X0586614Y0224776D01*
X0586607Y0223578D02*
X0567986Y0223578D01*
X0564014Y0223578D02*
X0549888Y0223578D01*
X0549689Y0223777D02*
X0548593Y0224231D01*
X0547407Y0224231D01*
X0546311Y0223777D01*
X0545473Y0222939D01*
X0545019Y0221843D01*
X0545019Y0220657D01*
X0545473Y0219561D01*
X0546311Y0218723D01*
X0547407Y0218269D01*
X0548593Y0218269D01*
X0549689Y0218723D01*
X0550527Y0219561D01*
X0550981Y0220657D01*
X0550981Y0221843D01*
X0550527Y0222939D01*
X0549689Y0223777D01*
X0550759Y0222379D02*
X0586600Y0222379D01*
X0586593Y0221181D02*
X0550981Y0221181D01*
X0550702Y0219982D02*
X0586586Y0219982D01*
X0586579Y0218784D02*
X0549749Y0218784D01*
X0546251Y0218784D02*
X0531249Y0218784D01*
X0531909Y0219982D02*
X0545298Y0219982D01*
X0545019Y0221181D02*
X0531981Y0221181D01*
X0531552Y0222379D02*
X0545241Y0222379D01*
X0546112Y0223578D02*
X0529964Y0223578D01*
X0528036Y0223578D02*
X0482338Y0223578D01*
X0483616Y0224776D02*
X0562601Y0224776D01*
X0562466Y0229570D02*
X0490225Y0229570D01*
X0489027Y0230769D02*
X0563646Y0230769D01*
X0570030Y0228372D02*
X0586634Y0228372D01*
X0586641Y0229570D02*
X0572468Y0229570D01*
X0573892Y0230769D02*
X0586648Y0230769D01*
X0586655Y0231967D02*
X0574464Y0231967D01*
X0574653Y0233166D02*
X0586662Y0233166D01*
X0586669Y0234364D02*
X0574533Y0234364D01*
X0574037Y0235563D02*
X0586676Y0235563D01*
X0586683Y0236761D02*
X0572862Y0236761D01*
X0570500Y0233250D02*
X0493000Y0233250D01*
X0491500Y0234750D01*
X0490428Y0231967D02*
X0487828Y0231967D01*
X0488930Y0233166D02*
X0486630Y0233166D01*
X0485431Y0234364D02*
X0488519Y0234364D01*
X0488610Y0235563D02*
X0484233Y0235563D01*
X0483481Y0236761D02*
X0489295Y0236761D01*
X0493705Y0236761D02*
X0568138Y0236761D01*
X0566963Y0235563D02*
X0494390Y0235563D01*
X0483226Y0237960D02*
X0530074Y0237960D01*
X0529225Y0239158D02*
X0482308Y0239158D01*
X0483844Y0227173D02*
X0487531Y0227173D01*
X0488730Y0225975D02*
X0483981Y0225975D01*
X0533926Y0237960D02*
X0586690Y0237960D01*
X0586697Y0239158D02*
X0534774Y0239158D01*
X0534981Y0240357D02*
X0586704Y0240357D01*
X0586711Y0241555D02*
X0534686Y0241555D01*
X0551266Y0247548D02*
X0586746Y0247548D01*
X0586753Y0248746D02*
X0552604Y0248746D01*
X0552981Y0249945D02*
X0586760Y0249945D01*
X0586767Y0251143D02*
X0552857Y0251143D01*
X0552124Y0252342D02*
X0586774Y0252342D01*
X0586781Y0253540D02*
X0532933Y0253540D01*
X0532981Y0254739D02*
X0586788Y0254739D01*
X0586795Y0255937D02*
X0532528Y0255937D01*
X0532308Y0252342D02*
X0547876Y0252342D01*
X0419524Y0213989D02*
X0405000Y0213989D01*
X0405000Y0212791D02*
X0419019Y0212791D01*
X0419046Y0211592D02*
X0405000Y0211592D01*
X0405000Y0210394D02*
X0419640Y0210394D01*
X0386296Y0138483D02*
X0382641Y0138483D01*
X0382601Y0137285D02*
X0384596Y0137285D01*
X0206404Y0137285D01*
X0207174Y0136086D02*
X0383826Y0136086D01*
X0382561Y0136086D01*
X0382521Y0134888D02*
X0383492Y0134888D01*
X0207508Y0134888D01*
X0207521Y0133689D02*
X0383479Y0133689D01*
X0382481Y0133689D01*
X0382441Y0132491D02*
X0383787Y0132491D01*
X0207213Y0132491D01*
X0206479Y0131292D02*
X0384521Y0131292D01*
X0382401Y0131292D01*
X0382361Y0130094D02*
X0386129Y0130094D01*
X0204871Y0130094D01*
X0204704Y0138483D02*
X0386296Y0138483D01*
X0402508Y0134888D02*
X0403000Y0134888D01*
X0403000Y0125300D02*
X0402443Y0125300D01*
X0388384Y0122903D02*
X0387616Y0122903D01*
X0388384Y0122903D01*
X0388384Y0121704D02*
X0387616Y0121704D01*
X0388384Y0121704D01*
X0388384Y0120506D02*
X0387616Y0120506D01*
X0388384Y0120506D01*
X0388384Y0118109D02*
X0387616Y0118109D01*
X0387616Y0116910D02*
X0388384Y0116910D01*
X0388384Y0115712D02*
X0387616Y0115712D01*
X0385565Y0118109D02*
X0205435Y0118109D01*
X0206695Y0116910D02*
X0384305Y0116910D01*
X0383688Y0115712D02*
X0207312Y0115712D01*
X0207461Y0113315D02*
X0383539Y0113315D01*
X0383978Y0112116D02*
X0207022Y0112116D01*
X0206106Y0110918D02*
X0384894Y0110918D01*
X0386410Y0108520D02*
X0204590Y0108520D01*
X0204748Y0108469D02*
X0204066Y0108691D01*
X0203384Y0108799D01*
X0203384Y0104634D01*
X0207549Y0104634D01*
X0207441Y0105316D01*
X0207219Y0105998D01*
X0206894Y0106636D01*
X0206473Y0107216D01*
X0205966Y0107723D01*
X0205386Y0108144D01*
X0204748Y0108469D01*
X0203384Y0108520D02*
X0202616Y0108520D01*
X0202616Y0108799D02*
X0201934Y0108691D01*
X0201252Y0108469D01*
X0200614Y0108144D01*
X0200034Y0107723D01*
X0199527Y0107216D01*
X0199106Y0106636D01*
X0198781Y0105998D01*
X0198559Y0105316D01*
X0198451Y0104634D01*
X0202616Y0104634D01*
X0202616Y0103866D01*
X0203384Y0103866D01*
X0203384Y0099701D01*
X0204066Y0099809D01*
X0204748Y0100031D01*
X0205386Y0100356D01*
X0205966Y0100777D01*
X0206473Y0101284D01*
X0206894Y0101864D01*
X0207219Y0102502D01*
X0207441Y0103184D01*
X0207549Y0103866D01*
X0203384Y0103866D01*
X0203384Y0104634D01*
X0202616Y0104634D01*
X0202616Y0108799D01*
X0201410Y0108520D02*
X0194590Y0108520D01*
X0196367Y0107322D02*
X0199633Y0107322D01*
X0198845Y0106123D02*
X0197155Y0106123D01*
X0197503Y0104925D02*
X0198497Y0104925D01*
X0198451Y0103866D02*
X0198559Y0103184D01*
X0198781Y0102502D01*
X0199106Y0101864D01*
X0199527Y0101284D01*
X0200034Y0100777D01*
X0200614Y0100356D01*
X0201252Y0100031D01*
X0201934Y0099809D01*
X0202616Y0099701D01*
X0202616Y0103866D01*
X0198451Y0103866D01*
X0198473Y0103726D02*
X0197527Y0103726D01*
X0197227Y0102528D02*
X0198772Y0102528D01*
X0199494Y0101329D02*
X0196506Y0101329D01*
X0194944Y0100131D02*
X0201056Y0100131D01*
X0202616Y0100131D02*
X0203384Y0100131D01*
X0203384Y0101329D02*
X0202616Y0101329D01*
X0202616Y0102528D02*
X0203384Y0102528D01*
X0203384Y0103726D02*
X0202616Y0103726D01*
X0202616Y0104925D02*
X0203384Y0104925D01*
X0203384Y0106123D02*
X0202616Y0106123D01*
X0202616Y0107322D02*
X0203384Y0107322D01*
X0206367Y0107322D02*
X0384633Y0107322D01*
X0383845Y0106123D02*
X0207155Y0106123D01*
X0207503Y0104925D02*
X0383497Y0104925D01*
X0383473Y0103726D02*
X0207527Y0103726D01*
X0207227Y0102528D02*
X0383772Y0102528D01*
X0384494Y0101329D02*
X0206506Y0101329D01*
X0204944Y0100131D02*
X0386056Y0100131D01*
X0387616Y0101329D02*
X0388384Y0101329D01*
X0388384Y0102528D02*
X0387616Y0102528D01*
X0387616Y0103726D02*
X0388384Y0103726D01*
X0388384Y0104925D02*
X0387616Y0104925D01*
X0387616Y0106123D02*
X0388384Y0106123D01*
X0388384Y0107322D02*
X0387616Y0107322D01*
X0385050Y0097734D02*
X0205950Y0097734D01*
X0206945Y0096535D02*
X0384055Y0096535D01*
X0383566Y0095337D02*
X0207434Y0095337D01*
X0207361Y0092940D02*
X0383639Y0092940D01*
X0384195Y0091741D02*
X0206805Y0091741D01*
X0205643Y0090543D02*
X0385357Y0090543D01*
X0385618Y0088146D02*
X0205382Y0088146D01*
X0206668Y0086947D02*
X0384332Y0086947D01*
X0383700Y0085749D02*
X0207300Y0085749D01*
X0207467Y0083352D02*
X0383533Y0083352D01*
X0383959Y0082153D02*
X0207041Y0082153D01*
X0206143Y0080955D02*
X0384857Y0080955D01*
X0384671Y0077359D02*
X0206329Y0077359D01*
X0207136Y0076161D02*
X0383864Y0076161D01*
X0383503Y0074962D02*
X0207497Y0074962D01*
X0207532Y0073764D02*
X0383468Y0073764D01*
X0383760Y0072565D02*
X0207240Y0072565D01*
X0206533Y0071367D02*
X0384467Y0071367D01*
X0385983Y0070168D02*
X0205017Y0070168D01*
X0203384Y0070168D02*
X0202616Y0070168D01*
X0202616Y0069701D02*
X0202616Y0073866D01*
X0198451Y0073866D01*
X0198559Y0073184D01*
X0198781Y0072502D01*
X0199106Y0071864D01*
X0199527Y0071284D01*
X0200034Y0070777D01*
X0200614Y0070356D01*
X0201252Y0070031D01*
X0201934Y0069809D01*
X0202616Y0069701D01*
X0202616Y0071367D02*
X0203384Y0071367D01*
X0203384Y0072565D02*
X0202616Y0072565D01*
X0202616Y0073764D02*
X0203384Y0073764D01*
X0203384Y0074962D02*
X0202616Y0074962D01*
X0202616Y0076161D02*
X0203384Y0076161D01*
X0203384Y0077359D02*
X0202616Y0077359D01*
X0201525Y0078558D02*
X0194475Y0078558D01*
X0193731Y0079756D02*
X0202269Y0079756D01*
X0202616Y0080955D02*
X0203384Y0080955D01*
X0203384Y0082153D02*
X0202616Y0082153D01*
X0202616Y0083352D02*
X0203384Y0083352D01*
X0203384Y0085749D02*
X0202616Y0085749D01*
X0202616Y0086947D02*
X0203384Y0086947D01*
X0203384Y0088146D02*
X0202616Y0088146D01*
X0200618Y0088146D02*
X0195382Y0088146D01*
X0196668Y0086947D02*
X0199332Y0086947D01*
X0198700Y0085749D02*
X0197300Y0085749D01*
X0197467Y0083352D02*
X0198533Y0083352D01*
X0198959Y0082153D02*
X0197041Y0082153D01*
X0196143Y0080955D02*
X0199857Y0080955D01*
X0199671Y0077359D02*
X0196329Y0077359D01*
X0197136Y0076161D02*
X0198864Y0076161D01*
X0198503Y0074962D02*
X0197497Y0074962D01*
X0197532Y0073764D02*
X0198468Y0073764D01*
X0198760Y0072565D02*
X0197240Y0072565D01*
X0196533Y0071367D02*
X0199467Y0071367D01*
X0200983Y0070168D02*
X0195017Y0070168D01*
X0195899Y0067771D02*
X0200101Y0067771D01*
X0199074Y0066573D02*
X0196926Y0066573D01*
X0197422Y0065374D02*
X0198578Y0065374D01*
X0198627Y0062977D02*
X0197373Y0062977D01*
X0196832Y0061779D02*
X0199168Y0061779D01*
X0200306Y0060580D02*
X0195694Y0060580D01*
X0193384Y0060580D02*
X0192616Y0060580D01*
X0192616Y0061779D02*
X0193384Y0061779D01*
X0193384Y0062977D02*
X0192616Y0062977D01*
X0192616Y0065374D02*
X0193384Y0065374D01*
X0193384Y0066573D02*
X0192616Y0066573D01*
X0192616Y0067771D02*
X0193384Y0067771D01*
X0188578Y0065374D02*
X0045080Y0065374D01*
X0043600Y0065374D02*
X0042400Y0065374D01*
X0042400Y0066573D02*
X0043600Y0066573D01*
X0043600Y0067771D02*
X0042400Y0067771D01*
X0042400Y0068970D02*
X0043600Y0068970D01*
X0043600Y0070168D02*
X0042400Y0070168D01*
X0042400Y0071367D02*
X0043600Y0071367D01*
X0043600Y0072565D02*
X0042400Y0072565D01*
X0042400Y0076161D02*
X0043600Y0076161D01*
X0043600Y0077359D02*
X0042400Y0077359D01*
X0042400Y0078558D02*
X0043600Y0078558D01*
X0043600Y0079756D02*
X0042400Y0079756D01*
X0042400Y0080955D02*
X0043600Y0080955D01*
X0043600Y0082153D02*
X0042400Y0082153D01*
X0038465Y0082153D02*
X0033000Y0082153D01*
X0033000Y0080955D02*
X0036819Y0080955D01*
X0035740Y0079756D02*
X0033000Y0079756D01*
X0033000Y0078558D02*
X0034966Y0078558D01*
X0034425Y0077359D02*
X0033000Y0077359D01*
X0033000Y0076161D02*
X0034079Y0076161D01*
X0033903Y0074962D02*
X0033000Y0074962D01*
X0026000Y0087250D02*
X0013000Y0074250D01*
X0033000Y0062977D02*
X0188627Y0062977D01*
X0189168Y0061779D02*
X0033000Y0061779D01*
X0033000Y0060580D02*
X0190306Y0060580D01*
X0192616Y0058183D02*
X0193384Y0058183D01*
X0193384Y0056984D02*
X0192616Y0056984D01*
X0192616Y0055786D02*
X0193384Y0055786D01*
X0193384Y0053389D02*
X0192616Y0053389D01*
X0192616Y0052190D02*
X0193384Y0052190D01*
X0193384Y0050992D02*
X0192616Y0050992D01*
X0196180Y0050992D02*
X0199819Y0050992D01*
X0198940Y0052190D02*
X0197060Y0052190D01*
X0197473Y0053389D02*
X0198527Y0053389D01*
X0198451Y0054634D02*
X0202616Y0054634D01*
X0202616Y0058799D01*
X0201934Y0058691D01*
X0201252Y0058469D01*
X0200614Y0058144D01*
X0200034Y0057723D01*
X0199527Y0057216D01*
X0199106Y0056636D01*
X0198781Y0055998D01*
X0198559Y0055316D01*
X0198451Y0054634D01*
X0198712Y0055786D02*
X0197288Y0055786D01*
X0196641Y0056984D02*
X0199359Y0056984D01*
X0200691Y0058183D02*
X0195309Y0058183D01*
X0202616Y0058183D02*
X0203384Y0058183D01*
X0203384Y0056984D02*
X0202616Y0056984D01*
X0202616Y0055786D02*
X0203384Y0055786D01*
X0203384Y0053389D02*
X0202616Y0053389D01*
X0202616Y0052190D02*
X0203384Y0052190D01*
X0203384Y0050992D02*
X0202616Y0050992D01*
X0206180Y0050992D02*
X0384819Y0050992D01*
X0383940Y0052190D02*
X0207060Y0052190D01*
X0207473Y0053389D02*
X0383527Y0053389D01*
X0383451Y0054634D02*
X0387616Y0054634D01*
X0387616Y0058799D01*
X0386934Y0058691D01*
X0386252Y0058469D01*
X0385614Y0058144D01*
X0385034Y0057723D01*
X0384527Y0057216D01*
X0384106Y0056636D01*
X0383781Y0055998D01*
X0383559Y0055316D01*
X0383451Y0054634D01*
X0383712Y0055786D02*
X0207288Y0055786D01*
X0206641Y0056984D02*
X0384359Y0056984D01*
X0385691Y0058183D02*
X0205309Y0058183D01*
X0205694Y0060580D02*
X0385306Y0060580D01*
X0384168Y0061779D02*
X0206832Y0061779D01*
X0207373Y0062977D02*
X0383627Y0062977D01*
X0383578Y0065374D02*
X0207422Y0065374D01*
X0206926Y0066573D02*
X0384074Y0066573D01*
X0385101Y0067771D02*
X0205899Y0067771D01*
X0203384Y0067771D02*
X0202616Y0067771D01*
X0202616Y0066573D02*
X0203384Y0066573D01*
X0203384Y0062977D02*
X0202616Y0062977D01*
X0202616Y0061779D02*
X0203384Y0061779D01*
X0203384Y0060580D02*
X0202616Y0060580D01*
X0193384Y0079756D02*
X0192616Y0079756D01*
X0192269Y0079756D02*
X0079814Y0079756D01*
X0078616Y0080955D02*
X0189857Y0080955D01*
X0188959Y0082153D02*
X0076685Y0082153D01*
X0069315Y0082153D02*
X0047535Y0082153D01*
X0049181Y0080955D02*
X0067384Y0080955D01*
X0066186Y0079756D02*
X0050260Y0079756D01*
X0051034Y0078558D02*
X0065355Y0078558D01*
X0064858Y0077359D02*
X0051575Y0077359D01*
X0051921Y0076161D02*
X0064362Y0076161D01*
X0064288Y0074962D02*
X0052097Y0074962D01*
X0033000Y0059382D02*
X0403000Y0059382D01*
X0403000Y0060580D02*
X0400694Y0060580D01*
X0401832Y0061779D02*
X0403000Y0061779D01*
X0403000Y0062977D02*
X0402373Y0062977D01*
X0395306Y0060580D02*
X0390694Y0060580D01*
X0391832Y0061779D02*
X0394168Y0061779D01*
X0393627Y0062977D02*
X0392373Y0062977D01*
X0392422Y0065374D02*
X0393578Y0065374D01*
X0394074Y0066573D02*
X0391926Y0066573D01*
X0390899Y0067771D02*
X0395101Y0067771D01*
X0394467Y0071367D02*
X0391533Y0071367D01*
X0392240Y0072565D02*
X0393760Y0072565D01*
X0393468Y0073764D02*
X0392532Y0073764D01*
X0392497Y0074962D02*
X0393503Y0074962D01*
X0393864Y0076161D02*
X0392136Y0076161D01*
X0391329Y0077359D02*
X0394671Y0077359D01*
X0394857Y0080955D02*
X0391143Y0080955D01*
X0392041Y0082153D02*
X0393959Y0082153D01*
X0393533Y0083352D02*
X0392467Y0083352D01*
X0392300Y0085749D02*
X0393700Y0085749D01*
X0394332Y0086947D02*
X0391668Y0086947D01*
X0390382Y0088146D02*
X0395618Y0088146D01*
X0395357Y0090543D02*
X0390643Y0090543D01*
X0391805Y0091741D02*
X0394195Y0091741D01*
X0393639Y0092940D02*
X0392361Y0092940D01*
X0392434Y0095337D02*
X0393566Y0095337D01*
X0394055Y0096535D02*
X0391945Y0096535D01*
X0390950Y0097734D02*
X0395050Y0097734D01*
X0401668Y0086947D02*
X0403000Y0086947D01*
X0403000Y0085749D02*
X0402300Y0085749D01*
X0388384Y0067771D02*
X0387616Y0067771D01*
X0387616Y0066573D02*
X0388384Y0066573D01*
X0388384Y0062977D02*
X0387616Y0062977D01*
X0387616Y0061779D02*
X0388384Y0061779D01*
X0388384Y0060580D02*
X0387616Y0060580D01*
X0387616Y0058183D02*
X0388384Y0058183D01*
X0388384Y0056984D02*
X0387616Y0056984D01*
X0387616Y0055786D02*
X0388384Y0055786D01*
X0388384Y0053389D02*
X0387616Y0053389D01*
X0387616Y0052190D02*
X0388384Y0052190D01*
X0388384Y0050992D02*
X0387616Y0050992D01*
X0391180Y0050992D02*
X0394819Y0050992D01*
X0393940Y0052190D02*
X0392060Y0052190D01*
X0392473Y0053389D02*
X0393527Y0053389D01*
X0393712Y0055786D02*
X0392288Y0055786D01*
X0391641Y0056984D02*
X0394359Y0056984D01*
X0395691Y0058183D02*
X0390309Y0058183D01*
X0397616Y0056984D02*
X0398384Y0056984D01*
X0398384Y0055786D02*
X0397616Y0055786D01*
X0397616Y0053389D02*
X0398384Y0053389D01*
X0398384Y0052190D02*
X0397616Y0052190D01*
X0397616Y0050992D02*
X0398384Y0050992D01*
X0203384Y0090543D02*
X0202616Y0090543D01*
X0202616Y0091741D02*
X0203384Y0091741D01*
X0203384Y0092940D02*
X0202616Y0092940D01*
X0202616Y0094634D02*
X0198451Y0094634D01*
X0198559Y0095316D01*
X0198781Y0095998D01*
X0199106Y0096636D01*
X0199527Y0097216D01*
X0200034Y0097723D01*
X0200614Y0098144D01*
X0201252Y0098469D01*
X0201934Y0098691D01*
X0202616Y0098799D01*
X0202616Y0094634D01*
X0202616Y0095337D02*
X0203384Y0095337D01*
X0203384Y0096535D02*
X0202616Y0096535D01*
X0202616Y0097734D02*
X0203384Y0097734D01*
X0200050Y0097734D02*
X0195950Y0097734D01*
X0196945Y0096535D02*
X0199055Y0096535D01*
X0198566Y0095337D02*
X0197434Y0095337D01*
X0197361Y0092940D02*
X0198639Y0092940D01*
X0199195Y0091741D02*
X0196805Y0091741D01*
X0195643Y0090543D02*
X0200357Y0090543D01*
X0193384Y0088146D02*
X0192616Y0088146D01*
X0192616Y0086947D02*
X0193384Y0086947D01*
X0193384Y0085749D02*
X0192616Y0085749D01*
X0192616Y0083352D02*
X0193384Y0083352D01*
X0193384Y0082153D02*
X0192616Y0082153D01*
X0192616Y0080955D02*
X0193384Y0080955D01*
X0189494Y0101329D02*
X0096568Y0101329D01*
X0096072Y0102528D02*
X0188772Y0102528D01*
X0188473Y0103726D02*
X0095575Y0103726D01*
X0094645Y0104925D02*
X0188497Y0104925D01*
X0188845Y0106123D02*
X0093447Y0106123D01*
X0091278Y0107322D02*
X0189633Y0107322D01*
X0196106Y0110918D02*
X0199894Y0110918D01*
X0198978Y0112116D02*
X0197022Y0112116D01*
X0197461Y0113315D02*
X0198539Y0113315D01*
X0198688Y0115712D02*
X0197312Y0115712D01*
X0196695Y0116910D02*
X0199305Y0116910D01*
X0200565Y0118109D02*
X0195435Y0118109D01*
X0189305Y0116910D02*
X0077980Y0116910D01*
X0075151Y0115712D02*
X0188688Y0115712D01*
X0202616Y0115712D02*
X0203384Y0115712D01*
X0203384Y0116910D02*
X0202616Y0116910D01*
X0202616Y0118109D02*
X0203384Y0118109D01*
X0203384Y0113315D02*
X0202616Y0113315D01*
X0202616Y0112116D02*
X0203384Y0112116D01*
X0203384Y0110918D02*
X0202616Y0110918D01*
X0193384Y0140880D02*
X0192616Y0140880D01*
X0192616Y0142079D02*
X0193384Y0142079D01*
X0193384Y0143277D02*
X0192616Y0143277D01*
X0192616Y0145674D02*
X0193384Y0145674D01*
X0193384Y0146873D02*
X0192616Y0146873D01*
X0192616Y0148071D02*
X0193384Y0148071D01*
X0190514Y0148071D02*
X0096712Y0148071D01*
X0096445Y0146873D02*
X0189278Y0146873D01*
X0084722Y0107322D02*
X0062243Y0107322D01*
X0064010Y0106123D02*
X0082553Y0106123D01*
X0081355Y0104925D02*
X0065131Y0104925D01*
X0065937Y0103726D02*
X0080425Y0103726D01*
X0079928Y0102528D02*
X0066505Y0102528D01*
X0066876Y0101329D02*
X0079432Y0101329D01*
X0083908Y0056984D02*
X0062827Y0056984D01*
X0064350Y0055786D02*
X0082216Y0055786D01*
X0081017Y0054587D02*
X0065390Y0054587D01*
X0066132Y0053389D02*
X0080285Y0053389D01*
X0079788Y0052190D02*
X0066645Y0052190D01*
X0066961Y0050992D02*
X0079292Y0050992D01*
X0079288Y0049793D02*
X0058600Y0049793D01*
X0058600Y0048650D02*
X0067111Y0048650D01*
X0066956Y0047469D01*
X0066647Y0046315D01*
X0066190Y0045211D01*
X0065592Y0044177D01*
X0064865Y0043229D01*
X0064021Y0042385D01*
X0063073Y0041658D01*
X0062039Y0041060D01*
X0060935Y0040603D01*
X0059781Y0040294D01*
X0058600Y0040139D01*
X0058600Y0048650D01*
X0058600Y0048595D02*
X0057400Y0048595D01*
X0057400Y0047396D02*
X0058600Y0047396D01*
X0058600Y0046198D02*
X0057400Y0046198D01*
X0057400Y0044999D02*
X0058600Y0044999D01*
X0058600Y0043801D02*
X0057400Y0043801D01*
X0057400Y0042602D02*
X0058600Y0042602D01*
X0058600Y0041404D02*
X0057400Y0041404D01*
X0053366Y0041404D02*
X0033000Y0041404D01*
X0033000Y0042602D02*
X0051762Y0042602D01*
X0050696Y0043801D02*
X0033000Y0043801D01*
X0033000Y0044999D02*
X0049933Y0044999D01*
X0049402Y0046198D02*
X0033000Y0046198D01*
X0033000Y0047396D02*
X0049063Y0047396D01*
X0048896Y0048595D02*
X0033000Y0048595D01*
X0033000Y0050992D02*
X0049039Y0050992D01*
X0049355Y0052190D02*
X0033000Y0052190D01*
X0033000Y0053389D02*
X0049868Y0053389D01*
X0050610Y0054587D02*
X0033000Y0054587D01*
X0033000Y0055786D02*
X0051650Y0055786D01*
X0053173Y0056984D02*
X0033000Y0056984D01*
X0033000Y0058183D02*
X0056133Y0058183D01*
X0067104Y0048595D02*
X0079288Y0048595D01*
X0079338Y0047396D02*
X0066937Y0047396D01*
X0066598Y0046198D02*
X0079835Y0046198D01*
X0080331Y0044999D02*
X0066067Y0044999D01*
X0065304Y0043801D02*
X0081129Y0043801D01*
X0082327Y0042602D02*
X0064238Y0042602D01*
X0062634Y0041404D02*
X0084177Y0041404D01*
X0064408Y0022228D02*
X0051891Y0022228D01*
X0051528Y0021029D02*
X0064905Y0021029D01*
X0065401Y0019831D02*
X0050970Y0019831D01*
X0050174Y0018632D02*
X0066297Y0018632D01*
X0067496Y0017434D02*
X0049070Y0017434D01*
X0047341Y0016235D02*
X0069585Y0016235D01*
X0036930Y0017434D02*
X0033000Y0017434D01*
X0033000Y0018632D02*
X0035826Y0018632D01*
X0035030Y0019831D02*
X0033000Y0019831D01*
X0033000Y0021029D02*
X0034472Y0021029D01*
X0034109Y0022228D02*
X0033000Y0022228D01*
X0033000Y0023426D02*
X0033918Y0023426D01*
X0033000Y0013838D02*
X0183000Y0013838D01*
X0183000Y0012640D02*
X0033000Y0012640D01*
X0033000Y0011441D02*
X0183000Y0011441D01*
X0183000Y0010243D02*
X0033000Y0010243D01*
X0013000Y0024250D02*
X0007000Y0030250D01*
X0007000Y0319250D01*
X0009000Y0321250D01*
X0033000Y0264327D02*
X0073000Y0264327D01*
X0073000Y0265525D02*
X0045645Y0265525D01*
X0033000Y0263128D02*
X0073000Y0263128D01*
X0073000Y0261930D02*
X0033000Y0261930D01*
X0033000Y0260731D02*
X0073000Y0260731D01*
X0073000Y0259533D02*
X0033000Y0259533D01*
X0058600Y0248746D02*
X0073000Y0248746D01*
X0039899Y0182828D02*
X0033000Y0182828D01*
X0033000Y0181630D02*
X0037650Y0181630D01*
X0036295Y0180431D02*
X0033000Y0180431D01*
X0033000Y0179233D02*
X0035355Y0179233D01*
X0034705Y0178034D02*
X0033000Y0178034D01*
X0033000Y0176836D02*
X0034260Y0176836D01*
X0033992Y0175637D02*
X0033000Y0175637D01*
D19*
X0631524Y0076112D02*
X0631661Y0076250D01*
M02*
